<svg id="b3cdcac3-b65e-4836-8d67-a2199262d7d8" data-name="Layer 1" xmlns="http://www.w3.org/2000/svg" xmlns:xlink="http://www.w3.org/1999/xlink" viewBox="0 0 2752.11 526.72"><defs><clipPath id="fcaffc7b-e4e5-424e-8e6e-8437f9f00582"><circle cx="1171.57" cy="264.52" r="196.75" fill="none"/></clipPath></defs><rect width="2752.11" height="526.72" fill="#d6f2ef"/><path d="M1832,494.59c28.36-.18,51.84-.37,45.66-.37-12.19,0-10.84-80.57-10.84-80.57H1832" fill="#6badc9"/><path d="M1832,413.65h-40.44V466l-6.47,21.24-13.3,7.77,60.21-.37" fill="#2c67a8"/><path d="M1828.23,499h-63.67v-8.87c12.48,0,22.64-9,22.64-20V409.39h41v8.87h-32.17v51.86a27.48,27.48,0,0,1-8.8,20h41Z" fill="#404041"/><path d="M1895.74,499h-67.51v-8.87H1873a27.48,27.48,0,0,1-8.8-20V418.26h-36v-8.87h44.87v60.73c0,11,10.16,20,22.64,20Z" fill="#404041"/><path d="M1915.76,498.82H1741.58a4.44,4.44,0,0,1,0-8.87h174.18a4.44,4.44,0,1,1,0,8.87Z" fill="#404041"/><path d="M1835.17,55.36H1600.53c-8.11,0-14.69,5.69-14.69,12.7v333c0,7,6.52,12.6,14.57,12.6H1832" fill="#2c67a8"/><path d="M1832,413.82h237c8.58,0,15.54-6,15.54-13.45V68.23c0-7-6.57-12.71-14.68-12.71H1832" fill="#6badc9"/><path d="M2065.67,418.26H1597.12c-10.47,0-19-7.65-19-17v-333c0-9.45,8.57-17.14,19.11-17.14h469.29c10.54,0,19.11,7.69,19.11,17.14V400.37C2085.64,410.23,2076.68,418.26,2065.67,418.26ZM1597.24,60c-5.65,0-10.25,3.71-10.25,8.27v333c0,4.5,4.55,8.17,10.13,8.17h468.55c6.12,0,11.11-4.05,11.11-9V68.23c0-4.56-4.6-8.27-10.25-8.27Z" fill="#404041"/><rect x="1602.27" y="78.58" width="458.24" height="299.21" rx="11.24" fill="#fff"/><path d="M2049.27,382.23H1613.51a15.69,15.69,0,0,1-15.67-15.68V89.82a15.69,15.69,0,0,1,15.67-15.67h435.76A15.69,15.69,0,0,1,2065,89.82V366.55A15.69,15.69,0,0,1,2049.27,382.23ZM1613.51,83a6.82,6.82,0,0,0-6.8,6.81V366.55a6.81,6.81,0,0,0,6.8,6.81h435.76a6.81,6.81,0,0,0,6.81-6.81V89.82a6.82,6.82,0,0,0-6.81-6.81Z" fill="#404041"/><path d="M1865.87,400.17H1796a4.44,4.44,0,0,1,0-8.87h69.86a4.44,4.44,0,1,1,0,8.87Z" fill="#404041"/><path d="M1834.24,334c-3.18,0-6.36-.14-9.56-.42-37-3.26-69-25-87.93-59.54a99.82,99.82,0,0,1-2.59-89.75c19.41-41.56,55.41-65.67,98.76-66.15a5.18,5.18,0,0,1,3.54,1.43,4.92,4.92,0,0,1,1.47,3.52V224.2l79.72,62.29a4.92,4.92,0,0,1,1.86,3.33,4.86,4.86,0,0,1-1,3.67A107.72,107.72,0,0,1,1834.24,334Zm-3.71-208.41c-39.29,1.32-71.88,23.74-89.67,61.83a92.37,92.37,0,0,0,2.38,83.07c17.68,32.38,47.59,52.69,82.09,55.72a100.45,100.45,0,0,0,85.79-35.38l-78.69-61.48a5,5,0,0,1-1.9-3.9Z" fill="#404040"/><path d="M1916.12,293.31a4.89,4.89,0,0,1-3-1l-80.37-62.8a5,5,0,0,1-1.44-6h0l43.06-92.35a5,5,0,0,1,6.71-2.41c53,25.51,75.81,89.58,51,142.85a104.44,104.44,0,0,1-12,19.77,5.09,5.09,0,0,1-3.34,1.94C1916.54,293.29,1916.33,293.31,1916.12,293.31Zm-77.29-68.47,76.85,60a97.08,97.08,0,0,0,9.66-16.46c22.8-48.88,2.47-107.55-45.3-132Zm-.82,1.75h0Z" fill="#404040"/><path d="M1837.15,226.43l-3.39-.41a4.12,4.12,0,0,1-3.23-4.05V122.24a4.17,4.17,0,0,1,4.17-4.16,99.82,99.82,0,0,1,44.74,9.93l1.38.64.78,1.68a4,4,0,0,1-.13,3.13Zm.78-100.9V207.6l35.39-74.23A91,91,0,0,0,1837.93,125.53Zm38.39,9.18,0,0Z" fill="#404040"/><path d="M2358.72,413.32h-40v52.49l-6.49,21.33-13.35,7.79,59.42-.38" fill="#7d62a3"/><path d="M2358.27,494.55c27.46-.18,52.86-.36,46.86-.36-12.24,0-10.88-80.87-10.88-80.87h-35.53" fill="#7c8dce"/><path d="M2355.55,499h-63.92v-8.9c12.53,0,22.72-9,22.72-20.05V409h41.2v8.9h-32.3V470a27.6,27.6,0,0,1-8.83,20.05h41.13Z" fill="#404041"/><path d="M2423.32,499h-67.77v-8.9h45a27.61,27.61,0,0,1-8.84-20.05V417.94h-36.14V409h45v61c0,11.06,10.2,20.05,22.73,20.05Z" fill="#404041"/><path d="M2443.42,498.81H2268.56a4.45,4.45,0,1,1,0-8.9h174.86a4.45,4.45,0,0,1,0,8.9Z" fill="#404041"/><path d="M2358.27,53.81h-234.6c-8.14,0-14.74,5.71-14.74,12.76V400.83c0,7,6.55,12.66,14.62,12.66h235.17" fill="#7d62a3"/><path d="M2358.72,413.49H2593.9c8.61,0,15.6-6.05,15.6-13.51V66.57c0-7-6.6-12.76-14.74-12.76H2358.27" fill="#7c8dce"/><path d="M2593.9,417.94H2123.55c-10.51,0-19.07-7.67-19.07-17.11V66.57c0-9.49,8.61-17.21,19.19-17.21h471.09c10.58,0,19.19,7.72,19.19,17.21V400C2614,409.88,2605,417.94,2593.9,417.94ZM2123.67,58.26c-5.67,0-10.29,3.73-10.29,8.31V400.83c0,4.53,4.56,8.21,10.17,8.21H2593.9c6.15,0,11.15-4.06,11.15-9.06V66.57c0-4.58-4.62-8.31-10.29-8.31Z" fill="#404041"/><rect x="2128.72" y="76.96" width="460.01" height="300.36" rx="11.28" fill="#fff"/><path d="M2577.44,381.77H2140A15.75,15.75,0,0,1,2124.27,366V88.24A15.75,15.75,0,0,1,2140,72.51h437.44a15.75,15.75,0,0,1,15.73,15.73V366A15.75,15.75,0,0,1,2577.44,381.77ZM2140,81.41a6.83,6.83,0,0,0-6.83,6.83V366a6.83,6.83,0,0,0,6.83,6.83h437.44a6.83,6.83,0,0,0,6.83-6.83V88.24a6.83,6.83,0,0,0-6.83-6.83Z" fill="#404041"/><path d="M2393.33,399.78H2323.2a4.45,4.45,0,1,1,0-8.9h70.13a4.45,4.45,0,1,1,0,8.9Z" fill="#404041"/><path d="M2360.26,359.13v-27.2A24.22,24.22,0,0,0,2336,307.71l-.15,0a24.23,24.23,0,1,1,0-48.45h78.72a24.23,24.23,0,1,1,0,48.45H2394" fill="none" stroke="#404041" stroke-linecap="round" stroke-linejoin="round" stroke-width="9.67"/><path d="M2272.06,247.21h-23.37a39.26,39.26,0,0,1-17.23-74.59,41.6,41.6,0,0,1-.44-4.35A38.63,38.63,0,0,1,2288,134a38.75,38.75,0,0,1,76.11-4.19,38.77,38.77,0,0,1,68.12,25.47c0,1.29-.26,2.5-.37,3.75a38.62,38.62,0,0,1,47.78,37.81,38.47,38.47,0,0,1-8.46,24,38.93,38.93,0,0,1-31.57,61.87" fill="none" stroke="#404041" stroke-linecap="round" stroke-linejoin="round" stroke-width="9.67"/><path d="M2378.52,179.87a26.31,26.31,0,0,1-26.3,26.31l-40.55,0a39.37,39.37,0,0,0,0,78.73" fill="none" stroke="#404041" stroke-linecap="round" stroke-linejoin="round" stroke-width="9.67"/><path d="M2560.09,310.37l-63.34,0c-2.67,0-4.84,2.5-4.84,5.59l.05,178.6c0,3.08,2.17,5.58,4.84,5.58l63.34,0" fill="#f15a29"/><path d="M2496.8,502.41c-3.9,0-7.08-3.51-7.09-7.83l-.05-178.6c0-4.32,3.18-7.84,7.09-7.84l63.34,0a2.25,2.25,0,0,1,0,4.5l-63.34,0c-1.4,0-2.59,1.53-2.59,3.34l.05,178.6c0,1.8,1.19,3.33,2.59,3.33l63.35,0a2.25,2.25,0,0,1,0,4.5Z" fill="#404041"/><path d="M2560.14,500.14h63.39c2.65,0,4.79-2.49,4.79-5.55l-.05-178.31c0-3.27-2.29-5.92-5.12-5.91h-63.06" fill="#f7bb7d"/><path d="M2560.15,502.39a2.25,2.25,0,0,1,0-4.5h63.38c1.38,0,2.54-1.51,2.54-3.3L2626,316.27c0-2-1.28-3.67-2.87-3.67l-63.06,0a2.25,2.25,0,0,1,0-4.5l63.06,0c4.06,0,7.37,3.67,7.37,8.17l.05,178.31c0,4.3-3.16,7.79-7,7.8Z" fill="#404041"/><g id="b3e1ba68-1436-4d3c-90be-9517e9de202c" data-name="SVGID"><path d="M2560.12,482.76H2615a4.39,4.39,0,0,0,4.15-4.59V330.58a4.68,4.68,0,0,0-4.43-4.9H2505.27a4.42,4.42,0,0,0-4.18,4.63V478.13a4.42,4.42,0,0,0,4.18,4.63Z" fill="#fff"/><path d="M2615,485H2505.27a6.67,6.67,0,0,1-6.43-6.88V330.31a6.67,6.67,0,0,1,6.43-6.88h109.45a6.94,6.94,0,0,1,6.68,7.15V478.17A6.64,6.64,0,0,1,2615,485ZM2505.27,327.93a2.2,2.2,0,0,0-1.93,2.38V478.13a2.2,2.2,0,0,0,1.93,2.38H2615a2.16,2.16,0,0,0,1.91-2.34V330.58a2.45,2.45,0,0,0-2.18-2.65Z" fill="#404041"/></g><line x1="2575.41" y1="491.52" x2="2547.75" y2="491.52" fill="#fff"/><path d="M2575.4,493.77h-27.64a2.25,2.25,0,0,1,0-4.5h27.64a2.25,2.25,0,0,1,0,4.5Z" fill="#404041"/><line x1="2570.17" y1="317.77" x2="2552.99" y2="317.77" fill="#fff"/><path d="M2570.18,320H2553a2.25,2.25,0,0,1,0-4.5h17.2a2.25,2.25,0,0,1,0,4.5Z" fill="#404041"/><path d="M2604.35,391.44a2.11,2.11,0,0,1-2.09-1.83,18.22,18.22,0,0,0-17.89-15.92,17.74,17.74,0,0,0-9.61,2.82,2.11,2.11,0,0,1-2.28-3.54,21.92,21.92,0,0,1,11.89-3.49,22.44,22.44,0,0,1,22.07,19.57,2.11,2.11,0,0,1-1.82,2.37Z" fill="#404041"/><path d="M2547.27,434.11a21.82,21.82,0,0,1-8.65-1.78,22.17,22.17,0,0,1-7.06-4.84,22.68,22.68,0,0,1-6.49-15.93,2.11,2.11,0,1,1,4.21,0,18.61,18.61,0,0,0,1.42,7.15,18.41,18.41,0,0,0,3.86,5.83,17.94,17.94,0,0,0,5.73,3.92,17.59,17.59,0,0,0,7,1.44,2.11,2.11,0,1,1,0,4.21Z" fill="#404041"/><path d="M2574.45,434.11a2.11,2.11,0,0,1,0-4.21,17.68,17.68,0,0,0,7-1.44,18,18,0,0,0,5.71-3.92,18.39,18.39,0,0,0,3.87-5.83,18.61,18.61,0,0,0,1.42-7.15,2.11,2.11,0,1,1,4.21,0,22.82,22.82,0,0,1-1.74,8.76,22.44,22.44,0,0,1-11.81,12A21.83,21.83,0,0,1,2574.45,434.11Z" fill="#404041"/><path d="M2540,383.27a2.1,2.1,0,0,1-1.5-.63,15.42,15.42,0,0,1-3.31-5,16,16,0,0,1,0-12.2,15.48,15.48,0,0,1,3.31-5,2.1,2.1,0,0,1,3,2.95,11.34,11.34,0,0,0-2.42,3.66,11.75,11.75,0,0,0,0,9,11.19,11.19,0,0,0,2.42,3.65,2.1,2.1,0,0,1,0,3A2.13,2.13,0,0,1,2540,383.27Z" fill="#404041"/><path d="M2572.19,450.93h-5.81a7.58,7.58,0,0,0-11.09,0h-5.81a15.72,15.72,0,0,1-14.69-20.61,22.6,22.6,0,0,1-9.76-18.63c0-.33,0-.67,0-1a22.64,22.64,0,0,1-9.88-18.69,22.37,22.37,0,0,1,18.95-22.22,15.58,15.58,0,0,1,15.36-13.85,15.29,15.29,0,0,0,22.71,0,15.58,15.58,0,0,1,15.37,13.85A22.37,22.37,0,0,1,2606.49,392a22.65,22.65,0,0,1-9.87,18.69c0,.33,0,.66,0,1a22.63,22.63,0,0,1-9.77,18.63,15.8,15.8,0,0,1,.78,4.91A15.6,15.6,0,0,1,2572.19,450.93Zm-11.35-9.85a2.11,2.11,0,0,1,2.1,2.11,3.49,3.49,0,0,0,3.44,3.53h5.81a11.39,11.39,0,0,0,11.26-11.49,11.64,11.64,0,0,0-1.08-4.89,2.09,2.09,0,0,1,.87-2.7,18.37,18.37,0,0,0,9.19-15.95q0-1-.09-1.89a2.08,2.08,0,0,1,1-2,18.42,18.42,0,0,0,8.92-15.78,18.12,18.12,0,0,0-16.86-18.21,2.11,2.11,0,0,1-2-2.1c0-.05,0-.1,0-.15a11.39,11.39,0,0,0-11.26-11.4,11.15,11.15,0,0,0-9.56,5.44,2.09,2.09,0,0,1-1.79,1h0a2.09,2.09,0,0,1-1.8-1,11.15,11.15,0,0,0-9.56-5.44,11.39,11.39,0,0,0-11.26,11.49,2.17,2.17,0,0,1-2,2.16A18.12,18.12,0,0,0,2519.38,392a18.39,18.39,0,0,0,8.93,15.78,2.11,2.11,0,0,1,1,2q-.09.93-.09,1.89a18.35,18.35,0,0,0,9.19,15.95,2.1,2.1,0,0,1,.87,2.71,11.51,11.51,0,0,0,10.18,16.37h5.81a3.49,3.49,0,0,0,3.44-3.53A2.11,2.11,0,0,1,2560.84,441.08Z" fill="#404041"/><path d="M2560.84,448.23a2.1,2.1,0,0,1-2.11-2.1V381.38a2.11,2.11,0,1,1,4.21,0v64.75A2.1,2.1,0,0,1,2560.84,448.23Z" fill="#404041"/><path d="M2551.81,420.31a1.61,1.61,0,0,1-.37,0,11,11,0,0,1-6.48-3.77,11.18,11.18,0,0,1-2.61-7.18,12.2,12.2,0,0,1,.18-2,11.28,11.28,0,0,1-3.5-3.18,11.23,11.23,0,0,1-1.1-11.06,10.93,10.93,0,0,1,2.59-3.63,2.1,2.1,0,1,1,2.87,3.08,6.93,6.93,0,0,0-1.61,2.26,6.82,6.82,0,0,0-.61,2.85,7,7,0,0,0,1.29,4.06,6.82,6.82,0,0,0,3.27,2.47,2.11,2.11,0,0,1,1.27,2.71,7.73,7.73,0,0,0-.33,1.19,7.92,7.92,0,0,0-.11,1.23,7,7,0,0,0,1.63,4.46,6.75,6.75,0,0,0,4,2.33,2.11,2.11,0,0,1-.37,4.18Z" fill="#404041"/><path d="M2569.85,420.31a2.11,2.11,0,0,1-.37-4.18,6.74,6.74,0,0,0,4-2.33,7,7,0,0,0,1.62-4.48,7.42,7.42,0,0,0-.11-1.24,8.41,8.41,0,0,0-.33-1.19,2.11,2.11,0,0,1,1.28-2.68,6.86,6.86,0,0,0,3.27-2.48,6.94,6.94,0,0,0,1.28-4.05,7.13,7.13,0,0,0-.59-2.85,2.1,2.1,0,0,1,3.85-1.7,11.28,11.28,0,0,1,.95,4.55,11.09,11.09,0,0,1-5.57,9.68,10.37,10.37,0,0,1,.18,1.94,11.23,11.23,0,0,1-2.6,7.21,11,11,0,0,1-6.49,3.76A1.55,1.55,0,0,1,2569.85,420.31Z" fill="#404041"/><path d="M1597,474.85H1745.3v9.08a15.25,15.25,0,0,1-15.21,15.21H1464.51a15.25,15.25,0,0,1-15.21-15.21v-9.08Z" fill="#ef2940"/><path d="M1730.09,501.77H1464.51a17.85,17.85,0,0,1-17.83-17.84v-9.09a2.62,2.62,0,0,1,2.62-2.62h296a2.63,2.63,0,0,1,2.63,2.62v9.09A17.86,17.86,0,0,1,1730.09,501.77Zm-278.16-24.3v6.46a12.6,12.6,0,0,0,12.58,12.59h265.58a12.61,12.61,0,0,0,12.59-12.59v-6.46Z" fill="#404041"/><path d="M1597.31,280.7h127.13c4.4,0,8,3.09,8,6.89v180c0,4-3.77,7.29-8.42,7.29H1470.1c-4.36,0-7.89-3.06-7.89-6.84V287.59c0-3.8,3.56-6.89,8-6.89Z" fill="#ff7a81"/><path d="M1724,477.47H1470.1c-5.8,0-10.52-4.24-10.52-9.46V287.59c0-5.24,4.75-9.51,10.58-9.51h254.28c5.84,0,10.58,4.27,10.58,9.51v180C1735,473,1730.07,477.47,1724,477.47ZM1470.16,283.33c-2.94,0-5.33,1.91-5.33,4.26V468c0,2.32,2.37,4.21,5.27,4.21H1724c3.19,0,5.79-2.09,5.79-4.66v-180c0-2.35-2.39-4.26-5.33-4.26Z" fill="#404041"/><rect x="1472.89" y="293.2" width="248.3" height="162.13" rx="6.65" fill="#fff"/><path d="M1714.53,458h-235a9.3,9.3,0,0,1-9.28-9.28V299.85a9.29,9.29,0,0,1,9.28-9.28h235a9.29,9.29,0,0,1,9.28,9.28V448.67A9.29,9.29,0,0,1,1714.53,458Zm-235-162.13a4,4,0,0,0-4,4V448.67a4,4,0,0,0,4,4h235a4,4,0,0,0,4-4V299.85a4,4,0,0,0-4-4Z" fill="#404041"/><path d="M1651.54,362.29a2.63,2.63,0,0,1-2.6-2.28,22.7,22.7,0,0,0-22.3-19.84,22.17,22.17,0,0,0-12,3.52,2.62,2.62,0,0,1-2.83-4.42,27.4,27.4,0,0,1,14.81-4.35,28,28,0,0,1,27.51,24.41,2.63,2.63,0,0,1-2.26,2.94A2.06,2.06,0,0,1,1651.54,362.29Z" fill="#404041"/><path d="M1580.4,415.48a27.33,27.33,0,0,1-19.58-8.25,28.31,28.31,0,0,1-8.1-19.86,2.63,2.63,0,0,1,5.25,0,23,23,0,0,0,6.59,16.19,22.45,22.45,0,0,0,7.13,4.89,22.1,22.1,0,0,0,8.71,1.78,2.63,2.63,0,0,1,0,5.25Z" fill="#404041"/><path d="M1614.28,415.48a2.63,2.63,0,0,1,0-5.25,22.12,22.12,0,0,0,8.72-1.78,22.36,22.36,0,0,0,7.12-4.89,23,23,0,0,0,6.59-16.19,2.63,2.63,0,0,1,5.25,0,28.34,28.34,0,0,1-2.17,10.93,27.88,27.88,0,0,1-5.93,8.93,27.56,27.56,0,0,1-8.79,6A27.16,27.16,0,0,1,1614.28,415.48Z" fill="#404041"/><path d="M1571.39,352.11a2.61,2.61,0,0,1-1.87-.78,19.48,19.48,0,0,1-4.13-6.23,19.91,19.91,0,0,1,0-15.21,19.22,19.22,0,0,1,4.13-6.22,2.62,2.62,0,0,1,3.73,3.68,14.4,14.4,0,0,0-3,4.56,14.75,14.75,0,0,0,0,11.18,14.24,14.24,0,0,0,3,4.55,2.63,2.63,0,0,1-1.86,4.47Z" fill="#404041"/><path d="M1611.46,436.45h-7.25a9.46,9.46,0,0,0-13.82,0h-7.24a19.57,19.57,0,0,1-18.3-25.68,28.19,28.19,0,0,1-12.18-23.23c0-.42,0-.83,0-1.24a28.24,28.24,0,0,1-12.31-23.3A27.89,27.89,0,0,1,1564,335.3,19.41,19.41,0,0,1,1583.15,318a19,19,0,0,1,14.16,6.29,19,19,0,0,1,14.15-6.29,19.41,19.41,0,0,1,19.15,17.26,27.9,27.9,0,0,1,23.61,27.7,28.27,28.27,0,0,1-12.31,23.3c0,.41,0,.82,0,1.24a28.2,28.2,0,0,1-12.17,23.23,19.59,19.59,0,0,1-18.31,25.68Zm-14.15-12.27a2.62,2.62,0,0,1,2.62,2.62,4.35,4.35,0,0,0,4.28,4.41h7.25a14.21,14.21,0,0,0,14-14.33,14.59,14.59,0,0,0-1.35-6.09,2.61,2.61,0,0,1,1.08-3.37,23,23,0,0,0,11.34-22.24,2.63,2.63,0,0,1,1.27-2.51A22.93,22.93,0,0,0,1649,363a22.59,22.59,0,0,0-21-22.7,2.62,2.62,0,0,1-2.47-2.62,1.28,1.28,0,0,1,0-.19,14.2,14.2,0,0,0-14-14.2,13.86,13.86,0,0,0-11.91,6.78,2.63,2.63,0,0,1-2.24,1.26h0a2.61,2.61,0,0,1-2.24-1.26,13.9,13.9,0,0,0-11.92-6.78,14.19,14.19,0,0,0-14,14.32,2.69,2.69,0,0,1-2.47,2.69,22.59,22.59,0,0,0-21,22.7,23,23,0,0,0,11.12,19.67,2.62,2.62,0,0,1,1.28,2.51,23,23,0,0,0,11.34,22.24,2.62,2.62,0,0,1,1.08,3.38,14.44,14.44,0,0,0-1.34,6.08,14.2,14.2,0,0,0,14,14.33h7.24a4.35,4.35,0,0,0,4.29-4.41A2.62,2.62,0,0,1,1597.31,424.18Z" fill="#404041"/><path d="M1597.31,433.09a2.62,2.62,0,0,1-2.63-2.62V349.76a2.63,2.63,0,0,1,5.25,0v80.71A2.62,2.62,0,0,1,1597.31,433.09Z" fill="#404041"/><path d="M1586.06,398.28a2.38,2.38,0,0,1-.46,0,13.71,13.71,0,0,1-8.09-4.7,14,14,0,0,1-3.24-9,14.68,14.68,0,0,1,.22-2.45,14,14,0,0,1-5.74-17.74,14.07,14.07,0,0,1,3.23-4.54,2.62,2.62,0,1,1,3.58,3.84,8.77,8.77,0,0,0-2,2.83,8.77,8.77,0,0,0,.85,8.6,8.48,8.48,0,0,0,4.08,3.09,2.59,2.59,0,0,1,1.49,1.36,2.62,2.62,0,0,1,.09,2,11.49,11.49,0,0,0-.41,1.48,9.37,9.37,0,0,0-.13,1.53,8.64,8.64,0,0,0,2,5.56,8.39,8.39,0,0,0,5,2.9,2.63,2.63,0,0,1-.46,5.21Z" fill="#404041"/><path d="M1608.54,398.28a2.62,2.62,0,0,1-.45-5.21,8.42,8.42,0,0,0,5-2.9,8.71,8.71,0,0,0,2-5.58,9.91,9.91,0,0,0-.14-1.54,10.56,10.56,0,0,0-.41-1.49,2.63,2.63,0,0,1,1.59-3.34,8.54,8.54,0,0,0,4.08-3.09,8.77,8.77,0,0,0,.85-8.6,2.63,2.63,0,0,1,4.81-2.12,14,14,0,0,1-1.39,13.77,13.74,13.74,0,0,1-4.36,4,14.91,14.91,0,0,1,.22,2.42,14,14,0,0,1-3.25,9,13.72,13.72,0,0,1-8.08,4.7A2.49,2.49,0,0,1,1608.54,398.28Z" fill="#404041"/><path d="M1618.72,474.85a9.41,9.41,0,0,1-9.39,9.38h-24a9.41,9.41,0,0,1-9.39-9.38Z" fill="#404041"/><circle cx="1170.15" cy="268.91" r="220.61" fill="#fff"/><polygon points="1370.57 277 1438.67 243.09 1364.76 207.6 1370.57 277" fill="#fff"/><g clip-path="url(#fcaffc7b-e4e5-424e-8e6e-8437f9f00582)"><path d="M1024.05,499.7c1.15-1.84,88.73-118.33,99.56-137.3,16.08-28.17-22.89-65.68-56.62-34.85-3.88,3.55-65.24,124.52-78.4,146.93-.1.18-11.52,13.92,9.37,27C1006.74,506.94,1024,499.83,1024.05,499.7Z" fill="#2b2f45"/><polygon points="1020.99 274.91 1022.74 295.28 997.08 302.33 1000.66 275.44 1020.99 274.91" fill="#fdb88f"/><polygon points="1025.63 298.82 1025.31 291.65 993.07 293.21 992.66 299.19 1025.63 298.82" fill="#a4d6fd"/><path d="M1031.54,299.26l-42.2-.72c3.36,6.53,2.91,15.29,2.91,15.29S972.54,408.46,975,438.75c2.9,18.78,4.84,68.1,28.72,66.54,21.56-1.4,20.66-31.56,20.66-31.56C1027.23,443.55,1032.15,302.75,1031.54,299.26Z" fill="#2b2f45"/><path d="M1023.59,263.6c4.78-5.7,6.45-15.43,4.75-22.67s-10-14.61-9.65-22c.12-2.37.17-10.29-2.22-10.1-2.58.19-4.09,2.19-5,4.61-2.81,7.18-2.08,14,2.28,22.42Z" fill="#fdb88f"/><path d="M1026.33,271.55c1.41-4.2.32-8.45,0-12.88-.22-3.29-.33-5.38-3.1-7.17-3.11-2-6.18-.32-9.33,1.6-5.81,3.55-15.66,16.26-9.41,23,2.31,2.49,3.45,4.43,10.21,4.84S1024.26,277.74,1026.33,271.55Z" fill="#fdb88f"/><path d="M996.1,271c0,1.24-.8,3.65-.76,4.89.06,1.55,1.84,2.35,3.33,2.76,3.21.91,11.37,2.16,14.69,1.95s1.85-2,3.74-4.76a15.26,15.26,0,0,0,2.13-6.56,79.6,79.6,0,0,0-2.1-33.14,49.49,49.49,0,0,0-21,1.33c-1.43.42-.81,2.57-.68,4.05s-.42.8.31,2c.91,1.57-.08,3.55-1.2,5s-2.48,3-2.31,4.77c.24,2.63,2.39,3.16,2.8,5.76.33,2-2.13,1.38-2.1,6.79C993,268,996.18,268.79,996.1,271Z" fill="#694334"/><path d="M1023.16,249.78c.06-4.79-1.71-11.5-4.67-15.26-1.25-1.59-2.94-2.76-4.31-4.24a16.61,16.61,0,0,1-4.21-9.92c0-.39,0-.78,0-1.16-.64,5.18.58,10.44,3.74,16.58a49.53,49.53,0,0,0-17.56,1.66c-1.43.42-.81,2.57-.68,4.05s-.42.8.31,2c.91,1.57-.08,3.55-1.2,5s-2.48,3-2.31,4.77c.24,2.63,2.39,3.16,2.8,5.76.33,2-2.13,1.38-2.1,6.79,0,2.19,3.23,3,3.15,5.14,0,1.24-.8,3.65-.76,4.89.06,1.54,1.84,2.35,3.33,2.76a73.22,73.22,0,0,0,13.06,2,24,24,0,0,0,3,.36,14.36,14.36,0,0,0,2.66-.08,10.24,10.24,0,0,0,2-1.92c2.95-3.87,4.32-9.62,3-14.08C1020.87,259.56,1023.09,255.3,1023.16,249.78Z" fill="#dc895f"/><path d="M1018.83,243.7c1.07-.87,2.61-6-1.7-7.59a49.49,49.49,0,0,0-21,1.33c-1.43.42-2.68,3.4-2.83,4.88-.28,2.57,2.1,4.11,2.48,5.57,2.88,1.11,5.5-1.2,10.19-1.65C1013,245.58,1016.91,245.21,1018.83,243.7Z" fill="#fdb88f"/><path d="M1019.9,253.17c1.22-2.52.79-4.61-.8-6.07-1.78-2-5.8-2.44-14.5-2.59-3.68-.07-6.32-.5-8.54.09a5.88,5.88,0,0,1-1.5,3.91c-1.12,1.42-2.48,3-2.31,4.77.21,2.24,1.74,3,2.47,4.82a31.84,31.84,0,0,0,10.44.32C1014.2,257.45,1018.41,256,1019.9,253.17Z" fill="#fdb88f"/><path d="M1020.78,260.76c-1-4.32-4.82-3.93-16.37-4.21a34.45,34.45,0,0,0-9.91.93,4.63,4.63,0,0,1,.55,1.56c.33,2-2.5,1.4-2.1,6.79.2,2.7,3.2,4,4.11,4.95,2.79.49,4.14-1.32,7.85-1.63,8.68-.72,12.72-2.33,14.37-4.48A6,6,0,0,0,1020.78,260.76Z" fill="#fdb88f"/><path d="M1008.41,267.56c-5.38-.09-10.85-.19-12.64,1.14a20.67,20.67,0,0,1,.33,2.27c0,1.24-.8,3.65-.76,4.89.06,1.55,1.84,2.35,3.33,2.76a48.43,48.43,0,0,0,4.86,1.18c.93,0,1.89-.09,2.88-.2,3.24-.36,5.68-.63,7.49-1,1.25-.7,5.91-2.15,6.13-5.73C1020.28,268.9,1018.35,267.73,1008.41,267.56Z" fill="#fdb88f"/><path d="M1000.88,246.57s1.1-.31,2.75-.64,3.88-.61,6.11-.85l3.28-.19c1.08-.09,2,.05,2.82-.09a5.09,5.09,0,0,0,1.87-.48c.41-.24.9-.46.9-.46a4.77,4.77,0,0,1-2.6,1.73,43.67,43.67,0,0,1-6.15.92c-2.23.14-4.47.27-6.16.22S1000.88,246.57,1000.88,246.57Z" fill="#dc895f"/><path d="M1000.3,257.4l2.55-.07c1.51-.05,3.5-.05,5.49-.22s4-.31,5.46-.45a12.44,12.44,0,0,0,3.19-.85,14.43,14.43,0,0,1-3,1.64,21.36,21.36,0,0,1-11.21.68A16.82,16.82,0,0,1,1000.3,257.4Z" fill="#dc895f"/><path d="M1000.94,269l2.51-.2c1.49-.12,3.45-.23,5.4-.51s3.88-.53,5.36-.76a9.78,9.78,0,0,0,3-1.09,11.44,11.44,0,0,1-2.74,1.87,22.08,22.08,0,0,1-5.43,1.4,21.78,21.78,0,0,1-5.6-.11A18.25,18.25,0,0,1,1000.94,269Z" fill="#dc895f"/><path d="M1298.35,540.07c-14.06,1.33-15.65-7.89-22.37-20.78l-18.7-155.4s.25-46.19,18.86-43.93,34.41,25.86,34.86,54.34c0,0,7.73,136.38,8.25,142.4C1319.25,516.7,1317.47,538.26,1298.35,540.07Z" fill="#2b2f45"/><path d="M1326.49,639.74c1,10,5.55,62.93,5.6,73.25l-29-2.3c-.3-1.85-2.05-20.63-4.53-30.4-9.07-35.66-25.74-108-24.37-130.34,1.78-17.15,1.84-26.25,1.79-29.38,0,0,1.55-26.92,20.3-28.47,18.19-1.5,22.93,24.6,22.93,24.6.53,6,5.83,53.15,7.44,64.65S1325.43,628.78,1326.49,639.74Z" fill="#2b2f45"/><path d="M1174.16,84.07s-21-4.84-29.46-.4-38.33,19-42,53.67-24.61,58.92-24.61,58.92-5.65,7.26-5.65,12.91,4.44,6.46,4.44,6.46-3.23,7.67,7.26,18.16c1.21.81-12.11,38.74-12.11,42.37s3.64,21,17.76,22.6c0,.4-12.51,24.21,11.3,32.69.4-1.21-10.9-11.7,3.23-22.2,0,.81-4.85,23,19.77,22.2-.4.4-8.47-7.27,8.07-16.55s22.6-30.26,21-67.79c-1.21-6.86,32.69-3.63,32.69-3.63s-.4,30.67,6.86,45.19,30.67,30.27,24.62,42.38c-2,4-9.28,2-10.9.8s22.2,19.77,33.1-9.68c.4-2.83,15.74-3.23,11.29-24.62-.4-.81,14.13-10.49,5.25-35.92.4-.8,8.88-.8,12.11-11.7-.81,0-5.25,7.67-12.51,2.83,0-1.62,12.1-10.49-4-60.13,0,0,10.49-39.55-2.82-63.76-.41-1.62-5.65-14.13-14.94-22.2C1233.88,106.27,1212.9,76.81,1174.16,84.07Z" fill="#361f11"/><path d="M1255.68,252.74a5.35,5.35,0,0,1,.79-1.49,14.26,14.26,0,0,1-3.85-3.19c-2.52-3-4.13-7.08-5.06-12.82-1.7-10.44-.83-22.21,2.6-35,.57-2.14,1.21-4.27,1.89-6.38-.14-.42-.27-.84-.41-1.26,0,0,.71-2.68,1.52-7.07-1.73,4.69-3.32,9.45-4.61,14.27-3.5,13-4.39,25-2.65,35.68,1,6.05,2.71,10.38,5.44,13.63A15.77,15.77,0,0,0,1255.68,252.74Z" fill="#241007"/><path d="M1264.68,253a7.72,7.72,0,0,1-4.19,1.41,11.84,11.84,0,0,0,1.57.11,10.76,10.76,0,0,0,2.94-.41Z" fill="#241007"/><path d="M1228.76,320.94c.24-4.67-1.35-9.7-4.74-14.93a89.51,89.51,0,0,0-5.6-7.49c-1.25-1.56-2.55-3.18-3.74-4.81a68.46,68.46,0,0,1-9.46-61.44l-1.58-.54a70.13,70.13,0,0,0,9.68,63c1.22,1.66,2.53,3.29,3.8,4.87a90.68,90.68,0,0,1,5.5,7.35c3.18,4.93,4.69,9.62,4.47,13.93-.27,5.19-3.39,9.8-7.61,11.24a10.47,10.47,0,0,1-3.57.52,7.77,7.77,0,0,1-5,.72,15.91,15.91,0,0,0,5.28,1,12,12,0,0,0,3.87-.62C1224.87,332,1228.46,326.79,1228.76,320.94Z" fill="#241007"/><path d="M1240.55,282.56c-2-1.85-4-3.67-6-5.42-5.53-4.87-11.26-9.91-15.1-16.22-7.38-12.17-7-27.73-5.6-41.35l-1.66-.17c-1.41,13.9-1.81,29.8,5.83,42.39,4,6.53,9.79,11.65,15.42,16.61,2,1.74,4,3.55,6,5.38,6,5.69,10,11.33,11.95,16.84-.13-1-.29-2-.52-3.07,0-.11.19-.41.64-.92A51.5,51.5,0,0,0,1240.55,282.56Z" fill="#241007"/><path d="M1133.32,229.22c2.2,18.19,1.43,32.37-2.42,44.64-5.28,16.83-15.14,29.32-27,34.28l.47,1.13,0,0a.18.18,0,0,1,0,.06l.16.38c12.37-5.15,22.57-18,28-35.33,3.92-12.5,4.72-26.91,2.49-45.34Z" fill="#241007"/><path d="M1129.41,219.55l-1.67.13A91.46,91.46,0,0,1,1106,286.21c-1.13,1.31-2.32,2.63-3.48,3.9-4.07,4.47-8.29,9.1-10.7,14.78a28.06,28.06,0,0,0-.23,20.8,20.68,20.68,0,0,0,3,2.49,26.54,26.54,0,0,1-1.2-22.64c2.3-5.41,6.42-9.93,10.4-14.3,1.17-1.28,2.37-2.6,3.52-3.93A93.2,93.2,0,0,0,1129.41,219.55Z" fill="#241007"/><path d="M1116.05,228.7c-1.53,14.82-7.41,29-12.85,40.37-1.83,3.85-3.78,7.74-5.66,11.51-3,5.9-6,11.9-8.67,18,.31.06.63.11,1,.15a42.18,42.18,0,0,0-2.76,8.55c3.45-8.92,7.76-17.54,12-26,1.89-3.78,3.84-7.68,5.68-11.54,6.13-12.85,12.81-29.16,13.36-46.11A50.65,50.65,0,0,1,1116.05,228.7Z" fill="#241007"/><path d="M1123.53,205.45c-2.9,9.85-6.46,20.07-12.21,29.21-5.9,9.36-13.67,16.48-22.15,20.34,6.48-8.58,12.9-27.08,14.63-43.93-.6.31-1.2.59-1.81.84-2.1,18.2-9.64,38.36-16.37,44.58a.84.84,0,0,0,.57,1.45.92.92,0,0,0,.28-.05c10.09-3.53,19.42-11.46,26.27-22.34,5.08-8.08,8.48-17,11.2-25.68A14.23,14.23,0,0,1,1123.53,205.45Z" fill="#241007"/><path d="M1097.07,251.51a47.62,47.62,0,0,1-8.35,21,74.79,74.79,0,0,1-13.63,14.63c.25.5.52,1,.8,1.52a76.72,76.72,0,0,0,14.21-15.19,48.46,48.46,0,0,0,8.81-23.55A12.14,12.14,0,0,1,1097.07,251.51Z" fill="#241007"/><path d="M1125.24,180.1c-2.65,8.4-6.12,15.14-10.6,20.6-5.22,6.34-11.93,10.81-18.91,12.58-1,.25-2,.46-2.94.67-4.29.91-8.72,1.85-11.31,5.45-2.07,2.87-2.14,6.46-1.27,9.72a32.68,32.68,0,0,0,3,3.62l.25-.14c-2-3.56-3.15-8.63-.57-12.22,2.21-3.07,6.32-3.94,10.3-4.79,1-.21,2-.43,3-.68,7.32-1.86,14.34-6.53,19.78-13.15,4.63-5.63,8.2-12.55,10.91-21.15Z" fill="#241007"/><path d="M1088.19,216.34c-.57.22-1.16.42-1.74.61a84.21,84.21,0,0,1-3.19,15.9c.29.31.59.62.91.94.21.14,0,1.39-.54,3.39A87.63,87.63,0,0,0,1088.19,216.34Z" fill="#241007"/><path d="M1141.56,271.25l-6.34,2.18-4.06,2s-1.28,20.34,0,19.45,10.48-7.12,10.26-7.59S1141.56,271.25,1141.56,271.25Z" fill="#d0dfef"/><path d="M1207.51,290.17c-1.07-.45-7.86-8.91-7.86-8.91s-2-14.11-.47-13.44,9.61,6,9.61,6Z" fill="#d0dfef"/><path d="M1276.29,320h0s-71.12-14.73-74.4-40.46,2.18-50.93,2.18-50.93-11.5-29.57-30.66-29.57-32.86,13.69-34,36.69c-.26,5.49,4.93,48.73-6.57,57.5s-61.05,29.67-61.05,29.67h0s41.45,159.72,36.38,189.18c.09.09-.18.8-.71,2h136.25c-1-2.64-1.66-4.2-1.66-4.2Z" fill="#fdb88f"/><path d="M1161.62,317.59c.78.8,4.63,7.31,7.21,7.4s7.59-6.82,7.59-6.82l-7.55,3.26Z" fill="#f4ab8b"/><path d="M1256.45,321.59c-1.32.22-80.7-1.21-80.7-1.21l14-2.1,50.23-.64Z" fill="#f4ab8b"/><path d="M1163.33,320l-13.54-2.39-48.56-1.73-9.51,2.15-4.06,1.53C1100.84,319.81,1163.33,320,1163.33,320Z" fill="#f4ab8b"/><path d="M1133,294.22a4.56,4.56,0,0,0,2.31-1.82c3.14-4,5-8.83,8-12.91,6.59-8.95,17.81-13.2,28.69-15.47,4.07-.85,8.44-1.46,12.29.13,5.78,2.39,8.54,8.88,10.59,14.79s4.44,12.44,10,15.33a6.23,6.23,0,0,0,4.78.69,5.68,5.68,0,0,0,1.66-1c-5.2-4.33-8.76-9.14-9.43-14.42-3.29-25.74,2.18-50.93,2.18-50.93a68.35,68.35,0,0,0-3.31-7,56.26,56.26,0,0,0-5.48-4c-6.55-4.12-13.94-6.73-21.4-8.79a101.42,101.42,0,0,0-20.11-3.69c-8.34,6.13-13.65,16.62-14.31,30.56-.26,5.49,4.93,48.73-6.57,57.5-.4.29-.84.61-1.32.94A3.06,3.06,0,0,0,1133,294.22Z" fill="#f4ab8b"/><path d="M1140.59,286.49a2.3,2.3,0,1,1-2.3-2.39A2.35,2.35,0,0,1,1140.59,286.49Z" fill="#c6c3f1"/><path d="M1140.53,286.59a2.17,2.17,0,1,1-2.17-2.25A2.21,2.21,0,0,1,1140.53,286.59Z" fill="#f1b5ef"/><ellipse cx="1138.47" cy="286.74" rx="1.75" ry="1.82" fill="#f1e6c8"/><path d="M1142.39,290.63a2.3,2.3,0,1,1-2.3-2.39A2.35,2.35,0,0,1,1142.39,290.63Z" fill="#c6c3f1"/><ellipse cx="1140.16" cy="290.73" rx="2.17" ry="2.26" fill="#f1b5ef"/><path d="M1142,290.88a1.75,1.75,0,1,1-1.74-1.82A1.79,1.79,0,0,1,1142,290.88Z" fill="#f1e6c8"/><path d="M1145.23,294.58a2.3,2.3,0,1,1-2.3-2.39A2.34,2.34,0,0,1,1145.23,294.58Z" fill="#c6c3f1"/><path d="M1145.18,294.68a2.17,2.17,0,1,1-2.17-2.26A2.21,2.21,0,0,1,1145.18,294.68Z" fill="#f1b5ef"/><path d="M1144.87,294.83a1.76,1.76,0,1,1-1.76-1.82A1.8,1.8,0,0,1,1144.87,294.83Z" fill="#f1e6c8"/><ellipse cx="1146.41" cy="297.57" rx="2.3" ry="2.39" fill="#c6c3f1"/><path d="M1148.65,297.68a2.17,2.17,0,1,1-2.17-2.26A2.22,2.22,0,0,1,1148.65,297.68Z" fill="#f1b5ef"/><path d="M1148.34,297.83a1.75,1.75,0,1,1-1.75-1.82A1.79,1.79,0,0,1,1148.34,297.83Z" fill="#f1e6c8"/><path d="M1152.34,300.26a2.3,2.3,0,1,1-2.3-2.39A2.35,2.35,0,0,1,1152.34,300.26Z" fill="#c6c3f1"/><path d="M1152.28,300.37a2.17,2.17,0,1,1-2.17-2.26A2.21,2.21,0,0,1,1152.28,300.37Z" fill="#f1b5ef"/><path d="M1152,300.51a1.75,1.75,0,1,1-1.75-1.82A1.78,1.78,0,0,1,1152,300.51Z" fill="#f1e6c8"/><path d="M1156,302.31a2.3,2.3,0,1,1-2.3-2.39A2.35,2.35,0,0,1,1156,302.31Z" fill="#c6c3f1"/><path d="M1155.91,302.41a2.17,2.17,0,1,1-2.17-2.25A2.21,2.21,0,0,1,1155.91,302.41Z" fill="#f1b5ef"/><path d="M1155.6,302.56a1.75,1.75,0,1,1-1.75-1.81A1.78,1.78,0,0,1,1155.6,302.56Z" fill="#f1e6c8"/><path d="M1160.07,304.21a2.3,2.3,0,1,1-2.3-2.39A2.35,2.35,0,0,1,1160.07,304.21Z" fill="#c6c3f1"/><path d="M1160,304.31a2.17,2.17,0,1,1-2.17-2.26A2.21,2.21,0,0,1,1160,304.31Z" fill="#f1b5ef"/><ellipse cx="1157.96" cy="304.46" rx="1.75" ry="1.82" fill="#f1e6c8"/><path d="M1164.65,305.16a2.3,2.3,0,1,1-2.29-2.4A2.34,2.34,0,0,1,1164.65,305.16Z" fill="#c6c3f1"/><path d="M1164.6,305.26a2.17,2.17,0,1,1-2.17-2.26A2.21,2.21,0,0,1,1164.6,305.26Z" fill="#f1b5ef"/><path d="M1164.29,305.41a1.76,1.76,0,1,1-1.75-1.83A1.79,1.79,0,0,1,1164.29,305.41Z" fill="#f1e6c8"/><ellipse cx="1166.46" cy="305.47" rx="2.3" ry="2.39" fill="#c6c3f1"/><ellipse cx="1166.53" cy="305.57" rx="2.17" ry="2.26" fill="#f1b5ef"/><path d="M1168.39,305.72a1.75,1.75,0,1,1-1.75-1.82A1.78,1.78,0,0,1,1168.39,305.72Z" fill="#f1e6c8"/><path d="M1172.86,305.63a2.3,2.3,0,1,1-2.29-2.39A2.34,2.34,0,0,1,1172.86,305.63Z" fill="#c6c3f1"/><path d="M1172.81,305.73a2.17,2.17,0,1,1-2.17-2.26A2.21,2.21,0,0,1,1172.81,305.73Z" fill="#f1b5ef"/><path d="M1172.5,305.88a1.75,1.75,0,1,1-1.75-1.82A1.78,1.78,0,0,1,1172.5,305.88Z" fill="#f1e6c8"/><path d="M1201.19,286.49a2.3,2.3,0,1,0,2.29-2.39A2.34,2.34,0,0,0,1201.19,286.49Z" fill="#c6c3f1"/><path d="M1201.24,286.59a2.17,2.17,0,1,0,2.17-2.25A2.21,2.21,0,0,0,1201.24,286.59Z" fill="#f1b5ef"/><path d="M1201.55,286.74a1.76,1.76,0,1,0,1.75-1.82A1.79,1.79,0,0,0,1201.55,286.74Z" fill="#f1e6c8"/><ellipse cx="1201.68" cy="290.63" rx="2.3" ry="2.39" fill="#c6c3f1"/><path d="M1199.44,290.73a2.17,2.17,0,1,0,2.17-2.25A2.21,2.21,0,0,0,1199.44,290.73Z" fill="#f1b5ef"/><path d="M1199.75,290.88a1.75,1.75,0,1,0,1.75-1.82A1.79,1.79,0,0,0,1199.75,290.88Z" fill="#f1e6c8"/><path d="M1196.55,294.58a2.3,2.3,0,1,0,2.29-2.39A2.34,2.34,0,0,0,1196.55,294.58Z" fill="#c6c3f1"/><path d="M1196.6,294.68a2.17,2.17,0,1,0,2.17-2.26A2.21,2.21,0,0,0,1196.6,294.68Z" fill="#f1b5ef"/><ellipse cx="1198.66" cy="294.83" rx="1.75" ry="1.82" fill="#f1e6c8"/><path d="M1193.07,297.57a2.3,2.3,0,1,0,2.3-2.38A2.35,2.35,0,0,0,1193.07,297.57Z" fill="#c6c3f1"/><path d="M1193.13,297.68a2.17,2.17,0,1,0,2.17-2.26A2.22,2.22,0,0,0,1193.13,297.68Z" fill="#f1b5ef"/><path d="M1193.44,297.83a1.75,1.75,0,1,0,1.75-1.82A1.79,1.79,0,0,0,1193.44,297.83Z" fill="#f1e6c8"/><path d="M1189.44,300.26a2.3,2.3,0,1,0,2.3-2.39A2.35,2.35,0,0,0,1189.44,300.26Z" fill="#c6c3f1"/><path d="M1189.49,300.37a2.17,2.17,0,1,0,2.17-2.26A2.22,2.22,0,0,0,1189.49,300.37Z" fill="#f1b5ef"/><ellipse cx="1191.55" cy="300.51" rx="1.75" ry="1.82" fill="#f1e6c8"/><path d="M1185.81,302.31a2.3,2.3,0,1,0,2.3-2.39A2.35,2.35,0,0,0,1185.81,302.31Z" fill="#c6c3f1"/><path d="M1185.86,302.41a2.17,2.17,0,1,0,2.17-2.25A2.21,2.21,0,0,0,1185.86,302.41Z" fill="#f1b5ef"/><path d="M1186.17,302.56a1.75,1.75,0,1,0,1.75-1.81A1.79,1.79,0,0,0,1186.17,302.56Z" fill="#f1e6c8"/><path d="M1181.7,304.21a2.3,2.3,0,1,0,2.3-2.39A2.35,2.35,0,0,0,1181.7,304.21Z" fill="#c6c3f1"/><path d="M1181.76,304.31a2.17,2.17,0,1,0,2.16-2.26A2.21,2.21,0,0,0,1181.76,304.31Z" fill="#f1b5ef"/><ellipse cx="1183.82" cy="304.46" rx="1.75" ry="1.82" fill="#f1e6c8"/><path d="M1177.12,305.16a2.3,2.3,0,1,0,2.3-2.4A2.34,2.34,0,0,0,1177.12,305.16Z" fill="#c6c3f1"/><path d="M1177.18,305.26a2.17,2.17,0,1,0,2.17-2.26A2.21,2.21,0,0,0,1177.18,305.26Z" fill="#f1b5ef"/><path d="M1177.49,305.41a1.75,1.75,0,1,0,1.75-1.83A1.79,1.79,0,0,0,1177.49,305.41Z" fill="#f1e6c8"/><ellipse cx="1175.32" cy="305.47" rx="2.3" ry="2.39" fill="#c6c3f1"/><path d="M1173.07,305.57a2.17,2.17,0,1,0,2.17-2.26A2.21,2.21,0,0,0,1173.07,305.57Z" fill="#f1b5ef"/><ellipse cx="1175.13" cy="305.72" rx="1.75" ry="1.82" fill="#f1e6c8"/><path d="M1243.76,514.12H1107.51c-3.8,8.72-21.66,43.66-25.49,63.47-4.36,22.56-8.73,66.94-8.73,66.94s72.76,53.12,101.14,53.12c21.1,0,106.48-32.5,106.48-32.5s-5.34-81.74-13.35-96.29C1261.06,557,1248.32,525.53,1243.76,514.12Z" fill="#394152"/><path d="M1268.05,322.79c-1.73-.64-10-5.15-19.7-10.5-12.93-4.33-27.41-10.42-36.76-18.08l-7.75,7.35-35,50.06-35.94-49.14-3.06-7.16c-15.34,9.59-58,27.6-58,27.6h0s8.31,32.9,17,71.61c31.93,39.22,68.44,80.85,68.44,80.85C1160.8,459.16,1269.43,323.3,1268.05,322.79Z" fill="#dcecf4"/><path d="M1168.83,351.62l-5.7,64.65s-.49,16.79-.49,15.31-3.46-26.66-1-46.41A186,186,0,0,1,1168.83,351.62Z" fill="#d0dfef"/><circle cx="1175.36" cy="357.06" r="2.71" fill="#f1faff"/><path d="M1175.49,389.37a2.71,2.71,0,1,1-2.71-2.71A2.71,2.71,0,0,1,1175.49,389.37Z" fill="#f1faff"/><path d="M1173.45,418.45a2.72,2.72,0,1,1-2.72-2.71A2.71,2.71,0,0,1,1173.45,418.45Z" fill="#f1faff"/><path d="M1118.55,325.64l10.06-2.19s3.94-7.44,4.59-7.22,17.06,12.9,16,12-17.94-28.43-17.94-28.43Z" fill="#d0dfef"/><path d="M1192.9,321c1.53-1.31,14-19.24,14-19.24s6.34,10.93,7,12,5.23,15.93,4,15.73-9.29-7.2-9.94-7.64-3.94-8.53-4.81-8.31S1192.9,321,1192.9,321Z" fill="#d0dfef"/><path d="M1243.76,514.12c-1-2.64-1.66-4.2-1.66-4.2l12.49-60.64c11-7.72,17-33.57,17-45.22,0-7.42-3.45-21.38-4.67-31.13l11.92-52.83s-42.55-10.42-64.11-23.51L1172,428.27c-1,3.68-34.23-97.53-47.1-131.6-17.86,9.91-53,26.25-53,26.25h0s4.48,18.27,12,51.16c-2,4.47-6.22,21.68-6.22,30,0,13.38,9.06,39.26,21.26,46.44,5.46,33.77,8.7,48.76,9.3,61.61.09.09,0,.9-.71,2-11.72,18.32-36.9,86.73-37.33,89.88,0,0,23.73,21.85,91.9,7.53,4.34-.91,8.29-18.07,8.29-18.07s4.21,14.08,7.53,16.19c21,13.32,104.9-9.11,104.9-9.12C1270.58,555.05,1248.32,525.53,1243.76,514.12Z" fill="#2e334a"/><path d="M1089.91,415.13c-5.86-3.45-8.12-10.68-10.58-21.42a33.43,33.43,0,0,0-1.67,10.35c0,13.38,9.06,39.26,21.26,46.44.37,1.86.74,3.65,1.1,5.4,17.39,1.89,60.6,5,69.14,5,11.89,0,69.57-4.08,84.1-5.12l1.33-6.48c11-7.72,17-33.57,17-45.22a34.15,34.15,0,0,0-5.21-18c-2.78,14.68-9.28,40.26-36.61,40.47-28.33.22-27.19.82-56.44-2.37l-1.32,4.07c-.14.53-1-1.13-2.28-4.44C1132.1,419.89,1101.86,422.16,1089.91,415.13Z" fill="#2c3147"/><path d="M1165.89,419.6s-6.33,71.9-6.87,76.17,10.14,87,9.07,84.28-14.94-84.82-14.4-86.42S1163.17,422.92,1165.89,419.6Z" fill="#282c40"/><path d="M1172.4,496.44a4.72,4.72,0,1,1-4.71-4.72A4.71,4.71,0,0,1,1172.4,496.44Z" fill="#7c6f89"/><path d="M1126.09,296.61l-13.2,5.31c-1.71,11.67-3.11,35.77-3,38.23.09,1.41,20-1.88,20-1.88l-21.28,15.87s34,43.46,46.67,72.14c.29.65,5.42,13.1,5.65,21.9.28,11.19,10.69-20.23,9.57-39.76l-4.66,11.18Z" fill="#282c40"/><path d="M1232.9,352.27c-4.11-2.61-18.46-13.55-19.08-14.22.76.83,17.11,1.43,17.11,1.43l-3-35.66-14.18-8.31c-8.93,38.5-47.88,124.09-47.88,124.09L1162,407.52c-1.79,4.67-2.86,7.56-2.86,7.8,0,1.64,2.44,48.78,2.44,48.78a175.48,175.48,0,0,1,18.63-37.36C1201.58,393.87,1234.91,353.55,1232.9,352.27Z" fill="#282c40"/><path d="M1140.36,271.54l-8.44,3.52.86,26.52s-16.48,29.18-16.48,26.55,5.07-32.5,5.07-32.5l7.81-22.29Z" fill="#f1faff"/><path d="M1200.93,268.39c.71,1.07,6,4.28,6,4.28l-4.53,30.27,16.07,25.78s-5-43.6-5-44.67-5.53-13.72-5.53-13.72Z" fill="#f1faff"/><path d="M1170.19,115.35c1.2,0,29.71,3.49,36.71,16.6s13.75,26.52,13.75,34.68c0,0-1.23,51.28-5.89,63.8s-16,18.07-19.81,20.69c0,0-11.93,7.47-19.18,7.58-4.62.08-12.5,0-17.17-2.68-8.84-5.08-26.85-13.43-31.91-28.61-5.75-17.24-3.52-59-3.52-59s2-33,4.18-34.77l2.2-1.76S1158.24,115.51,1170.19,115.35Z" fill="#fdb88f"/><path d="M1136.89,210.64c-1.23-8.66-6.06-15.14-10.8-14.47a5.37,5.37,0,0,0-3.17,1.71c.35,10.38,1.28,21.26,3.44,28.47a5.77,5.77,0,0,0,4.16,1.18C1135.26,226.86,1138.11,219.3,1136.89,210.64Z" fill="#f9af8d"/><path d="M1218.17,197.16c-3.6,1.51-7.24,5.94-9.24,11.81-2.82,8.27-1.33,16.28,3.33,17.87a5.7,5.7,0,0,0,3.49,0C1217.19,220,1217.87,208.39,1218.17,197.16Z" fill="#f9af8d"/><path d="M1221.51,200.36c-.51.56-6.14,10.09-5.92,16.71s2.94,17.05,2.94,17.05l10.31-11.79Z" fill="#361f11"/><path d="M1259.13,260.49c-6.5.82-22.15.64-35.1-16.42-4.66-6.14-8.26-19.06-7.57-27.11.64-7.55,4.45-14.62,8.09-20.54.76-1.24,1.54-2.46,2.31-3.69,3.24-5.14,6.59-10.45,8.69-16.28,3-8.35,2.69-16.6-.87-22.64-4.73-8-14.7-11.8-24.1-14.67l1.08,2.29c9.46,2.88,17.15,5.71,21.58,13.23,3.29,5.61,3.57,13.35.73,21.23-2,5.65-5.33,10.88-8.53,15.94l-2.32,3.71c-3.74,6.09-7.65,13.38-8.34,21.27-.73,8.54,3,21.75,7.91,28.27,11.13,14.67,24.25,17.34,32.32,17.34.46,0,.9,0,1.33,0-.09-.25-.17-.5-.26-.76C1256.23,261.34,1257.46,261.15,1259.13,260.49Z" fill="#241007"/><path d="M1164.69,210.11a2.67,2.67,0,0,1,1,.12,5.07,5.07,0,0,1,.91.36,6.53,6.53,0,0,1,.86.48,7.73,7.73,0,0,1,.79.59,10.29,10.29,0,0,1,1.39,1.41c.21.26.4.52.59.8s.35.55.53.83l-.21-.25.08,0,.15,0a2,2,0,0,0,.38.08,4.41,4.41,0,0,0,.9,0,5.37,5.37,0,0,0,.9-.07,3.15,3.15,0,0,0,.39-.1.53.53,0,0,0,.15-.05s0,0,0,0l-.22.37a4.51,4.51,0,0,1,.21-.49c.07-.15.15-.3.23-.45a7.28,7.28,0,0,1,.53-.83,7.64,7.64,0,0,1,.61-.77,9.25,9.25,0,0,1,.7-.7c.24-.22.51-.4.77-.6a6.36,6.36,0,0,1,.84-.49,5.65,5.65,0,0,1,.88-.37,6.19,6.19,0,0,1,.92-.23c-.25.2-.5.36-.74.56s-.46.39-.67.6-.41.43-.62.64-.37.44-.54.68-.33.47-.49.71-.29.49-.43.74-.26.51-.37.76-.11.26-.16.39a2.7,2.7,0,0,0-.13.36l-.08.23-.17.14a1.82,1.82,0,0,1-.38.24,2.37,2.37,0,0,1-.34.15,4.14,4.14,0,0,1-.62.17,7.06,7.06,0,0,1-1.19.12,6.1,6.1,0,0,1-1.19-.1,3.15,3.15,0,0,1-.64-.16,2.37,2.37,0,0,1-.34-.15,1.81,1.81,0,0,1-.36-.23l-.12-.08-.09-.17c-.14-.26-.26-.53-.41-.79s-.29-.51-.45-.76a13.16,13.16,0,0,0-1-1.45,12.53,12.53,0,0,0-1.21-1.32c-.23-.2-.47-.39-.71-.57A3.6,3.6,0,0,0,1164.69,210.11Z" fill="#dc895f"/><path d="M1163.34,204.36l-.38.84-.38.81c-.26.52-.49,1.06-.72,1.58-.12.26-.22.52-.32.78s-.09.25-.14.38a2.78,2.78,0,0,0-.12.38c0,.13-.08.25-.1.37s0,.24-.06.36l0,.33a1.24,1.24,0,0,1,0,.27l0-.07v0a.07.07,0,0,1,0,0l.06.06.11.08.29.19.36.2a11.87,11.87,0,0,1,1.53,1,3.17,3.17,0,0,1,.34.3,3.39,3.39,0,0,1,.34.31c.21.23.42.45.61.69s.36.5.52.75.29.53.42.8c-.27-.15-.51-.32-.75-.48s-.48-.33-.74-.46-.48-.3-.72-.43l-.74-.38c-.49-.25-1-.46-1.52-.69-.13-.05-.27-.12-.41-.19s-.3-.15-.46-.25a2.29,2.29,0,0,1-.49-.42,2.26,2.26,0,0,1-.23-.31c-.06-.13-.11-.25-.16-.38v-.08c0-.2,0-.41,0-.61l0-.55c0-.18.09-.35.13-.52s.11-.32.16-.48a4.68,4.68,0,0,1,.2-.45,4.34,4.34,0,0,1,.23-.43,7.25,7.25,0,0,1,.51-.8c.18-.25.37-.5.57-.73s.42-.46.63-.67A8.91,8.91,0,0,1,1163.34,204.36Z" fill="#dc895f"/><path d="M1180.25,204.36a9.37,9.37,0,0,1,1.43,1.17c.21.21.42.44.62.67s.4.48.58.73a9.1,9.1,0,0,1,.51.8,4.32,4.32,0,0,1,.22.43,4.68,4.68,0,0,1,.2.45,3.9,3.9,0,0,1,.17.48c0,.17.09.34.12.52l.06.55c0,.2,0,.41-.05.61v.08c0,.13-.11.25-.16.38a3.55,3.55,0,0,1-.23.31,2.59,2.59,0,0,1-.5.42c-.16.1-.31.18-.45.25s-.28.14-.41.19c-.54.23-1,.44-1.53.69-.25.12-.48.25-.73.38s-.49.28-.73.43-.48.31-.73.46-.49.33-.75.48a6.8,6.8,0,0,1,.42-.8c.16-.25.33-.51.52-.75s.39-.46.6-.69l.34-.31a3.27,3.27,0,0,1,.35-.3,11.78,11.78,0,0,1,1.52-1l.36-.2a2.94,2.94,0,0,0,.29-.19l.11-.08.07-.06a0,0,0,0,1,0,0v0a2.45,2.45,0,0,1,0-.27l0-.33c0-.12,0-.24-.07-.36a2.93,2.93,0,0,0-.1-.37,2.72,2.72,0,0,0-.11-.38c0-.13-.09-.26-.14-.38s-.2-.52-.32-.78c-.23-.52-.46-1.06-.73-1.58l-.38-.81C1180.5,204.92,1180.37,204.65,1180.25,204.36Z" fill="#dc895f"/><path d="M1146.7,222.31c.16.24,3.47,9.12,6.37,10.81s13.15,6.86,20.9,6.21,17.5-4.76,19.76-11.13-1.29-4.36-1.29-4.36l-15.81-.16-18.15-.48-10.25-.49Z" fill="#4d2b26"/><path d="M1152.51,223c.16.48,2,4.68,2,4.68s8.71,4.51,18,4.51a37.79,37.79,0,0,0,16.14-3.63l.56-4.35s-17.58.64-17.83.8Z" fill="#fff"/><path d="M1147.83,222.71c.4.49,2.74,14.85,25.9,14.85,11.61,0,18.79-9.44,20.48-13.15,0-.16,3.87-2.42,4.36-3.23,0-.16-5.89,15.41-14.6,19.76a28.72,28.72,0,0,1-10.81,2.42c-6.84.27-13.75-2-16.94-4.67-4.84-4.12-9.6-12.27-11.21-16.94C1145.09,221.83,1147.83,222.71,1147.83,222.71Z" fill="#ed8e94"/><path d="M1143,220.37s9.1,6.83,29.3,6.51c20.36-.32,22.43-2.39,24.73-4.07a18.12,18.12,0,0,0,2.46-3s-2.72,3-5.42,3.22-16.87-2.23-16.87-2.23a10.56,10.56,0,0,1-5.1,1.73,13.37,13.37,0,0,1-5.55-1.73S1147.66,224.08,1143,220.37Z" fill="#c9758f"/><path d="M1184,163.45c-1,.31-.09,3.7,2.07,3.88s14.47-5.29,23.21-2.82c2.25,1,6.72,3.41,8.41,5.08.23-.68-4.47-7.81-9.17-8.69S1194.07,160.19,1184,163.45Z" fill="#301c0f"/><path d="M1161,163.45c1,.31.1,3.7-2.06,3.88s-14.47-5.29-23.21-2.82c-2.26,1-6.72,3.41-8.42,5.08-.22-.68,4.47-7.81,9.17-8.69S1150.92,160.19,1161,163.45Z" fill="#301c0f"/><path d="M1187.74,176.8c0,.31-1.36,5.26,1.18,8,1,.69,10.08,2.61,14.17,2.11s8.1-4,6.81-9.59-9-6.13-9-6.13-10,2-10.39,2.21A33.78,33.78,0,0,0,1187.74,176.8Z" fill="#f2efff"/><path d="M1207.4,180.79a7.64,7.64,0,0,1-2.26,5.4c-2.57.62-8.68-.1-11.46-.77a7.65,7.65,0,1,1,13.72-4.63Z" fill="#6987c8"/><path d="M1183.69,186s.63-8.21,4.85-13,13.08-6,21.31-2.84c2.43,1.27,6.87,6.33,9.82,5.38a13,13,0,0,1-8.23,1.9c-4.12-.63-12.56-2.11-15.52-1.69s-5.8,1.58-7.38,3.38-3,2.95-3.27,3.9A20.78,20.78,0,0,1,1183.69,186Z" fill="#e28a68"/><path d="M1183.69,186a45.42,45.42,0,0,1,4.42-1.77c1.17-.21,10.67,3.27,17.42,1.59s5.91-8.34,5.91-8.34,3.59-.32,3.37.21-1.58,9-9.49,9.81-16.26-2-17.1-2.11A32.42,32.42,0,0,0,1183.69,186Z" fill="#e29168"/><path d="M1183.69,186c.93-.93,5.17-6.65,10.28-7.89,7.16-1.73,15.9.81,19.24.81s6.81-2.27,7.61-4.27a11.22,11.22,0,0,1-6,1.34c-4.28,0-8.61-4.06-22.18-.81C1183.21,178.66,1183.69,186,1183.69,186Z" fill="#2b1616"/><path d="M1211.44,177.49s.84,6.65-5.91,8.34c-1,.23-1.52.45-5.34.44a14.83,14.83,0,0,0,9.88-1.15c3.88-2.25,4.58-7,4.74-7.42S1211.44,177.49,1211.44,177.49Z" fill="#2b1616"/><path d="M1155.32,176c0,.31,1.36,5.26-1.17,8-1,.68-10.09,2.6-14.18,2.1s-8.1-4-6.8-9.59,9-6.13,9-6.13,10,2,10.4,2.21A35,35,0,0,1,1155.32,176Z" fill="#f2efff"/><path d="M1135.94,179.93a7.6,7.6,0,0,0,2.27,5.4c2.57.62,8.67-.1,11.45-.77a7.65,7.65,0,1,0-13.72-4.63Z" fill="#6987c8"/><path d="M1159.38,185.24s-.64-8.2-4.86-13-13.08-6-21.31-2.85c-2.43,1.27-6.87,6.33-9.82,5.38a12.9,12.9,0,0,0,8.23,1.9c4.12-.63,12.56-2.11,15.52-1.69s5.8,1.59,7.38,3.38,3,3,3.27,3.91A20.25,20.25,0,0,0,1159.38,185.24Z" fill="#e28a68"/><path d="M1159.38,185.24c-.64-.18-3.28-1.55-4.43-1.77s-10.66,3.28-17.42,1.59-5.91-8.34-5.91-8.34-3.59-.31-3.37.21,1.58,9,9.49,9.82,16.26-2,17.1-2.11A31.17,31.17,0,0,1,1159.38,185.24Z" fill="#e29168"/><path d="M1159.38,185.24c-.94-.93-5.18-6.65-10.29-7.89-7.15-1.73-15.9.81-19.23.81s-6.82-2.27-7.62-4.27a11.22,11.22,0,0,0,6,1.34c4.28,0,8.61-4.06,22.18-.8C1159.85,177.89,1159.38,185.24,1159.38,185.24Z" fill="#2b1616"/><path d="M1131.62,176.72s-.84,6.65,5.91,8.34c1,.23,1.52.46,5.34.44a14.77,14.77,0,0,1-9.88-1.15c-3.88-2.24-4.58-7-4.74-7.42S1131.62,176.72,1131.62,176.72Z" fill="#2b1616"/><path d="M1174.16,84.07s-21-4.84-29.46-.4-38.33,19-42,53.67c-2.14,20.51-10.35,37.36-16.7,47.71.48,4,1.14,8,2,11.9,1.73,8.05,26.19,6.4,31.94-4.81a77.56,77.56,0,0,0,7.78-24.26c1.26-8.72,1.09-17.87,4.77-25.87s11.12-14.11,19.53-16.86a42.32,42.32,0,0,1,26.12.41c3.34,1.1,6.42-2.89,8.28-5.88a35.63,35.63,0,0,0,3.75-9.84c1.43-5.36,2.7-10.84,2.61-16.38a26.71,26.71,0,0,0-2.19-10.38A64.39,64.39,0,0,0,1174.16,84.07Z" fill="#361f11"/><path d="M1172.8,117l1.46-.84c-2.63-4.55-8.14-6.92-16.83-7.24-14.07-.5-24.78,2.59-31.84,9.19-9.14,8.56-11.27,22.12-12.14,34.26-.07.91-.13,1.81-.19,2.73-.78,11.27-1.58,22.92-7.74,32.13-3.66,5.47-9,9.67-14.18,13.73a95.79,95.79,0,0,0-10.68,9.29,29.86,29.86,0,0,0-4,5.28l.29.07a9.7,9.7,0,0,0-.42,4.22,22.91,22.91,0,0,1,5.39-8.42,94,94,0,0,1,10.5-9.12c5.27-4.14,10.73-8.42,14.53-14.12,6.41-9.58,7.23-21.46,8-32.94.06-.92.12-1.83.19-2.73.85-11.81,2.9-25,11.62-33.15,6.72-6.29,17-9.23,30.63-8.74C1165.44,110.92,1170.49,113,1172.8,117Z" fill="#241007"/><path d="M1173.16,98.94l.36-1.63c-11.62-2.57-22.19-2.82-31.39-.72-11.06,2.51-20.59,8.69-26.15,17-5.74,8.54-7.33,18.91-8.87,28.94-1.25,8.17-2.55,16.62-6.09,24s-9.19,13.53-15.24,18.95c-1.2,1.93-2.33,3.64-3.33,5.08,7.75-6.45,15.55-13.82,20.08-23.3,3.65-7.63,5-16.2,6.24-24.5,1.58-10.3,3.07-20,8.6-28.25,5.33-7.91,14.48-13.83,25.13-16.26C1151.46,96.18,1161.78,96.43,1173.16,98.94Z" fill="#241007"/><path d="M1170.66,105.16c.77,4.09,1.75,17.43,9.42,22.79s37.67,11.09,50,20.2c9.45,7.92,11.21-21.87,7.38-22.38S1170.66,105.16,1170.66,105.16Z" fill="#361f11"/><path d="M1248,132.09a39,39,0,0,1,4,4q-.72-2.1-1.62-4.11c-.41-.38-.82-.76-1.24-1.13-9-7.77-20.41-11.39-29.34-13.68a172.47,172.47,0,0,0-48.31-5.27c.1.56.21,1.12.34,1.67a170.58,170.58,0,0,1,47.56,5.23C1232.35,122.1,1241.19,126.21,1248,132.09Z" fill="#241007"/><path d="M1233.88,106.67a25.91,25.91,0,0,0-3.13-3.92c-27-17.28-47.72-13.45-58.46-9l-.6.23.56,1.58c.16-.05.38-.14.67-.26,11.09-4.54,33.23-8.43,62,12.41C1234.62,107.33,1234.25,107,1233.88,106.67Z" fill="#241007"/><path d="M1165.08,170c-.45.18,10-3.08,16.44.62.15-.16-2.27,1.69-2.42,3.24.15-.31-6-2.7-12.34-.38C1166.91,173.16,1165.85,169.7,1165.08,170Z" fill="#1f110a"/><path d="M1225,168.93c-27-6-45.28.92-45.28.92a9.94,9.94,0,0,0-2.46,1.69c-.62.77,0,13.86,5.7,20.18s23.4,4.15,28.48,2.15,9.4-11.55,9.86-13.24,2.77-4,3.54-5.54S1225.45,169.23,1225,168.93Zm-13,21.95c-7.4,3.92-20.46,2.37-23.08,1.61s-5.54-2.47-7.85-8.78-.92-9.85,0-11.24c0,0-.77.77.31-.47s9.08-2.77,17.55-3.23,19.4.62,20.79,2.93S1217.32,188.06,1212,190.88Z" fill="#1f110a"/><path d="M1119.42,174.32c.77,1.54,3.08,3.85,3.55,5.54s4.77,11.24,9.85,13.25,22.79,4.15,28.49-2.16,6.31-19.4,5.7-20.17a10.06,10.06,0,0,0-2.47-1.7s-18.32-6.93-45.27-.92C1118.81,168.47,1118.65,172.78,1119.42,174.32Zm5.08-3.39c1.39-2.31,12.32-3.39,20.79-2.92s16.48,2,17.56,3.23.3.46.3.46c.93,1.39,2.31,4.93,0,11.24s-5.23,8-7.85,8.78-15.68,2.31-23.07-1.61C1126.93,187.29,1123.12,173.24,1124.5,170.93Z" fill="#1f110a"/><path d="M1238.36,202.77s-1.58,36.36-41.71,36.89" fill="none" stroke="#808184" stroke-miterlimit="10" stroke-width="4.12"/><circle cx="1196.04" cy="240.5" r="7.74" fill="#929497"/><rect x="1230.27" y="161.97" width="16.04" height="47.17" rx="8.02" fill="#929497"/><rect x="1103.34" y="161.97" width="16.04" height="47.17" rx="8.02" fill="#929497"/><path d="M1108.87,164.72S1103.4,95.15,1168,91.16s70.3,52.73,70.3,73.56" fill="none" stroke="#929497" stroke-miterlimit="10" stroke-width="4.12"/></g><path d="M416.33,459c0,4.32,5.37,7.86,11.93,7.86H670.42c6.57,0,11.94-3.54,11.94-7.86s-5.37-7.87-11.94-7.87H428.26C421.7,451.12,416.33,454.67,416.33,459Z" fill="#5b606e"/><path d="M395.12,459c0,4.32,2.08,7.86,4.62,7.86h93.75c2.54,0,4.62-3.54,4.62-7.86s-2.08-7.87-4.62-7.87H399.74C397.2,451.12,395.12,454.67,395.12,459Z" fill="#4f525e"/><path d="M682.36,456.2H463.21v-5.08H670.92C676.15,451.12,680.58,453.25,682.36,456.2Z" fill="#4f525e"/><path d="M485.24,448.5c-1.5,5.61,2.27,10.28,8.37,10.37l186.55,2.9a13.43,13.43,0,0,0,12.62-9.57l30-118c1.33-5.28-2-9.81-7.56-10.07l-183.49-8.72c-6-.28-12.11,4-13.58,9.52Z" fill="#5b606e"/><path d="M524,337.82c1.47-5.52,7.59-9.81,13.58-9.52,0,0,180.27,7.59,181.4,6.62L535.5,326.21c-6-.29-12.11,4-13.58,9.52l-32.1,116.68C489.59,453.28,524,337.82,524,337.82Z" fill="#767d8e"/><path d="M610.51,401.8c-3.45,8-1.56,16.54,4.23,19s13.27-2,16.73-10,1.56-16.54-4.23-19S614,393.78,610.51,401.8Z" fill="#b8bff5"/><path d="M421.2,613.77c-19,0-122.52,8.73-158.56.36-1.1-1.67-2-13.56-2.75-18.49-8.4-56.53,5.8-308,5.8-308,0-11-8.39-20-18.68-20L96.26,266.54c-10.29,0-18.72,9-18.73,20l38.55,286.26c6.19,39.67,34.56,58.65,44.85,58.66l128.55,3.73c4.3,2.93,9.67,6.66,9,20.32,0,.58,137.7-.07,137.7-.07S442.87,613.8,421.2,613.77Z" fill="#52a3a3"/><path d="M259.89,595.64c.36,2.42.77,6.53,1.22,10.28-1.37.2-8.79-1.44-11.63-76-3.59-94.49,8.45-238.87,8.45-238.87,0-11-8.39-20-18.68-20L88.5,270a16.9,16.9,0,0,0-3.11.3h0c.36-.28.72-.52,1.08-.77l.23-.15c.35-.22.71-.44,1.07-.64l.25-.13a18.82,18.82,0,0,1,2-.9l.49-.19c.25-.09.51-.16.77-.24l.87-.24.72-.16,1.08-.17.59-.08c.56-.05,1.14-.09,1.72-.09L247,267.61a17.54,17.54,0,0,1,7.26,1.59,18.46,18.46,0,0,1,4.62,3c.46.4.9.84,1.33,1.29a20.65,20.65,0,0,1,5.47,14.13S251.49,539.11,259.89,595.64Z" fill="#76b7b6"/><path d="M194.86,267.26l-83.82-.6h.16l83.66.6Z" fill="#fff"/><path d="M340.85,293.11c27.69-7.59,91-17.16,108.29-21.85,4.35-1.76,17-19.11,11.1-31.42s-21.43-17.64-21.43-17.64-88.5,7-109.52,9.14c-14.37,1.48-27.91,19.38-24.07,39.49S327.17,296.86,340.85,293.11Z" fill="#d1def9"/><path d="M376.81,135c-1.59-2.48-2.53-5.73-3.87-7.84-.48.42-.95.86-1.47,1.24-1.38,1.21-19.13,21.76-20.1,23.23,5.44,6.11,11.8,12.77,11.8,12.77l19.58-14.27S383.09,144.79,376.81,135Z" fill="#633f32"/><polygon points="392.8 154.21 384 144.32 356.75 164.32 365.22 173.98 392.8 154.21" fill="#d1def9"/><path d="M452.93,260.47c4.72-5.12,11.91-10.78,7.41-22.66s-69.83-86.18-69.83-86.18L365.22,174s16.37,31.36,21.75,41.54,23.25,38.56,28.2,46.88C422.37,274.54,447.54,266.33,452.93,260.47Z" fill="#d1def9"/><path d="M325.52,84.87a4.62,4.62,0,0,1,5,.38c2.39,1.62,5.85,7.69,5.85,7.69s.45,5-1.53,5.1-9.6-7.1-9.67-7.81C325.07,88.93,323.74,85.83,325.52,84.87Z" fill="#694334"/><path d="M365.93,143.51c-3-1.46-11.32-17.67-23-9.14-3.32-.72-9-5.9-12.29-8.28-1.5-1.07-6.87-6.8-12.12-.59-2,2.42,13.23,9,17.5,19.19,3,7.19,25.33,16.8,32,7.42C371.85,148.27,365.93,143.51,365.93,143.51Z" fill="#694334"/><path d="M359.22,155.79c-5.4.13-18-19.83-18-19.83s-3.57-5.75-2.73-8.24,13.6-20.64,18.94-21,18.15,22,21.2,28.83c4.13,9.31-3.69,13.87-6,16.14C370.08,154,364.62,155.66,359.22,155.79Z" fill="#694334"/><path d="M317.78,76.61c1,1.82,35.28,35.62,35.28,35.62s2.94,26.15-1,33.28a9.23,9.23,0,0,1-3.34-.39l-31.58-31.77c-.16-.68-1.79-27.79-1.21-34.75C316,77.69,317.78,76.61,317.78,76.61Z" fill="#595d7d"/><path d="M350.68,145.51a4.37,4.37,0,0,0,1.4,0c3.92-7.13,1-33.28,1-33.28s-34.26-33.8-35.28-35.62a2.24,2.24,0,0,0-1.86,1.87l35.23,35.68S350.87,136.53,350.68,145.51Z" fill="#7479a2"/><path d="M329.55,87.61c3.89-.3,13.47,4.93,18.33,11.1a61.48,61.48,0,0,1,6.36,9.21s-1,4.16-2.5,2.73l-15-14.21s-6.43-.69-8.06-3.18S329.55,87.61,329.55,87.61Z" fill="#694334"/><path d="M352.4,111.79c.8-.32.37-2.51.9-3.22a7.16,7.16,0,0,0-.88-1.34c-1.36-1.8-3.18-3-4.76-4.55-1.19-1.18-2-2.63-3.36-3.65-1.21-.9-4.13-1.21-5.75-1.21C342.34,101.78,348.69,107.65,352.4,111.79Z" fill="#4f3024"/><path d="M361.28,109c-2.58-4.6-10.13-14.32-12.88-14.57-3.24-.3-13.64,2.83-15,3.67s1.22,6,6.27,4.89c9.32-2,11.88,4.75,12.53,6.42s3.66,4.77,6.28,2.58S361.28,109,361.28,109Z" fill="#694334"/><path d="M461.39,576.31C438.22,562,281.16,505.14,245.45,505.09c-28.79,3.08-45.91,100.4,9.12,108.9,23,2.53,160.87,15.82,167.42,18C462.62,645.49,484.56,590.62,461.39,576.31Z" fill="#2e3652"/><polygon points="282.83 588.08 342.1 581.47 340.48 498.13 206.23 495.86 202.58 577.89 282.83 588.08" fill="#414f6b"/><path d="M205.45,513.3l-1.16,26.23c22,.66,65.08,1.9,87.68,2.13,16,.17,34.69-1.19,49.3-2.55L340.59,504l-46.76-6.65Z" fill="#2e3652"/><path d="M292.76,526.85a1.29,1.29,0,0,1-1.3-1.29v-1a1.3,1.3,0,0,1,2.6,0v1A1.29,1.29,0,0,1,292.76,526.85Z" fill="#2e3652"/><path d="M304.35,568.9a1.29,1.29,0,0,1-1.3-1.29V514.4a1.3,1.3,0,0,1,2.59,0v53.21A1.28,1.28,0,0,1,304.35,568.9Z" fill="#2e3652"/><path d="M435.19,590.75C412,576.44,255,519.58,219.25,519.53c-28.79,3.08-45.91,100.4,9.12,108.9,23,2.53,160.87,15.81,167.42,18C436.42,659.93,458.36,605.06,435.19,590.75Z" fill="#414f6b"/><path d="M291.57,183s12.56,14.77,24.74,23.66c0,1.58,43.49,22.05,43.49,22.05s12.8,49.82,4.27,93.14-17.92,47.43-19.62,104.57,1.05,106.79,1.05,106.79H315.63s-8.29,0-11.05-4.55-4.16-22.81-4.16-22.81-3.09,18.81-8,22.81-18.77,4.55-18.77,4.55H199.19s12.21-84.46,11.36-106.64S205,371.53,187.1,345.94,152.19,287.38,146,266c-3.93-13.62,1.41-41.9,1.41-41.9l62.26-29s19.08-5.17,18.46-20.31C235,169.94,291.57,183,291.57,183Z" fill="#191821"/><path d="M203.12,319.28H203a1.51,1.51,0,0,1-1.38-1.63c6.23-72.85-29.76-96.57-30.12-96.8a1.51,1.51,0,1,1,1.62-2.54c1.55,1,37.88,24.94,31.51,99.6A1.52,1.52,0,0,1,203.12,319.28Z" fill="#38354a"/><path d="M305.4,351.55a1.44,1.44,0,0,1-.84-.26C248.49,313.48,212.15,205,211.78,203.9a1.51,1.51,0,0,1,2.88-.94C215,204,250.55,310.12,305.15,348c4.28-5.46,24-35.92,13-122.81a1.52,1.52,0,0,1,1.31-1.69,1.49,1.49,0,0,1,1.68,1.31c10,78.5-5.19,116.92-14.62,126.27A1.52,1.52,0,0,1,305.4,351.55Z" fill="#38354a"/><path d="M295.9,187.28s13.23,26.85,15,62.63-7.37,84-7.37,84-38-47.19-53.09-78.82S223,198.06,224,189.77s4.27-21.46,6.06-22.47,27.13-5,32.83-4.5,24.37,11,24.37,11Z" fill="#d1def9"/><path d="M288.78,184c-.89-3.27,2.79-61.92,2.79-61.92s-30.84-2.65-55.57-2.65c-7.18,0-4.38,11.5-3.79,61.32-1.09,1.7,25.18,15.28,45.06,14.47C285.69,194.89,288.78,184,288.78,184Z" fill="#694334"/><path d="M290.29,143.74c-.6,10.68-1.25,23-1.52,31.18a71.63,71.63,0,0,1-26.08.57c-15.81-2.42-25.91-17.33-31.22-28-.12-4.08-.22-7.61-.26-10.65C241.41,138,267.77,141,290.29,143.74Z" fill="#4f3024"/><path d="M224,189.77c1-8.3,4.27-21.46,6.06-22.47,0,0-1.87,5.06,3.09,10.59,6.15,6.87,26.52,16.54,37.12,16.67,4.82.07,16.94-3.73,18.39-12.34h.1v-.8a9.53,9.53,0,0,0,0-1.85v-3.9s9.72,14.32,12.53,23.1c.84,10.74,1.35,21.38-1.7,22.62-16.64-17.25-13.09-18.24-19.74-23.31-5.35-4.08-13.16-1.31-16,2.53s-7.54,25.87-9.63,26-25.46-15.92-28.88-30.52c-.45-1.91-.91-3.95-1.37-6A2,2,0,0,1,224,189.77Z" fill="#e2eeff"/><path d="M303.18,497.39h0a1.42,1.42,0,0,1-1.5-1.32l.86-138.75A1.43,1.43,0,0,1,304,356h0a1.43,1.43,0,0,1,1.49,1.32l-.86,138.75A1.42,1.42,0,0,1,303.18,497.39Z" fill="#0f0f14"/><path d="M279.12,216.63a2.84,2.84,0,1,1-3.85-1.17A2.84,2.84,0,0,1,279.12,216.63Z" fill="#fff"/><path d="M286.39,247a2.84,2.84,0,1,1-3.84-1.18A2.83,2.83,0,0,1,286.39,247Z" fill="#fff"/><path d="M296.88,282.51a2.84,2.84,0,1,1-3.84-1.17A2.83,2.83,0,0,1,296.88,282.51Z" fill="#fff"/><path d="M178.39,240c10.21,16.74,17.32,54.17,16.47,74s-5.94,95.56-5.94,95.56-9.34,21.68-26.4,21.28-29.78-26.14-29.78-26.14-23.89-163.95,10-178.9C156,220,171.83,229.24,178.39,240Z" fill="#d1def9"/><path d="M196.93,525s.83,11.5,2.55,12.69,8.05,3.16,11.36,14.72,3.25,16.2,10,24.51c4.43,5.44-3.88,9.82-11.44-.41A63,63,0,0,1,204,564.23l3.38,21.17s3.31,9.54,4.68,12.44,2.91,9.13,4.74,11.43.63,6.85.63,6.85-19.53.7-33.15-8.71c-11.8-6.4-14.08-25.09-14.08-25.09s-4-29.4-4.62-34.18c-.67-5.16-3.09-17.46-3.09-17.46Z" fill="#694334"/><polygon points="200.91 511.18 202.58 531.45 159.13 539.53 155.78 521.9 200.91 511.18" fill="#d1def9"/><path d="M187.52,400.54c0,3.37,13.62,112.46,13.62,112.46l-45.38,9.56-22.82-113.8s2.56-25.85,20.47-25.85S187.52,400.54,187.52,400.54Z" fill="#d1def9"/><path d="M221.25,101.76h3.91s-1.11,21.66,1.13,28.66,23.23,38.07,47.58,38.07c6.16,0,26.87-15.79,28.83-35.05s-1.68-75-2.52-82.52-2.52-17.07-14.55-24.07-37.69-8.67-51.46,2.8-16.56,16.8-16.28,35.55A267.18,267.18,0,0,0,221.25,101.76Z" fill="#694334"/><path d="M281.06,118.75l5.05.28s5.63-1.4,6.12-1.68c.35-3.09-4.86-7.32-5-7.32s-7.88-9.85-12.38-9.85h-1.41c-4.5,0-12.24,9.85-12.38,9.85s-5.34,4.23-5,7.32c.49.28,6.12,1.68,6.12,1.68l11.14-.62s3.15,1.77,5.13,1.77A2.77,2.77,0,0,0,281.06,118.75Z" fill="#633f32"/><path d="M261,110.1c-.27.28-.53.56-.78.85s-.5.56-.74.85a4.82,4.82,0,0,0-.36.43c-.11.15-.23.28-.34.43-.22.3-.43.59-.63.89s-.19.3-.29.46-.18.3-.26.46-.17.3-.24.46l-.21.48-.16.48a2.81,2.81,0,0,0-.12.48,2.21,2.21,0,0,0-.09.49c0,.17,0,.33-.05.49l-.07-.3a0,0,0,0,0,0,0s0,0,.05,0a1.86,1.86,0,0,0,.25.14,6.93,6.93,0,0,0,.7.26c.5.15,1,.29,1.56.43s1.08.3,1.61.49a9.28,9.28,0,0,1,1.56.67l-1.67-.08c-.56,0-1.11-.06-1.67-.1a14.44,14.44,0,0,1-1.69-.21,4.5,4.5,0,0,1-.89-.23,3.06,3.06,0,0,1-.49-.23l-.27-.2a2.33,2.33,0,0,1-.27-.35l-.08-.13v-.18c0-.21,0-.43,0-.64a5.81,5.81,0,0,1,.27-1.25c.07-.19.14-.39.22-.59l.28-.55a4.15,4.15,0,0,1,.32-.53,4,4,0,0,1,.34-.5c.13-.15.25-.32.38-.46a11.25,11.25,0,0,1,.84-.85,12.4,12.4,0,0,1,.92-.74,10.29,10.29,0,0,1,1-.64A6.84,6.84,0,0,1,261,110.1Z" fill="#4a2c21"/><path d="M287,110.1a9.21,9.21,0,0,1,1.05.5,11,11,0,0,1,1,.64l.47.36c.15.13.31.24.45.38l.43.41.41.44c.14.15.25.31.38.47a3.7,3.7,0,0,1,.35.5,4.52,4.52,0,0,1,.32.52l.28.55c.08.2.15.4.22.6a3,3,0,0,1,.16.61,3.32,3.32,0,0,1,.11.63l0,.64v.18l-.08.13a2.8,2.8,0,0,1-.29.37l-.26.19a3.72,3.72,0,0,1-.48.25c-.16.06-.31.13-.46.17a3.88,3.88,0,0,1-.45.14,12.14,12.14,0,0,1-1.78.34,8.75,8.75,0,0,1-.88.09c-.3,0-.6.05-.89.05h-.9a8.91,8.91,0,0,1-.89-.08l1.69-.52c.27-.1.55-.17.83-.26l.82-.27c.55-.17,1.1-.35,1.61-.55l.38-.16.35-.16.28-.17.09-.07v0l-.08.31,0-.49a3,3,0,0,0-.09-.49,2.81,2.81,0,0,0-.12-.48l-.16-.49-.21-.47a5.21,5.21,0,0,0-.24-.47c-.08-.15-.16-.31-.26-.46s-.18-.31-.29-.45c-.19-.3-.41-.6-.63-.89l-.34-.44c-.11-.15-.23-.29-.35-.43C288.07,111.22,287.56,110.66,287,110.1Z" fill="#4a2c21"/><path d="M281.81,108.43l-.1-.34c0-.22-.11-.54-.2-1-.15-.83-.38-2-.65-3.45s-.58-3.1-.91-4.88c-.16-.9-.32-1.82-.49-2.75s-.33-1.89-.46-2.84q-.12-.7-.21-1.41c-.06-.48-.12-.94-.15-1.41,0-.23,0-.46-.05-.69s0-.44,0-.66a3.14,3.14,0,0,1,0-.62l0-.29c0-.1,0-.22.06-.33a24.33,24.33,0,0,1,.65-2.46,10.6,10.6,0,0,1,1-2,11.78,11.78,0,0,1,1.15-1.55c.38-.43.73-.81,1-1.1s.54-.54.71-.69l.25-.24-.3.18c-.2.12-.49.28-.84.53a13.57,13.57,0,0,0-1.24.94,10,10,0,0,0-1.44,1.46A9.43,9.43,0,0,0,278.36,85a17.91,17.91,0,0,0-.88,2.56,2.84,2.84,0,0,0-.08.34l-.07.39a4.16,4.16,0,0,0-.07.77c0,.25,0,.5,0,.75s0,.49.05.73c0,.5.07,1,.13,1.47s.12,1,.19,1.46c.15,1,.33,1.94.52,2.88s.41,1.86.61,2.76.44,1.74.67,2.54.45,1.57.67,2.27c.44,1.4.84,2.55,1.17,3.34.15.4.3.71.39.92S281.81,108.43,281.81,108.43Z" fill="#4a2c21"/><path d="M262.4,115.86a10.92,10.92,0,0,1,1.12-.3c.72-.16,1.74-.36,3-.52.62-.08,1.3-.17,2-.22.36,0,.73,0,1.13,0a4.75,4.75,0,0,1,.64,0,1.86,1.86,0,0,1,.5.09l.16.07.1.06.07,0,.16.11c.7.45,1.32.91,2,1.38s1.31.94,2,1.36a10.69,10.69,0,0,0,.93.55c.36.17.18.12.73.17.77,0,1.55.11,2.24.1a5.37,5.37,0,0,0,.66,0c.06,0,0,0,.09-.06l.19-.14.38-.33c.52-.46,1-.91,1.53-1.32a7.17,7.17,0,0,1,.76-.57,2.82,2.82,0,0,1,.47-.26h0l0,0h.07l.1,0,.29,0a4.57,4.57,0,0,1,1.38.26,7.09,7.09,0,0,1,1.08.43s-.42,0-1.14,0a6,6,0,0,0-1.21.16l-.09,0-.08.05-.05,0h0c.08,0,0,0,0,0v0l-.2.21c-.16.19-.35.41-.53.65-.36.48-.75,1-1.2,1.59l-.37.44-.21.23c-.07.07-.25.22-.34.29l-.05,0,0,0h0l-.08,0,0,0-.25.11-.4.12a6.21,6.21,0,0,1-.67.11,16.45,16.45,0,0,1-2.52.1h-.46l-.32,0a3.44,3.44,0,0,1-.85-.3,11.16,11.16,0,0,1-1.2-.69c-.72-.48-1.4-1-2-1.51s-1.26-1-1.8-1.5l-.08-.07-.05,0,0,0,.1,0c.09,0,0,0-.06,0l-.48-.08c-.34,0-.7-.08-1-.12l-2-.2c-1.23-.12-2.26-.25-3-.35Z" fill="#4a2c21"/><path d="M271.89,132,249.31,128s4.31,10.19,9.5,13.77,19.76,6.54,27.89-.47,11-11.72,11-11.72l-.38-1.77L277,131.92Z" fill="#57352a"/><path d="M254.65,129l2.29,9.9s7.21,6.46,16.39,6.23a25.29,25.29,0,0,0,15.27-5.86l1.31-6.71.87-3.4s-16.36,2.62-18.71,2.58S254.65,129,254.65,129Z" fill="#ededf9"/><path d="M275.57,150.42c-17.78-.26-29.6-23.26-29.6-23.26s4.11,1.12,4.56,1.13,11.37,14.92,25.21,15.37c13.11.43,19.37-14.45,19.52-14.92s4.58-1.66,4.58-1.66S293.44,150.68,275.57,150.42Z" fill="#795750"/><path d="M246.13,127.2a35.46,35.46,0,0,0,9.63,4c4.63,1.17,10.34,1.22,16.1,1.31,5,.07,11,.59,15.66-.67a65.73,65.73,0,0,0,12.32-4.74s-5.76,1.69-17.72,0c-2.17-.31-5.59,3.1-5.59,3.1s-2.38-4-4.54-3.77C262.17,127.35,246.13,127.2,246.13,127.2Z" fill="#573e35"/><path d="M264,135.83a105.27,105.27,0,0,0,12.08.93,11.24,11.24,0,0,0,.59-2.42,12.29,12.29,0,0,0,.51,2.42,30.44,30.44,0,0,0,8.13-1.27C284.08,138.16,274.67,140.11,264,135.83Z" fill="#d2d2e5"/><path d="M237.54,79.62s6.84-5.49,10.26-5.49c3.33.18,11.14,5.76,12.77,5.49,1.72-.45,3.25-3.87,3.25-3.87s-.27-1.17-.54-1-1.71,1.44-1.71,1.44l.54-2.07S253,69,247.17,70.44,237,79.08,237.54,79.62Z" fill="#1a1511"/><path d="M279.9,76.38s2.66,3.53,4,3.25,9.53-5.77,11.51-5.41,6.61,3,6.61,3l-.16-3.07s-2.76-4.63-8.08-4A34.27,34.27,0,0,0,282.82,74l.25,2.16-2-1.22Z" fill="#1a1511"/><path d="M300.18,50.92c-.84-7.55-1.43-17.87-13.47-24.87s-40-8.85-53.73,2.63S217.61,46.45,217.89,65.2a267.18,267.18,0,0,0,3.36,36.56h3.91v.18l2.79-.77s-.63-10-.63-12.37,4-11.57,4-11.57-.85-18.51-.42-26.08,8.2-16.62,12-17c2.94-.21,21.11,3.16,31.8,3.16,10.91,0,14-3.17,15.72-3.17,2.55.22,6.13,4.43,7.18,9.48s4.51,36.15,4.51,36.15C301.38,65.8,300.54,54.1,300.18,50.92Z" fill="#1a1511"/><path d="M285.58,87.6c-.06.34-.95,3.38-.22,4.71,1.32,2.47,5.47,2.77,7.89,2.37s4.89-.92,5.72-3.59-1.06-6.43-1.77-6.76-3.07-2.67-6.73-1.67A6.85,6.85,0,0,0,285.58,87.6Z" fill="#fff"/><path d="M297.18,89.83a6.22,6.22,0,0,1-1.82,4.46c-.9.87-6.16.84-7.11-.3a6.72,6.72,0,0,1-1.43-4.16c0-3.24,2.32-5.87,5.18-5.87S297.18,86.59,297.18,89.83Z" fill="#1a1511"/><path d="M285,91.72c.21-1.93,1.62-6.81,7.51-6.81,5.49,0,7.61,7.28,7.61,7.28a11.28,11.28,0,0,0-.07-5.5c-.74-3.47-4.14-5.63-7.87-5.63s-7.67,3.67-8.5,11A7.29,7.29,0,0,0,285,91.72Z" fill="#4a2c21"/><path d="M284,93.54a9.72,9.72,0,0,0,8.55,4.31A7.31,7.31,0,0,0,300.29,91c-.25-.28-1.18-2.65-1.18-1.71s.32,6.7-6.89,6.7c-5.14,0-7.2-2.72-7.2-2.72Z" fill="#4a2c21"/><path d="M258.73,87.6c0,.34,1,3.38.23,4.71-1.43,2.47-5.92,2.77-8.53,2.37s-5.3-.92-6.19-3.59,1.15-6.43,1.91-6.76,3.32-2.67,7.28-1.67A7.1,7.1,0,0,1,258.73,87.6Z" fill="#fff"/><path d="M246.18,89.83a6,6,0,0,0,2,4.46c1,.87,6.67.84,7.69-.3a6.42,6.42,0,0,0,1.55-4.16,5.61,5.61,0,1,0-11.2,0Z" fill="#1a1511"/><path d="M259.38,91.72c-.22-1.93-1.76-6.81-8.12-6.81-6.12.1-8.32,6.71-8.32,6.71s-.73-.67-.18-4.69c.48-3.54,4.82-5.87,8.86-5.87s8.29,3.67,9.19,11A8.49,8.49,0,0,1,259.38,91.72Z" fill="#4a2c21"/><path d="M260.42,93.54c-.36.47-2.88,4.31-9.25,4.31s-8.29-4.69-8.36-6.82c.27-.28,1.28-2.65,1.28-1.71s-.35,6.7,7.46,6.7c5.56,0,7.78-2.72,7.78-2.72Z" fill="#4a2c21"/><path d="M222.16,112.09a3.31,3.31,0,0,0,3.26,1.34c-.53-.29,0-29.47,0-29.47s-5.56-2.52-8.33.64-1.15,12-.86,13.44S219.44,110.73,222.16,112.09Z" fill="#5e392b"/><polygon points="492.25 892.69 480.68 892.69 474.66 478.8 498.27 478.8 492.25 892.69" fill="#a69da0"/><polygon points="285.61 892.69 274.03 892.69 268.02 478.8 291.62 478.8 285.61 892.69" fill="#a69da0"/><polygon points="268.68 529.87 290.74 529.87 291.51 476.65 267.91 476.65 268.68 529.87" fill="#958d90"/><polygon points="475.33 529.87 497.39 529.87 498.17 476.65 474.56 476.65 475.33 529.87" fill="#958d90"/><polygon points="649.55 529.87 671.49 529.87 672.32 476.65 648.71 476.65 649.55 529.87" fill="#958d90"/><polygon points="856.2 529.87 878.14 529.87 878.97 476.65 855.36 476.65 856.2 529.87" fill="#958d90"/><polygon points="873.06 868.39 861.49 868.39 855.47 478.8 879.08 478.8 873.06 868.39" fill="#a69da0"/><polygon points="666.41 868.39 654.84 868.39 648.82 478.8 672.43 478.8 666.41 868.39" fill="#a69da0"/><path d="M234.59,480.06a4.67,4.67,0,0,0,4.65,4.66l689.93.8a4.66,4.66,0,0,0,4.66-4.64v-12.8a4.68,4.68,0,0,0-4.65-4.67l-689.93-.8a4.66,4.66,0,0,0-4.65,4.65Z" fill="#a4722d"/><path d="M234.59,480.06c0,2.56.88,4.66,2,4.66l293,.34c1.08,0,2-2.09,2-4.65l0-12.8c0-2.56-.89-4.66-2-4.66l-293-.34c-1.08,0-2,2.09-2,4.65Z" fill="#cf9643"/></svg>