<svg xmlns="http://www.w3.org/2000/svg" xmlns:xlink="http://www.w3.org/1999/xlink" viewBox="0 0 726.82 660.49"><defs><style>.b5b5b3c8-c1c9-465c-8563-a62eb6fe4a42{fill:#b2e4f7;}.a1b9a39a-0da3-4161-a1cd-2940b02f5287{isolation:isolate;}.bd15ee4c-9a8f-47c6-abeb-6afe8125a3f7{fill:#ffeddc;}.be49a080-c340-4db1-ae1c-92cfe288e35b{opacity:0.07;}.e7d6fe1b-fa50-48c8-8e94-d97f0f845761{fill:#6685d9;}.e08d1dc8-1888-45c9-a39d-28518c4d288a{fill:#d4f0f9;}.b3d1491f-90dc-4d47-a2c0-c1e620fb2dc3{fill:#8dc1e2;}.ae229990-fef8-4718-9a33-b8b1f2a63a40{fill:#1d6ea0;}.a127bcf9-cc24-48ec-8fcf-d0c8a74ed793{fill:#4f91c1;}.b6b9eb6b-1599-4023-bc09-0e59a25f8d1d{fill:#ffeed7;}.bc26b81d-a404-4efa-839e-2136d792a63e{fill:#694334;}.acc224ba-5f5d-42e9-a931-051ce7cc92af{fill:#1f1414;}.ac863895-4fa9-45fe-a70a-a5a9799b6528{fill:#414f6b;}.ff853c1e-bcb6-4ab7-bf0e-e259124cb3b9{fill:#2e3652;}.f8d54fd2-1da2-4633-b4f7-cf61d0979089{fill:#d2dffa;}.bf2c7b56-927e-4f97-8238-476f963020bd{fill:#c3cffa;}.f568d492-a1b5-41aa-960a-5894cce94bb5{fill:#fff;}.b871c66b-5690-4308-98c4-24d3ce6038ad{fill:#e3efff;}.b7ba881c-bc98-4e88-8f32-89018072fb56{fill:#191821;}.b5ce5bed-8341-49d4-973f-edf3d6825a3e{fill:#0f0f14;}.f02665a0-45d4-4846-88cb-b421500e3eef{fill:#38354a;}.eebe43da-9b75-4a05-bd49-2b11925c845c{fill:#4f3024;}.a065108e-0286-4263-a62d-288e48b0ee76{fill:#5e392b;}.a4b6561c-de33-4917-bb65-a5b43a7b2516{fill:#1a1511;}.f343f07d-8087-4fac-bf01-9608f0ec544a{fill:#4a2c21;}.b92856ed-b65b-4094-91d1-4c52724c1e69{fill:#633f32;}.a9fcbd33-2911-47f9-a86f-94592c13b763{fill:#57352a;}.b828a793-6b08-49ed-ac21-74dbbe160b7f{fill:#eeeefa;}.f3f0efa5-8423-4d9f-9eb2-ce73ddf75285{fill:#795750;}.b5b9a85d-aefc-4e0d-b097-54bf710f334a{fill:#573e35;}.e9f303ea-270f-45f1-bafb-95e342dacfc6{fill:#d3d3e6;}.b524da28-27f1-4543-af7c-df4de684f025{fill:#7dbacc;}.fa05021e-42cf-4f94-a879-8403f1157f16{clip-path:url(#ae0885e4-6b3a-460c-9581-c8ba06459c90);}.ba544d72-9de1-4b07-b8ce-98ba46011c4a{fill:#f7b994;}.b46ff6d6-7693-4bfc-a3ff-7fb1aa4a710d{fill:#a8d1fa;}.ee1c5217-75d5-4b4e-897b-c103c4d5ed5f{fill:#e3976f;}.a62b1c39-bbdb-4c44-8625-4ba4c6e6c401{fill:#29a593;}.ae2e66da-ea0a-4735-b6a4-861e30d00952{fill:#304a8a;}.a800ebfe-c06e-41d3-a4a3-2b7ac1a3f68e{fill:#abd5ff;}.bc7acf46-8b14-4dec-b4df-3b8a75497963{fill:#215ea4;}.b17226b6-24c0-472a-a576-8349046dc233{fill:#49c9b4;}.ab5cb6f6-d50b-41c1-bbaf-a289fdf6dde3{fill:#e2966a;}.b1791e86-1f88-4d4e-9309-2bfdd9463f24{fill:#57ead9;}.bffd6537-9c3a-4b7f-895d-73645d280f8f{fill:#f1ecf0;}.a10b6bef-c6d1-4926-9d46-d54d3ac8fbe3{fill:#eba379;}.ad81fbd3-d78a-4bb1-833d-2239b6c4b092{fill:#1a110c;}.e06c71c3-0807-4551-84ff-9f47210ae8b7{fill:#f6b08e;}.f1073eb4-3a54-4a02-8104-81b1094df2b7{fill:#e38f6f;}.b93d1441-5278-41bb-a334-9230428c21d5{fill:#d68262;}.b1b0c09e-fd0a-423d-a302-86f579908374{fill:#fbfdfc;}.eceed767-0eab-4560-a6e5-fe89be7f5194{fill:#382518;}.b55591d3-727d-4b5d-98d3-55645ecf5794{fill:#d2835a;}.ab3c0608-8594-49b3-986d-2f03c3e4a279{fill:#b07855;}.b9f32d39-2521-4731-8e49-752db2c8e631{fill:#241710;}.b3db8809-a80e-4cba-a189-0fd9af76b583{fill:#99e0dc;}.eaa9c50f-c08c-49df-830e-45bdd158ced2{fill:#c7e5ed;}.a27b3e5a-69b3-4f2c-ad9b-0fb8fc4a0217{fill:#214d65;}.baa03466-67b7-49c6-a3dc-78443ae53f85{fill:#e8f9fa;}.a1136be3-2e57-45e5-b709-ac1bda92f443{fill:#545557;}.e5dfa9a4-dcc5-4142-96f5-97a1ff75ea76{fill:#edbf74;}.a27924eb-8b4b-421d-adab-6a29fa1c71f8{fill:#efa625;}.a0264a89-6b2d-4616-af88-c14f0adff0da{fill:#46729e;}.fdea4500-be9e-4fa2-84f6-3914f305df81{fill:#ffe3de;}.a9869670-e457-491b-ac9b-25334085b76c{fill:#212938;}.f25d22b1-917e-47ea-9642-7905be8faf1e{mix-blend-mode:screen;}.f318801a-f8a1-4ccc-8ccf-45679b77b692{mix-blend-mode:multiply;}.f171e632-288b-4cd9-b129-60774e872a57{fill:#a7cdde;}</style><clipPath id="ae0885e4-6b3a-460c-9581-c8ba06459c90"><circle class="b5b5b3c8-c1c9-465c-8563-a62eb6fe4a42" cx="501.52" cy="544.14" r="89.82"/></clipPath></defs><g class="a1b9a39a-0da3-4161-a1cd-2940b02f5287"><g id="ab10ed84-56b1-4ce9-90a2-df17bc6e911b" data-name="Layer 2"><g id="add6d178-4bc4-4c35-b3b7-520f5a1d2caf" data-name="Layer 1"><path class="bd15ee4c-9a8f-47c6-abeb-6afe8125a3f7" d="M478.51,265.19c35.64,50.64,23.91,122,4.73,176.38-8.52,23.45-32,37.3-36.23,63.94-3.2,25.58-2.13,56.48-26.64,69.27-40.49,21.31-87.38,9.59-126.81-7.46-12.79-5.33-14.92-22.38-19.18-35.17-6.4-20.24-33-27.7-54.35-27.7-9.59-1.07-19.18-8.53-17.05-20.25,3.2-17.05,29.84-36.23,8.52-46.89-27.7-12.79-47.95-34.1-60.74-60.74-9.59-20.25-5.33-43.69-12.79-65C119.86,253,148.63,192.21,191.26,150.65,201.91,138.93,211.5,156,221.1,156c27.7-2.13,27.7-41.56,44.75-55.41,28.77-22.38,78.86,11.72,115.09,23.44,38.36,12.79,56.48,53.28,57.55,93.78,0,18.11,20.24,26.64,32.29,39.11C473.36,259.47,476,262.24,478.51,265.19Z"/><g class="be49a080-c340-4db1-ae1c-92cfe288e35b"><path class="e7d6fe1b-fa50-48c8-8e94-d97f0f845761" d="M355,390.57c-.21-2.45-.47-4.88-.63-7.31-.24-3.64-.7-7.28-.59-10.91.54-18,13.49-33.53,30.88-37.06a39,39,0,0,1,45.67,27.34,49.39,49.39,0,0,1,1.5,7.92c.49,4.06.75,8.15,1.11,12.22,0,.31.06.63.1,1.1.57-.05,1.1-.07,1.61-.14,3.29-.45,5.62,1,7.11,3.81a10.66,10.66,0,0,1,1.27,3.94q2.53,28,4.94,56.1a9.55,9.55,0,0,1-1.13,5.51,6.54,6.54,0,0,1-5.52,3.65q-23.08,2-46.16,4l-34.87,3.06c-4.46.39-7.48-1.74-8.59-6.1a13.06,13.06,0,0,1-.36-2.06q-2.43-27.59-4.84-55.16a10.39,10.39,0,0,1,.88-5.56,6.51,6.51,0,0,1,5.82-4.09c.51,0,1-.1,1.51-.15A1.55,1.55,0,0,0,355,390.57Zm16.15-1.35,45.69-4c0-.29,0-.51,0-.72-.37-4.3-.68-8.6-1.16-12.89a25.73,25.73,0,0,0-1.17-5.27c-3.56-10.54-14.7-17.24-25.31-15.31a23.07,23.07,0,0,0-19.24,23.33c.15,4.37.68,8.72,1,13.08C371,388,371.08,388.57,371.14,389.22Zm22,44.53c.19,2.15.37,4.3.57,6.44a3.78,3.78,0,0,0,4.44,3.71l1.61-.14a3.79,3.79,0,0,0,3.75-4.49c-.34-3.92-.66-7.83-1-11.74a10.91,10.91,0,0,1,2.73-8.61,18.93,18.93,0,0,0,1.15-1.52,5.14,5.14,0,0,0,.8-4.16A10.36,10.36,0,0,0,399,405c-5-.78-9.21.62-11.63,4.6-2.28,3.77-2.95,7.92,1.47,11.14a9.61,9.61,0,0,1,3.81,7.18C392.81,429.84,393,431.79,393.14,433.75Z"/></g><g class="be49a080-c340-4db1-ae1c-92cfe288e35b"><path class="e7d6fe1b-fa50-48c8-8e94-d97f0f845761" d="M147,101.57c.65-4.17,1.22-8.31,1.94-12.42,1.08-6.14,1.82-12.39,3.49-18.38,8.27-29.69,36.15-50.21,66.5-49,38.63,1.57,63.37,32.1,64.74,64.16a83.85,83.85,0,0,1-.74,13.79c-.85,7-2.09,13.85-3.16,20.77-.08.53-.16,1.06-.29,1.87,1,.15,1.86.32,2.75.42,5.65.6,8.91,4,10.26,9.24a18.18,18.18,0,0,1,.49,7.07q-7.26,47.67-14.75,95.3a16.41,16.41,0,0,1-4.14,8.7,11.24,11.24,0,0,1-10.67,3.81q-39.18-6.15-78.39-12.19l-59.23-9.2c-7.58-1.18-11.72-6-11.79-13.66a22.48,22.48,0,0,1,.25-3.57q7.25-46.85,14.53-93.68a17.9,17.9,0,0,1,3.74-8.9c3-3.57,6.64-5.33,11.36-4.41.85.17,1.72.25,2.58.37A2.91,2.91,0,0,0,147,101.57Zm27.4,4.36L252,118c.11-.48.21-.83.27-1.2,1.14-7.3,2.38-14.58,3.34-21.89a43.36,43.36,0,0,0,.22-9.25c-1.6-19-17.38-34.69-35.81-35.82-19.86-1.22-37.53,11.8-41.54,30.92-1.53,7.32-2.43,14.78-3.62,22.17C174.66,103.87,174.52,104.83,174.35,105.93Zm18.35,83c-.57,3.64-1.15,7.29-1.7,10.93-.65,4.31,1.54,7.27,5.87,8l2.73.43c4.43.65,7.38-1.5,8.07-5.93,1-6.64,2.11-13.29,3.08-19.94a18.78,18.78,0,0,1,8.07-13.2,30.63,30.63,0,0,0,2.53-2.05,8.81,8.81,0,0,0,3-6.58c.3-7.28-3.72-14.4-10.21-17.12-7.93-3.33-15.58-2.75-21.22,2.88-5.34,5.33-8.16,12-2.12,19.13,3.22,3.81,4.13,8.53,3.4,13.49C193.75,182.33,193.21,185.65,192.7,189Z"/></g><path class="e08d1dc8-1888-45c9-a39d-28518c4d288a" d="M198.5,643c0,8.76-24.13,17.45-93.12,17.45S0,652.06,0,645.36c0-7.08,36.38-8.28,105.38-8.28S198.5,636.36,198.5,643Z"/><path class="bd15ee4c-9a8f-47c6-abeb-6afe8125a3f7" d="M566.06,50.21c-4,10-7.8,21.25-12.07,32.4-1.42,3.72-2.9,7.43-4.37,11.12-6.17,20.71-9.59,45.82-31.28,53.81C483,160.1,452.12,132.7,424.41,113.81A60.8,60.8,0,0,1,417,107.4a34.92,34.92,0,0,1-9.42-16.94C400.75,58.5,427,30,454.21,19.11c3.71-1.44,7.52-2.73,11.38-4,11.56-3.7,23.49-7,33.34-12.58,10.27-5.71,25.12-1.14,36.25,6.6a82.51,82.51,0,0,1,9.19,6.3A70,70,0,0,1,565,41.17,27,27,0,0,1,566.06,50.21Z"/><ellipse class="b3d1491f-90dc-4d47-a2c0-c1e620fb2dc3" cx="492.97" cy="88.34" rx="15.98" ry="2.59"/><path class="ae229990-fef8-4718-9a33-b8b1f2a63a40" d="M203.52,244.83a1,1,0,0,1-.42-.08,1.14,1.14,0,0,1-.64-1.48c0-.08.77-1.94,2.33-5.28a1.14,1.14,0,1,1,2.07,1c-1.53,3.28-2.27,5.14-2.27,5.16A1.15,1.15,0,0,1,203.52,244.83Z"/><path class="ae229990-fef8-4718-9a33-b8b1f2a63a40" d="M210.82,229.6a1.12,1.12,0,0,1-.53-.13,1.15,1.15,0,0,1-.48-1.55c1.72-3.23,3.57-6.54,5.49-9.83a1.14,1.14,0,0,1,2,1.15c-1.91,3.27-3.74,6.55-5.44,9.75A1.13,1.13,0,0,1,210.82,229.6Zm11.31-19.35a1.15,1.15,0,0,1-1-1.76c2-3.14,4.1-6.29,6.22-9.36a1.14,1.14,0,0,1,1.59-.29,1.13,1.13,0,0,1,.29,1.58c-2.11,3.06-4.19,6.19-6.18,9.3A1.13,1.13,0,0,1,222.13,210.25Zm12.74-18.43A1.15,1.15,0,0,1,234,190c2.23-3,4.55-6,6.89-8.89a1.14,1.14,0,0,1,1.78,1.43c-2.32,2.89-4.62,5.86-6.84,8.83A1.12,1.12,0,0,1,234.87,191.82Zm14-17.46a1.18,1.18,0,0,1-.75-.28,1.14,1.14,0,0,1-.11-1.61c2.44-2.83,5-5.64,7.5-8.37a1.14,1.14,0,1,1,1.67,1.55c-2.52,2.71-5,5.51-7.45,8.31A1.13,1.13,0,0,1,248.9,174.36ZM264.15,158a1.16,1.16,0,0,1-.81-.34,1.15,1.15,0,0,1,0-1.61c2.64-2.64,5.36-5.26,8.1-7.8a1.14,1.14,0,1,1,1.55,1.67c-2.71,2.52-5.42,5.13-8,7.74A1.18,1.18,0,0,1,264.15,158Zm16.41-15.23a1.17,1.17,0,0,1-.87-.4,1.15,1.15,0,0,1,.12-1.61c2.83-2.44,5.74-4.85,8.66-7.17a1.14,1.14,0,1,1,1.42,1.78c-2.89,2.31-5.78,4.7-8.59,7.12A1.16,1.16,0,0,1,280.56,142.73Zm17.5-14a1.14,1.14,0,0,1-.68-2.06c3-2.21,6.09-4.39,9.18-6.48a1.14,1.14,0,0,1,1.28,1.88c-3.06,2.08-6.13,4.25-9.1,6.44A1.13,1.13,0,0,1,298.06,128.77Zm18.52-12.56a1.14,1.14,0,0,1-.6-2.11c3.16-2,6.41-3.91,9.65-5.76a1.14,1.14,0,0,1,1.55.43,1.12,1.12,0,0,1-.42,1.55c-3.22,1.84-6.44,3.76-9.57,5.72A1.22,1.22,0,0,1,316.58,116.21ZM336,105.12a1.15,1.15,0,0,1-1-.62,1.13,1.13,0,0,1,.49-1.53c3.31-1.72,6.7-3.4,10.07-5a1.14,1.14,0,1,1,1,2.06c-3.34,1.58-6.7,3.24-10,4.95A1.06,1.06,0,0,1,336,105.12Zm20.24-9.54a1.14,1.14,0,0,1-.45-2.19c3.42-1.45,6.93-2.86,10.42-4.19a1.14,1.14,0,0,1,.81,2.13c-3.47,1.32-6.94,2.72-10.34,4.16A1.12,1.12,0,0,1,356.26,95.58Zm20.91-8a1.14,1.14,0,0,1-.37-2.22c3.53-1.19,7.13-2.33,10.71-3.38a1.14,1.14,0,0,1,1.42.77,1.15,1.15,0,0,1-.77,1.42c-3.56,1-7.13,2.18-10.63,3.35A1.13,1.13,0,0,1,377.17,87.63Zm21.45-6.34a1.14,1.14,0,0,1-.28-2.25c3.59-.92,7.27-1.79,10.92-2.58a1.14,1.14,0,0,1,.49,2.23c-3.63.79-7.28,1.65-10.85,2.56A.9.9,0,0,1,398.62,81.29Zm21.86-4.76a1.14,1.14,0,0,1-.21-2.26c3.66-.66,7.38-1.27,11.08-1.81a1.14,1.14,0,1,1,.33,2.26c-3.67.53-7.37,1.14-11,1.79A.71.71,0,0,1,420.48,76.53Zm22.13-3.22a1.14,1.14,0,0,1-.12-2.28c3.68-.41,7.44-.76,11.17-1a1.13,1.13,0,0,1,1.23,1,1.14,1.14,0,0,1-1.05,1.23c-3.7.29-7.44.65-11.1,1Zm22.3-1.75a1.14,1.14,0,0,1-.05-2.28c3.69-.18,7.47-.3,11.22-.36h0a1.15,1.15,0,0,1,0,2.29c-3.73.06-7.48.17-11.15.35Z"/><path class="ae229990-fef8-4718-9a33-b8b1f2a63a40" d="M493,71.31h0c-1.91-.06-3.81-.09-5.69-.12A1.15,1.15,0,0,1,486.18,70a1.17,1.17,0,0,1,1.16-1.12c1.89,0,3.8.06,5.72.12a1.14,1.14,0,0,1,0,2.28Z"/><path class="ae229990-fef8-4718-9a33-b8b1f2a63a40" d="M366.76,487.2h-.06a1.14,1.14,0,0,1-1.08-1.2s.11-2,.36-5.7a1.13,1.13,0,0,1,1.22-1.07,1.15,1.15,0,0,1,1.06,1.22c-.25,3.69-.36,5.67-.36,5.68A1.14,1.14,0,0,1,366.76,487.2Z"/><path class="ae229990-fef8-4718-9a33-b8b1f2a63a40" d="M367.94,470.2h-.09A1.14,1.14,0,0,1,366.8,469c.26-3.35.56-7.15.92-11.35a1.14,1.14,0,1,1,2.27.19c-.35,4.2-.65,8-.91,11.33A1.15,1.15,0,0,1,367.94,470.2Zm1.91-22.67h-.11a1.14,1.14,0,0,1-1-1.25q.48-5.37,1.06-11.32a1.15,1.15,0,0,1,2.28.22c-.39,4-.74,7.74-1.07,11.31A1.14,1.14,0,0,1,369.85,447.53Zm2.2-22.62h-.12a1.14,1.14,0,0,1-1-1.25q.57-5.47,1.21-11.31a1.14,1.14,0,0,1,1.26-1,1.15,1.15,0,0,1,1,1.26q-.64,5.82-1.21,11.29A1.14,1.14,0,0,1,372.05,424.91Zm2.48-22.59h-.13a1.14,1.14,0,0,1-1-1.27c.42-3.68.87-7.45,1.34-11.28A1.14,1.14,0,0,1,377,390q-.7,5.76-1.35,11.28A1.13,1.13,0,0,1,374.53,402.32Zm2.76-22.54h-.14a1.14,1.14,0,0,1-1-1.28q.72-5.55,1.49-11.26a1.13,1.13,0,0,1,1.29-1,1.15,1.15,0,0,1,1,1.28q-.78,5.72-1.5,11.25A1.13,1.13,0,0,1,377.29,379.78Zm3.06-22.5-.16,0a1.14,1.14,0,0,1-1-1.29q.79-5.57,1.65-11.24a1.13,1.13,0,0,1,1.3-1,1.15,1.15,0,0,1,1,1.3q-.86,5.67-1.65,11.23A1.15,1.15,0,0,1,380.35,357.28Zm3.37-22.46h-.18a1.16,1.16,0,0,1-1-1.31q.89-5.56,1.81-11.22a1.15,1.15,0,0,1,2.26.38q-.93,5.63-1.81,11.2A1.15,1.15,0,0,1,383.72,334.82Zm3.71-22.4-.2,0a1.15,1.15,0,0,1-.93-1.32q1-5.56,2-11.18a1.13,1.13,0,0,1,1.32-.92,1.15,1.15,0,0,1,.92,1.33q-1,5.6-2,11.16A1.14,1.14,0,0,1,387.43,312.42Zm4.07-22.34-.21,0a1.14,1.14,0,0,1-.91-1.33q1.06-5.57,2.19-11.14a1.14,1.14,0,0,1,2.24.45q-1.12,5.56-2.18,11.11A1.15,1.15,0,0,1,391.5,290.08ZM396,267.84l-.24,0a1.15,1.15,0,0,1-.88-1.36q1.19-5.56,2.43-11.12a1.13,1.13,0,0,1,1.36-.87,1.15,1.15,0,0,1,.87,1.36q-1.25,5.55-2.42,11.11A1.15,1.15,0,0,1,396,267.84Zm5-22.18a1.24,1.24,0,0,1-.27,0,1.14,1.14,0,0,1-.85-1.37c.87-3.68,1.77-7.4,2.68-11a1.14,1.14,0,0,1,2.22.55c-.91,3.65-1.81,7.35-2.67,11A1.15,1.15,0,0,1,401,245.66Zm5.49-22a1.36,1.36,0,0,1-.29,0,1.15,1.15,0,0,1-.82-1.4c1-3.72,2-7.41,3-11a1.14,1.14,0,1,1,2.2.62c-1,3.55-2,7.23-3,10.93A1.13,1.13,0,0,1,406.45,223.63Zm6.12-21.86a1.24,1.24,0,0,1-.33,0,1.15,1.15,0,0,1-.77-1.42c1.1-3.7,2.23-7.35,3.34-10.87a1.14,1.14,0,1,1,2.18.68c-1.11,3.51-2.23,7.16-3.33,10.84A1.14,1.14,0,0,1,412.57,201.77Zm6.87-21.63a1.19,1.19,0,0,1-.37-.06,1.14,1.14,0,0,1-.71-1.45c1.23-3.64,2.5-7.25,3.77-10.73a1.14,1.14,0,0,1,2.15.78c-1.27,3.46-2.53,7.06-3.76,10.68A1.14,1.14,0,0,1,419.44,180.14Zm7.79-21.32a1.25,1.25,0,0,1-.42-.08,1.14,1.14,0,0,1-.65-1.48c1.42-3.59,2.87-7.14,4.33-10.53a1.14,1.14,0,0,1,2.1.89c-1.45,3.38-2.9,6.91-4.3,10.47A1.15,1.15,0,0,1,427.23,158.82ZM436.17,138a1.16,1.16,0,0,1-.48-.11,1.14,1.14,0,0,1-.55-1.52c1.64-3.51,3.34-7,5-10.22a1.14,1.14,0,0,1,2,1c-1.68,3.24-3.36,6.65-5,10.14A1.17,1.17,0,0,1,436.17,138Zm10.45-20.14a1.18,1.18,0,0,1-.57-.15,1.14,1.14,0,0,1-.41-1.56c2-3.39,4-6.66,6-9.71a1.14,1.14,0,1,1,1.9,1.25c-2,3-4,6.25-5.91,9.6A1.12,1.12,0,0,1,446.62,117.82ZM459.11,98.9a1.1,1.1,0,0,1-.69-.23,1.15,1.15,0,0,1-.22-1.6c2.39-3.14,4.85-6.09,7.3-8.79a1.14,1.14,0,1,1,1.69,1.53c-2.41,2.65-4.82,5.56-7.17,8.64A1.14,1.14,0,0,1,459.11,98.9Z"/><path class="ae229990-fef8-4718-9a33-b8b1f2a63a40" d="M474.06,82.52a1.15,1.15,0,0,1-.76-2c1.46-1.29,2.95-2.54,4.44-3.7a1.14,1.14,0,0,1,1.4,1.81c-1.45,1.12-2.9,2.34-4.32,3.6A1.17,1.17,0,0,1,474.06,82.52Z"/><path class="ae229990-fef8-4718-9a33-b8b1f2a63a40" d="M368.83,487.2a1.13,1.13,0,0,1-.71-.26s-1.57-1.27-4.4-3.67a1.14,1.14,0,1,1,1.47-1.74c2.8,2.37,4.36,3.63,4.36,3.64a1.14,1.14,0,0,1-.72,2Z"/><path class="ae229990-fef8-4718-9a33-b8b1f2a63a40" d="M355.8,476.05a1.15,1.15,0,0,1-.75-.28c-2.79-2.47-5.67-5-8.55-7.67a1.14,1.14,0,1,1,1.54-1.69c2.87,2.62,5.74,5.19,8.52,7.64a1.14,1.14,0,0,1-.76,2Zm-16.95-15.44a1.17,1.17,0,0,1-.78-.31c-2.78-2.61-5.57-5.28-8.31-7.93a1.13,1.13,0,0,1,0-1.61,1.16,1.16,0,0,1,1.62,0c2.73,2.64,5.52,5.3,8.28,7.9a1.14,1.14,0,0,1,.05,1.62A1.11,1.11,0,0,1,338.85,460.61Zm-16.48-15.94a1.14,1.14,0,0,1-.81-.34c-2.71-2.7-5.43-5.44-8.07-8.16a1.14,1.14,0,0,1,1.63-1.59c2.64,2.7,5.35,5.44,8.06,8.14a1.15,1.15,0,0,1,0,1.61A1.16,1.16,0,0,1,322.37,444.67Zm-16-16.42a1.15,1.15,0,0,1-.83-.36c-2.66-2.81-5.29-5.64-7.82-8.4a1.15,1.15,0,0,1,.07-1.61,1.13,1.13,0,0,1,1.61.07c2.52,2.75,5.15,5.57,7.8,8.38a1.14,1.14,0,0,1-.05,1.61A1.12,1.12,0,0,1,306.37,428.25Zm-15.47-16.9A1.14,1.14,0,0,1,290,411c-2.53-2.86-5.07-5.77-7.53-8.66a1.14,1.14,0,1,1,1.73-1.48c2.46,2.87,5,5.78,7.51,8.63a1.15,1.15,0,0,1-.85,1.9ZM276,393.92a1.13,1.13,0,0,1-.88-.42c-2.45-3-4.88-6-7.2-8.94a1.14,1.14,0,1,1,1.79-1.41c2.32,2.94,4.73,5.93,7.17,8.9a1.14,1.14,0,0,1-.15,1.61A1.16,1.16,0,0,1,276,393.92Zm-14.19-18a1.15,1.15,0,0,1-.91-.46c-2.32-3.07-4.61-6.18-6.8-9.23a1.14,1.14,0,1,1,1.85-1.33c2.18,3,4.46,6.12,6.77,9.19a1.15,1.15,0,0,1-.22,1.6A1.19,1.19,0,0,1,261.82,375.93Zm-13.35-18.6a1.15,1.15,0,0,1-.95-.5c-2.18-3.22-4.32-6.44-6.34-9.6a1.14,1.14,0,0,1,1.93-1.23c2,3.14,4.12,6.35,6.3,9.54a1.14,1.14,0,0,1-.3,1.59A1.18,1.18,0,0,1,248.47,357.33ZM236.11,338a1.14,1.14,0,0,1-1-.56c-2-3.31-3.91-6.66-5.73-10a1.14,1.14,0,0,1,.44-1.55,1.16,1.16,0,0,1,1.56.45c1.81,3.27,3.72,6.6,5.69,9.89a1.14,1.14,0,0,1-.39,1.57A1.16,1.16,0,0,1,236.11,338ZM225,318a1.15,1.15,0,0,1-1-.63c-1.76-3.49-3.43-7-5-10.37a1.14,1.14,0,0,1,2.08-.94c1.52,3.36,3.18,6.82,4.92,10.28a1.15,1.15,0,0,1-.5,1.54A1.2,1.2,0,0,1,225,318Zm-9.41-20.87a1.16,1.16,0,0,1-1.07-.72c-1.43-3.63-2.76-7.27-3.95-10.81a1.14,1.14,0,0,1,2.17-.73c1.17,3.51,2.49,7.11,3.91,10.7a1.15,1.15,0,0,1-.64,1.48A1.25,1.25,0,0,1,215.63,297.1Zm-7.24-21.71a1.15,1.15,0,0,1-1.1-.85c-1-3.78-1.88-7.55-2.59-11.22a1.14,1.14,0,1,1,2.24-.44c.7,3.62,1.56,7.35,2.56,11.07a1.15,1.15,0,0,1-.81,1.4A1,1,0,0,1,208.39,275.39Z"/><path class="ae229990-fef8-4718-9a33-b8b1f2a63a40" d="M204.1,253.13a1.14,1.14,0,0,1-1.13-1c-.22-1.91-.4-3.84-.53-5.73a1.15,1.15,0,0,1,1.06-1.22,1.14,1.14,0,0,1,1.22,1.06c.13,1.86.3,3.75.52,5.63a1.15,1.15,0,0,1-1,1.27Z"/><ellipse class="b3d1491f-90dc-4d47-a2c0-c1e620fb2dc3" cx="368.42" cy="522.84" rx="15.98" ry="2.59"/><ellipse class="b3d1491f-90dc-4d47-a2c0-c1e620fb2dc3" cx="203.52" cy="259.88" rx="15.98" ry="2.59"/><path class="a127bcf9-cc24-48ec-8fcf-d0c8a74ed793" d="M492.87,88.34c-5.45-8.9-11.27-17.29-15.92-26.28-5.89-11.36,2.57-24.72,15.13-25.31a17.82,17.82,0,0,1,17.73,24,22.76,22.76,0,0,1-2.25,4.32q-7,11.19-14,22.35C493.43,87.62,493.26,87.81,492.87,88.34Zm.2-41.58a7.83,7.83,0,1,0,7.82,7.79A7.88,7.88,0,0,0,493.07,46.76Z"/><circle class="b6b9eb6b-1599-4023-bc09-0e59a25f8d1d" cx="368.42" cy="489.66" r="10.24"/><path class="a127bcf9-cc24-48ec-8fcf-d0c8a74ed793" d="M368.26,523.41c-5.45-8.9-11.27-17.29-15.93-26.28-5.88-11.36,2.58-24.72,15.14-25.31a17.83,17.83,0,0,1,17.73,24,22.68,22.68,0,0,1-2.25,4.31q-7,11.21-14,22.35C368.82,522.69,368.65,522.89,368.26,523.41Zm.2-41.57a7.83,7.83,0,1,0,7.82,7.79A7.86,7.86,0,0,0,368.46,481.84Z"/><circle class="b6b9eb6b-1599-4023-bc09-0e59a25f8d1d" cx="203.52" cy="226.13" r="10.24"/><path class="a127bcf9-cc24-48ec-8fcf-d0c8a74ed793" d="M203.42,259.88c-5.45-8.9-11.27-17.29-15.92-26.27-5.89-11.37,2.57-24.73,15.14-25.31a17.81,17.81,0,0,1,17.72,24,23.22,23.22,0,0,1-2.24,4.31q-7,11.21-14,22.35C204,259.17,203.81,259.36,203.42,259.88Zm.2-41.57a7.83,7.83,0,1,0,7.82,7.79A7.87,7.87,0,0,0,203.62,218.31Z"/><polygon class="bc26b81d-a404-4efa-839e-2136d792a63e" points="85.29 637.38 63.18 638.96 63.46 623.21 85.54 622.74 85.29 637.38"/><path class="acc224ba-5f5d-42e9-a931-051ce7cc92af" d="M85.45,649.32c-.48.14-52.8,0-52.8,0S30.39,641.54,38,641s14.33-.27,20.93-9c0,0,1.12-2,6.27-2H75s3.38.94,3.38,4c.65.54.33,1.88,3.06,1.88a22.1,22.1,0,0,0,4-.27Z"/><rect class="bc26b81d-a404-4efa-839e-2136d792a63e" x="124.01" y="625.34" width="19.25" height="11.27" transform="translate(267.26 1261.95) rotate(180)"/><path class="acc224ba-5f5d-42e9-a931-051ce7cc92af" d="M124,648.54c.4.13,36,.1,36,.1s1.92-9-4.47-9.17c-3.53-.1-5.8-2.6-9.18-7.41,0,0-.94-1.91-5.28-1.91h-8.27A4.16,4.16,0,0,0,130,634c-.54.51-.27,1.78-2.58,1.78a16.81,16.81,0,0,1-3.38-.25Z"/><path class="ac863895-4fa9-45fe-a70a-a5a9799b6528" d="M46.68,391.37C46.58,392.66,63,630.3,63,630.3s-.62,6.23,9.24,6.23c7.23,0,13.25-.29,13.25-.29s.77-47.27,1.35-81.56c.2-11.23-5-44.4-4.13-53.44s3.87-42.64,9-69.34a198.5,198.5,0,0,0,3.45-48.23s-19.81-4.45-30.36-3.31S46.68,391.37,46.68,391.37Z"/><path class="ff853c1e-bcb6-4ab7-bf0e-e259124cb3b9" d="M74.55,424.9c-.93-.52,6.85,34,10.12,56.37,1.55-14.28,3.89-33.09,7-49.37.29-1.5.56-3,.8-4.45C84.53,426.42,77,426.29,74.55,424.9Z"/><path class="f8d54fd2-1da2-4633-b4f7-cf61d0979089" d="M38.76,220.94a23.67,23.67,0,0,0-10,4.36c-4.52,3.34-11.29,28.47-13.57,32.66S1.88,294.68,2.65,299.63s15.69,18.84,28.05,15.42,15.6-20.35,15.21-19.59S38.76,220.94,38.76,220.94Z"/><path class="bf2c7b56-927e-4f97-8238-476f963020bd" d="M27.09,282.34c-.38,13.88,6.85,20.16,7,21.11.09.47,4.18,1.26,8.36,1.33,2.77-5,3.63-9.73,3.42-9.32-.28.57-4.95-40.54-7.27-61.15C34.58,247.55,27.36,272.38,27.09,282.34Z"/><path class="f8d54fd2-1da2-4633-b4f7-cf61d0979089" d="M85.34,190.24c-2.11,1-13.89,10.58-14.72,11.82s-9.54,18.25-8.92,30.28-3.11,30.9,2.49,41.68S75,285,75.8,284.39s28-33.18,28-33.18l12.45-36.5-1.66-19.08S92.6,186.72,85.34,190.24Z"/><path class="bf2c7b56-927e-4f97-8238-476f963020bd" d="M75.28,197.88a45.94,45.94,0,0,0-4.66,4.18c-.15.22-.59,1.06-1.13,2.14l-1.17,3.26s-.14,13,3.64,13.15c2.93,0,12-14.22,12-14.22S76.09,197.26,75.28,197.88Z"/><path class="bf2c7b56-927e-4f97-8238-476f963020bd" d="M115.7,208.59l-.9-10.38c-.47-.92-.83-1.59-.83-1.59l-7.46,5.24-14,5.18-3.38-.24c.25.2,3.66,16,8.14,15.87s15.8-9.89,16.5-10.45A16.59,16.59,0,0,0,115.7,208.59Z"/><path class="f568d492-a1b5-41aa-960a-5894cce94bb5" d="M87.17,217.19a1.61,1.61,0,1,1-1.61-1.61A1.62,1.62,0,0,1,87.17,217.19Z"/><circle class="f568d492-a1b5-41aa-960a-5894cce94bb5" cx="81.11" cy="234.31" r="1.61"/><path class="f568d492-a1b5-41aa-960a-5894cce94bb5" d="M78.5,254.86a1.61,1.61,0,1,1-1.61-1.61A1.61,1.61,0,0,1,78.5,254.86Z"/><path class="b871c66b-5690-4308-98c4-24d3ce6038ad" d="M78.31,190.73c.58-1.15-5.4,8.56-5.4,8.56s-4.47,19.35-.53,19.5,7.68-11.5,10.48-12.2a13.86,13.86,0,0,1,5.4-.17v-2.65s-5.61,0-7.15-1.82S77.89,191.57,78.31,190.73Z"/><path class="b871c66b-5690-4308-98c4-24d3ce6038ad" d="M110.28,187.24c0,.56-.06,4.77-.67,5.73-5.42,8.56-21.35,10.8-21.35,10.8s-.4,2.81,0,2.65c4,.7,7.19,15,9.6,14.86,3.61-.23,12-8.39,12.86-9.8s3.85-4.83,3.61-10.94A41.61,41.61,0,0,0,112.11,188C111.4,186.24,110.28,187.24,110.28,187.24Z"/><path class="ac863895-4fa9-45fe-a70a-a5a9799b6528" d="M80.12,427.25s20.75,66.07,28.18,92.19c10.81,38,15.71,117.17,15.71,117.17h19.25c5.9,0,4.5-8.07,4.5-8.07s.75-66.92-1.85-85.49c-2.45-17.48-10.74-44.93-10.74-44.93l-9.43-100.67L124,375.74l-77.36,3.75,2.11,36.62S65.9,429.41,80.12,427.25Z"/><path class="ff853c1e-bcb6-4ab7-bf0e-e259124cb3b9" d="M71,390.65a.85.85,0,0,1-.85-.85v-.68a.86.86,0,1,1,1.71,0v.68A.85.85,0,0,1,71,390.65Z"/><path class="ff853c1e-bcb6-4ab7-bf0e-e259124cb3b9" d="M74.41,418.4a3.5,3.5,0,0,1-1.76-.46.85.85,0,0,1-.32-1.16.84.84,0,0,1,1.17-.32,1.7,1.7,0,0,0,.9.23.86.86,0,0,1,.86.85A.85.85,0,0,1,74.41,418.4Zm-3.17-3.23a.84.84,0,0,1-.82-.65,9.28,9.28,0,0,1-.26-1.51.84.84,0,0,1,.76-.92.8.8,0,0,1,.93.76,10.52,10.52,0,0,0,.22,1.26.84.84,0,0,1-.62,1A.76.76,0,0,1,71.24,415.17ZM71,410.28a.85.85,0,0,1-.85-.85V408a.86.86,0,1,1,1.71,0v1.4A.85.85,0,0,1,71,410.28Zm0-4.9a.85.85,0,0,1-.85-.85v-1.41a.86.86,0,1,1,1.71,0v1.41A.85.85,0,0,1,71,405.38Zm0-4.91a.85.85,0,0,1-.85-.86v-1.4a.86.86,0,0,1,1.71,0v1.4A.85.85,0,0,1,71,400.47Zm0-4.91a.85.85,0,0,1-.85-.85v-1.4a.86.86,0,1,1,1.71,0v1.4A.85.85,0,0,1,71,395.56Z"/><path class="ff853c1e-bcb6-4ab7-bf0e-e259124cb3b9" d="M78.63,418.4H78a.86.86,0,1,1,0-1.71h.65a.86.86,0,0,1,0,1.71Z"/><path class="ff853c1e-bcb6-4ab7-bf0e-e259124cb3b9" d="M122.53,409.82H112.7c-3.42,0-6.42-4.92-6.42-7.9V389.47a.85.85,0,1,1,1.7,0v12.45c0,2.39,2.58,6.19,4.72,6.19h9.83a.86.86,0,0,1,0,1.71Z"/><path class="ff853c1e-bcb6-4ab7-bf0e-e259124cb3b9" d="M78.63,418.4a.85.85,0,0,1-.85-.86v-35.1a.85.85,0,1,1,1.7,0v35.1A.85.85,0,0,1,78.63,418.4Z"/><path class="ff853c1e-bcb6-4ab7-bf0e-e259124cb3b9" d="M125.74,397.45,124,375.74l-77.36,3.75.68,22.58c3.64.31,15.66,2,16.72,1.83,3.35-.48,6.67-2.88,7.73-5.78s2.08-9.07,3.5-9.07,6.35,8.77,7.37,10.58,5.24,4.39,12.45,4.27C101.76,403.79,125.74,397.45,125.74,397.45Z"/><path class="b7ba881c-bc98-4e88-8f32-89018072fb56" d="M34.67,222.85c-7,26.46-2.06,45.59-.47,48.83s13,24.22,13.46,52.06c.19,12.52-2,50.84-1.82,59.16.13,6.66.45,12,.19,12.44,7.12,0,11.24,1.83,19,1.38,2.94-.18,5.88-1.65,6.79-5.32.73-3,1.08-9.36,2.77-9.67s2.47,3.18,6.56,10.1a9.14,9.14,0,0,0,7.29,4.73c10.42.39,38.33-5,38.33-5s-2-7.58-1-14.3,1.62-6.94,1.57-14.09c-.12-14.3-3.31-22.11-2.43-40,1.69-34.15,18-39,24.79-53.94S165.24,236,158.2,219c-11.81-5.48-32-13.6-35.33-16.13,0,0-4.58-2.76-9.71-10.82,0,.28,2.5,10.26.56,16.5-11.39,36.62-37.2,63-38.71,63.5-.94-1.26-14.12-19.54-8.44-52.4,1.6-9.25,6.76-20.73,6.34-20.31a44.34,44.34,0,0,1-11.33,10.18C61,210,35.19,220.87,34.67,222.85Z"/><path class="b5ce5bed-8341-49d4-973f-edf3d6825a3e" d="M75.31,375.52h0a.86.86,0,0,1-.85-.86l.48-90.28a.86.86,0,0,1,.86-.85h0a.86.86,0,0,1,.84.86l-.48,90.28A.86.86,0,0,1,75.31,375.52Z"/><path class="f02665a0-45d4-4846-88cb-b421500e3eef" d="M73.33,280.4h-.07a.84.84,0,0,1-.58-.36c-19.61-27.58-11.52-68-11.43-68.4a.82.82,0,0,1,1-.67.85.85,0,0,1,.66,1c-.08.4-7.92,39.67,10.84,66.63,3.56-1.55,30.79-21.5,45.82-69.22a.88.88,0,0,1,1.07-.56.85.85,0,0,1,.56,1.07C105.84,258.65,76.5,280.4,73.33,280.4Z"/><path class="f02665a0-45d4-4846-88cb-b421500e3eef" d="M129.55,259.34h0a.86.86,0,0,1-.82-.89c1.24-28.56,16.36-41.39,17-41.92a.85.85,0,1,1,1.09,1.31c-.15.13-15.18,12.93-16.38,40.68A.86.86,0,0,1,129.55,259.34Z"/><path class="f02665a0-45d4-4846-88cb-b421500e3eef" d="M37.72,267.32a.86.86,0,0,1-.81-.57,64.55,64.55,0,0,1,.53-43.43.86.86,0,0,1,1.12-.44A.85.85,0,0,1,39,224a62.72,62.72,0,0,0-.49,42.18.85.85,0,0,1-.52,1.09A.92.92,0,0,1,37.72,267.32Z"/><path class="b5ce5bed-8341-49d4-973f-edf3d6825a3e" d="M127.31,308.6c-12.62-3.29-31.41-8.14-31.41-8.14L46,312.87c.46,3.75,1.46,7.49,1.52,11.41a185.39,185.39,0,0,1-.34,19.34c11.73,4.51,24.59,5.17,31.78,3.26,17.72-4.69,10.09-7.13,12.66-10.08s12.9-1.8,15.61-5.11,10.95,3.34,17.68,5.43c-.19-4.85-.22-9.57-.06-14A64.41,64.41,0,0,1,127.31,308.6Z"/><path class="f8d54fd2-1da2-4633-b4f7-cf61d0979089" d="M155.25,217.69c5.54-1,15.44,4.3,17,17.4,2.8,23.06-16.84,74.06-24.25,82.62s-10.84,10.08-12.93,10.65-22.63-17.3-19.21-24.53,6.09-25.48,16.55-41.64c.19-2.29,7.75-27.88,12.36-35.56C148.59,220.29,149.71,218.73,155.25,217.69Z"/><path class="bc26b81d-a404-4efa-839e-2136d792a63e" d="M84.33,329.88s12-2.11,16.76-2.49,11.38-7.59,11.38-7.59l13.72-24.36s5.13-6.69,6.67-9c1.13-1.74.3-4.16-1.29-2.49-.7.74-5.41,5.09-5.41,5.09s5.37-8.26,5.8-10a2.05,2.05,0,0,0-.75-2.55c-.16-.08-.81.19-1,.29-.37.25,0-.87,0-1a1.18,1.18,0,0,0-1.64-1.1,35.17,35.17,0,0,0-4.05,4.13s2-2.37,1.61-3.13a1.37,1.37,0,0,0-2.23-.26c-.31.31-6,5.54-6,5.54s-10.84,14.89-11.17,15.67c-.58,1.34-6.66,13.7-14.27,15.22S84.33,329.88,84.33,329.88Z"/><path class="eebe43da-9b75-4a05-bd49-2b11925c845c" d="M99.69,307.23c-2.11,2.22-4.55,4.06-7.19,4.59a6.18,6.18,0,0,0-3.29,1.95l-4,16.08c2.83-.09,12.1-1.52,16.08-1.84,4.76-.38,11.17-8.21,11.17-8.21l4.35-7.73Z"/><path class="f8d54fd2-1da2-4633-b4f7-cf61d0979089" d="M82.23,331.4l6.28.76s4-19.39,3.23-19.39-8.17-1.71-8.17-.57S82.23,331.4,82.23,331.4Z"/><path class="f8d54fd2-1da2-4633-b4f7-cf61d0979089" d="M60.15,308.59l7.63-15.79s44.88-2.85,59.9-1.14c3-.38,18.64,1.14,18.64,1.14s4.94,12.55,2.09,18.64-9.89,15.4-13.31,16.92-44.69-9.13-55.91-14.07S60.15,308.59,60.15,308.59Z"/><polygon class="f8d54fd2-1da2-4633-b4f7-cf61d0979089" points="55.61 304.02 62.08 293.33 67.78 292.8 61.03 309.14 60.37 309.73 54.28 308.01 55.61 304.02"/><path class="bc26b81d-a404-4efa-839e-2136d792a63e" d="M43,294.4c5.37-1.56,15.16.17,19-1.07l-7.42,13.73-12.09-7.22C41.29,299,33.2,297.25,43,294.4Z"/><path class="f8d54fd2-1da2-4633-b4f7-cf61d0979089" d="M84.71,316.19c-.57,1.14-.76,15.42-.76,15.42s-61.77-5.25-77.32-18.25c-4.41-3.69-4.5-14.91-3.36-17.76s12.79-5.84,26.1-2.23,30.05,11.22,32.9,12.55S84.71,316.19,84.71,316.19Z"/><path class="bf2c7b56-927e-4f97-8238-476f963020bd" d="M144.56,295.46a.56.56,0,0,1-.25,0c-6.15-2.78-16.15-3.47-17.36-3.47a.59.59,0,0,1-.59-.6.58.58,0,0,1,.59-.59c1.31,0,11.42.66,17.85,3.57a.6.6,0,0,1-.24,1.14Z"/><path class="bf2c7b56-927e-4f97-8238-476f963020bd" d="M142.07,301.47a.58.58,0,0,1-.39-.15c-1.74-1.52-10.54-8.23-13.46-9.2a.6.6,0,0,1,.37-1.14c3.33,1.11,12.38,8.13,13.88,9.44a.6.6,0,0,1-.4,1.05Z"/><path class="bc26b81d-a404-4efa-839e-2136d792a63e" d="M76.75,171.61s.78,21.76.39,22.49.8,11,10.57,11.39c15,.54,23.85-12.94,23.85-12.94L110.91,174s-5.24-15.17-16.31-14.44S77.14,167.78,76.75,171.61Z"/><path class="eebe43da-9b75-4a05-bd49-2b11925c845c" d="M111.4,188.14,111,175.87l-34.08-.1c0,.11,0,.25,0,.36.12,3.83.28,9.27.33,13.18v.1c4.19,4.26,13.45,8,20.92,7.08C106.41,195.5,111.4,188.14,111.4,188.14Z"/><path class="a065108e-0286-4263-a62d-288e48b0ee76" d="M117.67,160.53c.36,0,2.12.42,4-2.54s4-9.72,2.68-14.23-6.34,2.68-6.63,3.24C117.6,147,117.67,160.53,117.67,160.53Z"/><path class="a065108e-0286-4263-a62d-288e48b0ee76" d="M72.49,160c-.35,0-2.18,1.05-3.56-2.15-1.46-3.39-4-9.45-2.4-14,1.31-3.67,5.23.6,6.22,3.78C72.82,147.58,72.49,160,72.49,160Z"/><path class="bc26b81d-a404-4efa-839e-2136d792a63e" d="M95,193.3c-4,.19-21.39-11.13-22.93-22.38-.76-5.59.26-22.23,0-23s-1.74-2.05-1.74-2.05-.14-22.48,1.72-25.58,8.11-14,22.35-14h1.7c14.24,0,21,10.94,22.91,14s1.65,24.35,1.65,24.35a28.63,28.63,0,0,0-2.68,4.13c-.21.83.43,16.77-.33,22.36-1.54,11.25-18.35,22.41-22.37,22.22Z"/><path class="a4b6561c-de33-4917-bb65-a5b43a7b2516" d="M119.07,120.24c-1.86-3.09-8.67-14-22.91-14h-1.7c-14.24,0-20.5,10.94-22.35,14s-1.72,25.58-1.72,25.58S71.58,153.2,72,154c.2-2.29,0-14.51,0-14.51s2.43-1.34,2.41-7.49c0-8.22,1.14-11.71,1.14-11.71s2.4-7.08,6.51-7.53c2.85-.46,6.3,2.43,13.6,2.43l.89-.15c7.3,0,10.72-2.74,13.57-2.28,4.11.45,6.51,7.53,6.51,7.53a109.45,109.45,0,0,1,.34,12.2c-.12,8.22,1.46,6.57,1.46,6.57s-.32,7.35-.34,7.95c0,0-.12,6.25,0,6.85.72-1.26,2.58-9.26,2.58-9.26S120.92,123.34,119.07,120.24Z"/><path class="f343f07d-8087-4fac-bf01-9608f0ec544a" d="M90.71,185.41a2.59,2.59,0,0,1,.28-.34l.35-.35a6.08,6.08,0,0,1,.51-.4l.31-.21.35-.19c.12-.07.26-.12.39-.18s.27-.12.41-.16a5.27,5.27,0,0,1,.91-.23,3.93,3.93,0,0,1,.48-.06l.49,0a2.68,2.68,0,0,1,.49,0l.48.05c.31.06.61.15.91.23l.8.34a4.62,4.62,0,0,1,.66.4,3.16,3.16,0,0,1,.52.37l.37.34a3.29,3.29,0,0,1,.3.3l-.4-.17-.44-.19a4.49,4.49,0,0,0-.57-.23l-.33-.12a1.8,1.8,0,0,0-.35-.12l-.76-.21-.83-.14-.42,0a3.09,3.09,0,0,0-.43,0h-.43c-.14,0-.28,0-.42,0a7.19,7.19,0,0,0-.83.13c-.13,0-.25.08-.38.1s-.26.06-.38.11-.46.16-.67.25-.39.17-.56.24-.32.15-.43.22l-.28.15Z"/><path class="b92856ed-b65b-4094-91d1-4c52724c1e69" d="M95.48,164a3.9,3.9,0,0,0,2.67-.83l4.49.25s3.33-.84,3.62-1c.21-1.82-2.87-4.33-3-4.33s-4.66-5.83-7.33-5.83h-.83c-2.66,0-7.24,5.83-7.33,5.83s-3.15,2.51-2.95,4.33c.29.16,3.62,1,3.62,1l4.5-.25a3.86,3.86,0,0,0,2.66.83Z"/><path class="f343f07d-8087-4fac-bf01-9608f0ec544a" d="M103.31,161.28l-.74.09c-.48.07-1.15.15-1.94.31a5.09,5.09,0,0,0-1.16.38l-.06,0-.06,0-.13.1-.11.1-.12.12-.51.55a4.6,4.6,0,0,1-1.35,1c-.14.07-.28.11-.42.17l-.44.11a5.28,5.28,0,0,1-.9.1,3.46,3.46,0,0,1-.43,0l-.24,0-.22-.05a3.49,3.49,0,0,1-.85-.33,5.36,5.36,0,0,1-1.29-1.08,4.62,4.62,0,0,0-1-.92l-.27-.1-.3-.08c-.2-.05-.41-.09-.6-.12-.8-.12-1.48-.17-2-.2l-.75,0,.74-.12c.24,0,.53-.06.86-.08s.72,0,1.14,0c.21,0,.43,0,.66.05l.35.06a2.52,2.52,0,0,1,.39.12l.16.07h0l0,0,0,0,.09.06a3.81,3.81,0,0,1,.32.24c.21.17.38.35.57.52a5,5,0,0,0,1.15.89,2.64,2.64,0,0,0,.66.25l.17,0,.16,0c.1,0,.25,0,.39,0a3.5,3.5,0,0,0,1.4-.28,3.79,3.79,0,0,0,.62-.35,6,6,0,0,0,.55-.47c.18-.17.36-.35.56-.52l.15-.13.17-.13.16-.1,0,0h0l0,0h0l.1-.05a4.41,4.41,0,0,1,1.37-.3,14.56,14.56,0,0,1,2,0C103,161.24,103.31,161.28,103.31,161.28Z"/><path class="f343f07d-8087-4fac-bf01-9608f0ec544a" d="M87.8,158.09l-.46.5-.44.51-.21.25c-.06.09-.13.17-.2.26s-.25.35-.37.52l-.17.27a2.54,2.54,0,0,0-.16.28c0,.09-.1.18-.14.27l-.12.28-.1.29a1.43,1.43,0,0,0-.07.28,1.6,1.6,0,0,0,0,.29l0,.29,0-.18h0l0,0,.15.08a3.91,3.91,0,0,0,.41.15l.93.26c.31.09.63.18,1,.29a5.29,5.29,0,0,1,.92.39l-1,0-1-.06c-.33,0-.66-.06-1-.12a5.18,5.18,0,0,1-.53-.14,1.53,1.53,0,0,1-.29-.14l-.16-.12a1,1,0,0,1-.16-.2l-.05-.08v-.11c0-.12,0-.25,0-.38a1.51,1.51,0,0,1,.06-.37,1.36,1.36,0,0,1,.1-.36l.12-.35.17-.33a3.21,3.21,0,0,1,.19-.31,2.23,2.23,0,0,1,.2-.3c.08-.09.15-.19.23-.27s.32-.35.49-.51l.27-.22a1.86,1.86,0,0,1,.28-.21,5.79,5.79,0,0,1,.58-.38A5,5,0,0,1,87.8,158.09Z"/><path class="f343f07d-8087-4fac-bf01-9608f0ec544a" d="M103.18,158.09a4.43,4.43,0,0,1,.62.3,5.79,5.79,0,0,1,.58.38l.28.21c.09.08.18.14.27.23s.17.15.25.24l.24.26c.08.08.15.18.23.27l.2.3a2,2,0,0,1,.19.31l.17.33a3.62,3.62,0,0,1,.13.35c0,.11.07.24.1.36a2.2,2.2,0,0,1,.06.37l0,.38v.11l0,.08a1.73,1.73,0,0,1-.17.21l-.16.12a1.46,1.46,0,0,1-.28.14l-.27.11-.27.08a7.76,7.76,0,0,1-1,.2,4.57,4.57,0,0,1-.52,0,4.71,4.71,0,0,1-.53,0c-.17,0-.35,0-.53,0a4.57,4.57,0,0,1-.52,0l1-.31.5-.15.48-.16c.33-.1.65-.2.95-.32l.23-.09.2-.1.17-.1,0,0h0l0,.18,0-.29c0-.09,0-.19-.05-.29s0-.19-.08-.28l-.09-.29-.13-.28a2.43,2.43,0,0,0-.14-.28,1.82,1.82,0,0,0-.15-.27l-.17-.27a6.28,6.28,0,0,0-.38-.52c-.06-.09-.13-.17-.2-.26a2.39,2.39,0,0,0-.21-.26C103.8,158.76,103.5,158.43,103.18,158.09Z"/><path class="f343f07d-8087-4fac-bf01-9608f0ec544a" d="M90.68,157.11l.06-.2.12-.57c.09-.5.23-1.2.39-2.05s.34-1.83.53-2.88c.1-.53.2-1.07.29-1.63s.2-1.11.28-1.67c0-.28.09-.56.12-.84s.07-.56.09-.83l0-.41c0-.13,0-.26,0-.39a2.22,2.22,0,0,0,0-.37l0-.17a.65.65,0,0,0,0-.19,12.89,12.89,0,0,0-.38-1.46,6.68,6.68,0,0,0-.56-1.2,9.17,9.17,0,0,0-.68-.92c-.23-.25-.44-.48-.62-.65l-.42-.41-.15-.14.18.11.5.31a6.55,6.55,0,0,1,.73.56A6.3,6.3,0,0,1,92,142a5.83,5.83,0,0,1,.75,1.25,11.64,11.64,0,0,1,.51,1.51c0,.07,0,.12.06.2l0,.23a2.58,2.58,0,0,1,0,.46c0,.15,0,.29,0,.44l0,.44c0,.29,0,.58-.08.87s-.07.57-.11.86c-.09.58-.2,1.14-.31,1.7s-.24,1.1-.36,1.63-.26,1-.4,1.51-.26.93-.39,1.34c-.26.82-.5,1.51-.69,2-.09.23-.18.42-.24.54Z"/><path class="a4b6561c-de33-4917-bb65-a5b43a7b2516" d="M100.19,138.09l.15.19c.42.52,1.6,1.95,2.14,1.95s6.29-3.4,7.48-3.33,2.37,1.41,3.62,1.56,2.22,1.77,2.59,1.62-2.72-4.77-5.75-5.51c-1.75-.43-4.61.19-6.87,1.15l-1,.43c-.23.12-.44.23-.64.35s.18,1.24,0,1.35-.91-.76-1.07-.63A2.5,2.5,0,0,0,100.19,138.09Z"/><path class="f568d492-a1b5-41aa-960a-5894cce94bb5" d="M103.55,144.79c0,.2-.63,2-.15,2.79.89,1.45,3.67,1.63,5.29,1.4s3.27-.55,3.83-2.13a4.34,4.34,0,0,0-1.19-4,5.7,5.7,0,0,0-4.5-1A4.28,4.28,0,0,0,103.55,144.79Z"/><path class="a4b6561c-de33-4917-bb65-a5b43a7b2516" d="M111.32,146.1a3.43,3.43,0,0,1-1.22,2.64c-.61.52-4.13.5-4.76-.17a3.73,3.73,0,0,1-1-2.47,3.47,3.47,0,0,1,6.94,0Z"/><path class="f343f07d-8087-4fac-bf01-9608f0ec544a" d="M103.14,147.22c.14-1.14,1.09-4,5-4,3.68,0,5.1,4.31,5.1,4.31a6,6,0,0,0,0-3.25c-.5-2.06-2.77-3.33-5.27-3.33s-5.13,2.17-5.69,6.5A5.11,5.11,0,0,0,103.14,147.22Z"/><path class="f343f07d-8087-4fac-bf01-9608f0ec544a" d="M102.5,148.3a6.71,6.71,0,0,0,5.72,2.55c3.94,0,5.14-2.77,5.18-4-.17-.17-.79-1.57-.79-1s.21,4-4.62,4c-3.44,0-4.81-1.6-4.81-1.6Z"/><path class="a4b6561c-de33-4917-bb65-a5b43a7b2516" d="M89.83,138.11c-.42.53-1.38,2.12-1.93,2.12s-5.49-3.6-8-3.52c-1.19,0-5.35,3.52-5.72,3.37s2.36-4.77,5.39-5.51c2-.5,5.78.43,8.24,1.66.12.06-.13,1.19,0,1.25s.63-.93.75-.86l.47.29c.08.06-.14.84-.06.9s.49-.58.58-.5A.75.75,0,0,1,89.83,138.11Z"/><path class="f568d492-a1b5-41aa-960a-5894cce94bb5" d="M86.84,144.79c0,.2.63,2,.14,2.79-.88,1.45-3.66,1.63-5.28,1.4s-3.27-.55-3.83-2.13a4.36,4.36,0,0,1,1.18-4,5.74,5.74,0,0,1,4.51-1A4.28,4.28,0,0,1,86.84,144.79Z"/><path class="a4b6561c-de33-4917-bb65-a5b43a7b2516" d="M79.07,146.1a3.43,3.43,0,0,0,1.22,2.64c.6.52,4.12.5,4.76-.17a3.73,3.73,0,0,0,1-2.47,3.47,3.47,0,0,0-6.94,0Z"/><path class="f343f07d-8087-4fac-bf01-9608f0ec544a" d="M87.24,147.22c-.14-1.14-1.08-4-5-4-3.79.07-5.15,4-5.15,4s-.46-.39-.12-2.77c.3-2.09,3-3.47,5.49-3.47s5.13,2.17,5.69,6.5A5.23,5.23,0,0,1,87.24,147.22Z"/><path class="f343f07d-8087-4fac-bf01-9608f0ec544a" d="M87.88,148.3a6.69,6.69,0,0,1-5.72,2.55c-3.94,0-5.13-2.77-5.17-4,.16-.17.79-1.57.79-1s-.21,4,4.61,4c3.44,0,4.82-1.6,4.82-1.6Z"/><path class="a9fcbd33-2911-47f9-a86f-94592c13b763" d="M95.28,171l-13.35-2.34s2.55,6,5.62,8.14,11.68,3.87,16.49-.27,6.5-6.93,6.5-6.93l-.22-1-12,2.42Z"/><path class="b828a793-6b08-49ed-ac21-74dbbe160b7f" d="M85.09,169.27a25.44,25.44,0,0,0,.73,2.57,11.25,11.25,0,0,0,2,1.34l-1.63-.35.3,2.29s4.27,3.83,9.69,3.69a14.93,14.93,0,0,0,9-3.47,19.59,19.59,0,0,0,.38-2.93c-.14,0-1.83.51-1.83.51l2.23-1.55.51-2s-9.67,1.54-11.06,1.52S85.09,169.27,85.09,169.27Z"/><path class="f3f0efa5-8423-4d9f-9eb2-ce73ddf75285" d="M94.88,182.08C84.37,181.93,80,168.19,80,168.19s2.43.66,2.69.66,3.94,8.9,12.13,9.17c7.75.25,14.24-8.63,14.32-8.9a12,12,0,0,1,2.72-1S105.45,182.23,94.88,182.08Z"/><path class="b5b9a85d-aefc-4e0d-b097-54bf710f334a" d="M80.05,168.21a21.29,21.29,0,0,0,5.69,2.35,44.07,44.07,0,0,0,9.53.77c3,0,6.5.35,9.26-.39a38.74,38.74,0,0,0,7.29-2.81,50.07,50.07,0,0,1-13.41,0c-1.28-.18-3,1.85-3,1.85s-2.2-2.37-3.47-2.24C86.08,168.3,80.05,168.21,80.05,168.21Z"/><path class="e9f303ea-270f-45f1-bafb-95e342dacfc6" d="M89.41,173.31a29.29,29.29,0,0,0,5.71.55,6.25,6.25,0,0,0,.36-1.43,7.29,7.29,0,0,0,.3,1.43,29.46,29.46,0,0,0,6.23-.75C101.94,173.26,95.29,176.46,89.41,173.31Z"/><circle class="ae229990-fef8-4718-9a33-b8b1f2a63a40" cx="297.81" cy="121.97" r="37.97"/><circle class="ae229990-fef8-4718-9a33-b8b1f2a63a40" cx="251.52" cy="375" r="37.97"/><path class="b5b5b3c8-c1c9-465c-8563-a62eb6fe4a42" d="M241.31,362.42a.65.65,0,0,1-.09-1.29l33.84-4.66a.64.64,0,0,1,.73.56.65.65,0,0,1-.55.73l-33.84,4.66Z"/><path class="b5b5b3c8-c1c9-465c-8563-a62eb6fe4a42" d="M242.32,369.79a.65.65,0,0,1-.09-1.29l33.84-4.66a.65.65,0,0,1,.74.55.65.65,0,0,1-.56.74l-33.84,4.65Z"/><path class="b5b5b3c8-c1c9-465c-8563-a62eb6fe4a42" d="M241.82,366.11a.66.66,0,0,1-.65-.57.65.65,0,0,1,.56-.73l30.63-4.21a.65.65,0,0,1,.18,1.28l-30.63,4.22Z"/><path class="b5b5b3c8-c1c9-465c-8563-a62eb6fe4a42" d="M244.75,387.46a.65.65,0,0,1-.08-1.3l33.83-4.65a.64.64,0,0,1,.74.55.65.65,0,0,1-.56.74l-33.84,4.65Z"/><path class="b5b5b3c8-c1c9-465c-8563-a62eb6fe4a42" d="M244.25,383.78a.66.66,0,0,1-.65-.57.65.65,0,0,1,.56-.73l30.63-4.21a.63.63,0,0,1,.73.55.65.65,0,0,1-.55.73l-30.63,4.22Z"/><path class="b5b5b3c8-c1c9-465c-8563-a62eb6fe4a42" d="M245.26,391.14a.64.64,0,0,1-.64-.56.65.65,0,0,1,.55-.73l30.63-4.22a.65.65,0,1,1,.18,1.29l-30.63,4.22Z"/><path class="b5b5b3c8-c1c9-465c-8563-a62eb6fe4a42" d="M230.6,373.88a6.89,6.89,0,0,1-6.8-5.94,6.88,6.88,0,1,1,7.75,5.88A7.69,7.69,0,0,1,230.6,373.88Zm0-12.46a5,5,0,0,0-.77.05,5.58,5.58,0,1,0,6.29,4.77h0A5.58,5.58,0,0,0,230.62,361.42Z"/><path class="b5b5b3c8-c1c9-465c-8563-a62eb6fe4a42" d="M230.42,368.35a2.76,2.76,0,1,1,2.73-3.14h0a2.76,2.76,0,0,1-2.35,3.11Zm0-4.22h-.2a1.42,1.42,0,0,0-1,.57,1.48,1.48,0,0,0-.28,1.08,1.4,1.4,0,0,0,.57,1,1.44,1.44,0,0,0,1.08.29,1.46,1.46,0,0,0,1.25-1.65h0A1.46,1.46,0,0,0,230.42,364.13Z"/><path class="b5b5b3c8-c1c9-465c-8563-a62eb6fe4a42" d="M227.06,372.66a.64.64,0,0,1-.65-.62,4.87,4.87,0,0,1,9.6-1.36.65.65,0,1,1-1.26.31,3.57,3.57,0,0,0-7,1,.65.65,0,0,1-.62.67Z"/><path class="b5b5b3c8-c1c9-465c-8563-a62eb6fe4a42" d="M233.54,395.23a6.88,6.88,0,1,1,6.83-7.82h0a6.89,6.89,0,0,1-5.88,7.76A7.69,7.69,0,0,1,233.54,395.23Zm0-12.46a4.93,4.93,0,0,0-.76.05,5.59,5.59,0,0,0-4.77,6.29,5.58,5.58,0,0,0,6.29,4.77,5.59,5.59,0,0,0,4.77-6.29h0A5.59,5.59,0,0,0,233.55,382.77Z"/><path class="b5b5b3c8-c1c9-465c-8563-a62eb6fe4a42" d="M233.35,389.7a2.77,2.77,0,0,1-2.73-2.38,2.76,2.76,0,0,1,5.47-.76h0a2.77,2.77,0,0,1-2.36,3.12Zm0-4.22h-.2a1.46,1.46,0,0,0-1.25,1.65,1.45,1.45,0,0,0,.56,1,1.52,1.52,0,0,0,1.09.28,1.46,1.46,0,0,0-.2-2.91Z"/><path class="b5b5b3c8-c1c9-465c-8563-a62eb6fe4a42" d="M230,394a.64.64,0,0,1-.65-.62A4.87,4.87,0,0,1,239,392a.65.65,0,0,1-1.26.31,3.57,3.57,0,0,0-7,1,.65.65,0,0,1-.63.67Z"/><circle class="ae229990-fef8-4718-9a33-b8b1f2a63a40" cx="398.53" cy="266.05" r="37.97"/><rect class="b5b5b3c8-c1c9-465c-8563-a62eb6fe4a42" x="373.68" y="247.06" width="49.69" height="37.97" rx="3.26" transform="translate(45.55 -58) rotate(8.83)"/><path class="ae229990-fef8-4718-9a33-b8b1f2a63a40" d="M389.29,273.08a1.19,1.19,0,0,0,.08.16,1.55,1.55,0,0,0,1.12.62c.23,0,1.16,0,3.58-1.53.47-.3.91-.61,1.28-.88a.28.28,0,0,0-.22-.51,14.62,14.62,0,0,1-2.06.26,9.61,9.61,0,0,1-2.11-.08,6.46,6.46,0,0,1-1-.25,4.29,4.29,0,0,1-2.69-2.26.66.66,0,0,1,0-.58.92.92,0,0,1,1.67-.11,2.57,2.57,0,0,0,1.57,1.24,6.89,6.89,0,0,0,2.51.24,14.23,14.23,0,0,0,3.33-.6.89.89,0,0,1,.36,0,.28.28,0,0,0,.3-.25l0-.18a.29.29,0,0,0-.36-.3,16.47,16.47,0,0,1-3.14.5,9.52,9.52,0,0,1-2.1-.08,6.58,6.58,0,0,1-1.06-.25,4.27,4.27,0,0,1-2.68-2.26.66.66,0,0,1,0-.58.93.93,0,0,1,1.68-.11,2.5,2.5,0,0,0,1.57,1.23,6.79,6.79,0,0,0,2.5.25,15.72,15.72,0,0,0,3.34-.6.67.67,0,0,1,.24,0,.3.3,0,0,0,.27-.26v-.13a.29.29,0,0,0-.35-.31,16.34,16.34,0,0,1-3,.47,11,11,0,0,1-2.11-.08,7.69,7.69,0,0,1-1.05-.25,4.32,4.32,0,0,1-2.69-2.26.68.68,0,0,1,0-.59.92.92,0,0,1,1.67-.1,2.56,2.56,0,0,0,1.57,1.23,7.09,7.09,0,0,0,2.51.25,15.54,15.54,0,0,0,3.33-.6.31.31,0,0,1,.13,0,.3.3,0,0,0,.23-.26l0-.11a.29.29,0,0,0-.35-.3,16.31,16.31,0,0,1-2.85.43,10.13,10.13,0,0,1-2.1-.09,7.87,7.87,0,0,1-1.06-.24,4.31,4.31,0,0,1-2.68-2.27.66.66,0,0,1,0-.58.93.93,0,0,1,1.68-.1,2.53,2.53,0,0,0,1.57,1.23,7,7,0,0,0,2.5.25,14.71,14.71,0,0,0,3.34-.61h0a.3.3,0,0,0,.21-.26v-.09a.29.29,0,0,0-.35-.31,16.45,16.45,0,0,1-2.69.4,10.23,10.23,0,0,1-2.11-.09,6.46,6.46,0,0,1-1.05-.25,4.29,4.29,0,0,1-2.69-2.26.66.66,0,0,1,0-.58.92.92,0,0,1,1.67-.11,2.57,2.57,0,0,0,1.57,1.24,7.09,7.09,0,0,0,2.51.25l.75-.07a.28.28,0,0,0,.11-.53,9.36,9.36,0,0,1-2.76-2.33.67.67,0,0,1-.14-.56.93.93,0,0,1,1.62-.48,7,7,0,0,0,3.4,2.31l.3.08a.29.29,0,0,0,.32-.16,1.16,1.16,0,0,1,1.24-.72l1.17.18a1.16,1.16,0,0,1,1,1.07.28.28,0,0,0,.26.24l.39,0a7.15,7.15,0,0,0,4-1.24.71.71,0,0,1,.6-.08.92.92,0,0,1,.26,1.67,9.37,9.37,0,0,1-3.19,1.3.29.29,0,0,0-.07.54c.23.1.48.21.73.3a6.75,6.75,0,0,0,2.44.51,2.52,2.52,0,0,0,1.94-.77.62.62,0,0,1,.55-.22.92.92,0,0,1,.64,1.57,4.3,4.3,0,0,1-3.13,1.23,6.94,6.94,0,0,1-1.08-.09,10.13,10.13,0,0,1-2-.55,15.57,15.57,0,0,1-2.45-1.2.28.28,0,0,0-.42.19l0,.09a.29.29,0,0,0,.12.31h0a14.85,14.85,0,0,0,3,1.59,7.05,7.05,0,0,0,2.45.52,2.52,2.52,0,0,0,1.93-.78.63.63,0,0,1,.55-.22.93.93,0,0,1,.65,1.58,4.35,4.35,0,0,1-3.13,1.22,8.09,8.09,0,0,1-1.08-.08,10.46,10.46,0,0,1-2-.56,16.25,16.25,0,0,1-2.58-1.28.28.28,0,0,0-.42.19l0,.11a.3.3,0,0,0,.15.31.41.41,0,0,1,.11.07,15.8,15.8,0,0,0,3,1.6,7.2,7.2,0,0,0,2.44.51,2.52,2.52,0,0,0,1.94-.78.67.67,0,0,1,.55-.22.93.93,0,0,1,.64,1.58,4.33,4.33,0,0,1-3.13,1.22,6.88,6.88,0,0,1-1.08-.08,10.19,10.19,0,0,1-2-.56,15.76,15.76,0,0,1-2.71-1.35.28.28,0,0,0-.43.18l0,.13a.29.29,0,0,0,.19.33.71.71,0,0,1,.21.11,14.61,14.61,0,0,0,3,1.6,7,7,0,0,0,2.45.51,2.48,2.48,0,0,0,1.93-.78.64.64,0,0,1,.55-.21.93.93,0,0,1,.65,1.57,4.31,4.31,0,0,1-3.13,1.22,5.73,5.73,0,0,1-1.08-.08,10.46,10.46,0,0,1-2-.56,16.75,16.75,0,0,1-2.84-1.43.28.28,0,0,0-.43.18l0,.17a.27.27,0,0,0,.2.33,1,1,0,0,1,.33.15,15.19,15.19,0,0,0,3,1.6,6.75,6.75,0,0,0,2.44.51,2.52,2.52,0,0,0,1.94-.78.63.63,0,0,1,.55-.21.92.92,0,0,1,.64,1.57,4.3,4.3,0,0,1-3.13,1.23,6.94,6.94,0,0,1-1.08-.09,9.56,9.56,0,0,1-2-.56,14.65,14.65,0,0,1-1.89-.87.29.29,0,0,0-.37.42c.28.37.61.8,1,1.23,1.83,2.22,2.71,2.5,2.93,2.54a1.54,1.54,0,0,0,1.33-.31,1.57,1.57,0,0,0,.18-.19.57.57,0,0,1,.63-.19l1,.35a.29.29,0,0,1,.16.4,3.36,3.36,0,0,1-.67.89,3.25,3.25,0,0,1-2.89.83,4.51,4.51,0,0,1-2.19-1.2,17.55,17.55,0,0,1-1.87-2c-.76-.92-1.39-1.8-1.73-2.3a.28.28,0,0,0-.4-.06c-.48.37-1.34,1-2.34,1.67a16.41,16.41,0,0,1-2.39,1.31,4.57,4.57,0,0,1-2.44.49,3.29,3.29,0,0,1-2.51-1.68,3.18,3.18,0,0,1-.36-1.05.28.28,0,0,1,.27-.33l1.18,0a.42.42,0,0,1,.42.29Z"/><path class="b5b5b3c8-c1c9-465c-8563-a62eb6fe4a42" d="M312,103.91,301.88,97l-22.28,4.15a2.89,2.89,0,0,0-2.31,3.36l7.42,39.83a3.21,3.21,0,0,0,3.73,2.57l27.32-5.09a3.23,3.23,0,0,0,2.57-3.74Z"/><polygon class="b524da28-27f1-4543-af7c-df4de684f025" points="301.88 96.99 301.88 96.99 303.46 105.49 311.97 103.91 311.97 103.91 301.88 96.99"/><path class="ae229990-fef8-4718-9a33-b8b1f2a63a40" d="M284.09,120.08a.5.5,0,0,1-.09-1l19.06-3.54a.49.49,0,0,1,.58.4.5.5,0,0,1-.4.58l-19.06,3.55Z"/><path class="ae229990-fef8-4718-9a33-b8b1f2a63a40" d="M283.45,116.62a.49.49,0,0,1-.49-.41.51.51,0,0,1,.4-.59l25.9-4.82a.5.5,0,0,1,.58.4.51.51,0,0,1-.4.59l-25.9,4.82Z"/><path class="ae229990-fef8-4718-9a33-b8b1f2a63a40" d="M284.71,123.39a.5.5,0,0,1-.09-1l25.9-4.82a.5.5,0,1,1,.18,1l-25.9,4.82Z"/><path class="ae229990-fef8-4718-9a33-b8b1f2a63a40" d="M287.75,139.74a.51.51,0,0,1-.28-.09.5.5,0,0,1-.13-.7l2.93-4.27a.5.5,0,1,1,.83.57l-2.93,4.27A.52.52,0,0,1,287.75,139.74Z"/><path class="ae229990-fef8-4718-9a33-b8b1f2a63a40" d="M291.36,139.07a.52.52,0,0,1-.29-.09l-4.27-2.93a.5.5,0,0,1-.13-.7.51.51,0,0,1,.7-.13l4.27,2.94a.5.5,0,0,1,.13.69A.52.52,0,0,1,291.36,139.07Z"/><path class="ae229990-fef8-4718-9a33-b8b1f2a63a40" d="M294.42,138.5a.5.5,0,0,1-.09-1l19.23-3.59a.51.51,0,0,1,.58.4.49.49,0,0,1-.39.59l-19.24,3.58Z"/><circle class="b5b5b3c8-c1c9-465c-8563-a62eb6fe4a42" cx="501.52" cy="544.14" r="89.82"/><g class="fa05021e-42cf-4f94-a879-8403f1157f16"><polygon class="ba544d72-9de1-4b07-b8ce-98ba46011c4a" points="450.43 607.53 454.44 608.23 454.27 604.91 450.33 605.04 450.43 607.53"/><path class="b46ff6d6-7693-4bfc-a3ff-7fb1aa4a710d" d="M450.38,610c.1,0,10.8,0,10.8,0s.36-1.88-1.18-2-4.38,0-4.77-1.63a1.15,1.15,0,0,0-.7-.34,16.3,16.3,0,0,0-2,0,.93.93,0,0,0-.69.83c-.13.11-.06.38-.62.38a5.11,5.11,0,0,1-.83,0Z"/><path class="ba544d72-9de1-4b07-b8ce-98ba46011c4a" d="M458.79,520.88c3.32.21,3.6,7.23,3.36,9.46-.22,2.82-.17,3.19-.21,9.89,0,.44-1.09,3-2.78,3s-3.54-1.6-3.45-2.92-.69-13.68-.69-13.68S454.7,520.62,458.79,520.88Z"/><path class="ba544d72-9de1-4b07-b8ce-98ba46011c4a" d="M459.25,557.77a32.26,32.26,0,0,1,3.33-.67c.06.12.87,4.15,1.09,5.27h0v0c0,.09,0,.16,0,.22a.2.2,0,0,1,0,.13,16.75,16.75,0,0,1-.17,3.63c-.22.73-.49,1.7-.62,1.64a1.09,1.09,0,0,1-.46,0c-.06,0,.08-2.21,0-2.22s-.53,2-.65,2c-.43-.12-.92-.26-1.35-.41-.08,0,.09-1.49,0-1.52s-.38,1.39-.44,1.37l-.39-.18c-.17-.1.23-1.63.22-2.25a13.53,13.53,0,0,0-.59-2.22c-.35-.81-.61-3.34-.07-3.68C459.57,558.61,459.1,557.84,459.25,557.77Z"/><path class="ee1c5217-75d5-4b4e-897b-c103c4d5ed5f" d="M458.9,559.87a.53.53,0,0,0,0-.13h0s0,0,0-.08v-.1h0a.22.22,0,0,1,0-.08v0s0-.05,0-.07v-.24l0,0v0a.75.75,0,0,1,.07-.12.47.47,0,0,1,.1-.1l0,0h0l0,0h0l0-.08h0v0h0a0,0,0,0,0,0,0h0v0h0v0h0v-.09h0v0h0s0,0,0-.07h0s0,0,0-.06h0v-.12a1.58,1.58,0,0,1-.06-.23c0-.06.1-.13.16-.19h1l.29,0a10.89,10.89,0,0,0,.4,2.31,8.87,8.87,0,0,1,1.86,2.65,10.5,10.5,0,0,1-.38,4c0,.09-.07.22-.13.36a6,6,0,0,0,0-1.12c-.1,0-.53,2-.65,2-.43-.12-.92-.26-1.35-.41-.08,0,.09-1.49,0-1.52s-.38,1.39-.44,1.37l-.39-.18c-.17-.1.23-1.63.22-2.25a13.53,13.53,0,0,0-.59-2.22h0v-.16l0-.05h0s0-.08,0-.13h0v-.06h0s0,0,0-.07v0c0-.06,0-.12,0-.17v-.07l0-.15h0l0-.16h0c0-.06,0-.11,0-.17s0-.09,0-.13,0-.1,0-.14,0-.1,0-.15a.76.76,0,0,1,0-.15h0a.71.71,0,0,1,0-.14h0c0-.1,0-.2,0-.29h0v-.42Z"/><path class="ba544d72-9de1-4b07-b8ce-98ba46011c4a" d="M460.65,558c-.15.34,0,2.73.84,3.47.28.25.41.49.39,1.17,0,.29-.21.82-.22,1.09,0,.69,0,1.1.35,1.13s.56-.3.69-1.19.24-1.41.24-1.41a28.62,28.62,0,0,0-.11-3.8C462.62,557.94,461.33,556.45,460.65,558Z"/><path class="ba544d72-9de1-4b07-b8ce-98ba46011c4a" d="M459.15,537.7a2.42,2.42,0,0,1,2.79,2.53l.71,17.16-3.42.53-3.48-15.33S454.83,537.85,459.15,537.7Z"/><path class="a62b1c39-bbdb-4c44-8625-4ba4c6e6c401" d="M458.79,520.88c3.32.21,3.6,7.23,3.36,9.46-.12,1.56.55,2.37.54,3.9h-7.64c-.2-3.66,0-7.57,0-7.57S454.7,520.62,458.79,520.88Z"/><path class="a62b1c39-bbdb-4c44-8625-4ba4c6e6c401" d="M457.7,559.17s-.8,12.6-1,14.3-.9,8.77-1.21,9.28-.45,4.07-3,4-3.28-3.26-3.28-3.26l-.14-25s.09-1,3.2-1.43S457.76,557.57,457.7,559.17Z"/><path class="ae2e66da-ea0a-4735-b6a4-861e30d00952" d="M449.07,558.51s.09-.67,1.8-1.15l1.19,1.08c0,.13-1.84,9.15-2.91,14.41Z"/><path class="a62b1c39-bbdb-4c44-8625-4ba4c6e6c401" d="M455.23,606.41c-.52-3.16.57-24.86.57-24.86s-.09-1.18-2.58-1.59-3.77.58-4,3.23a72,72,0,0,0-.77,7.37A94,94,0,0,0,450,606.22Z"/><path class="a62b1c39-bbdb-4c44-8625-4ba4c6e6c401" d="M447.85,577.91c1.1-5.13,1.56-14.43,2.58-18.92-.21-1.22-2.32-2.75-5.29-2.75a5.51,5.51,0,0,0-4.3,2.52l-.3,23.85s-.81,3.88,2.14,4.28S446.76,583,447.85,577.91Z"/><polygon class="ba544d72-9de1-4b07-b8ce-98ba46011c4a" points="440.62 608.38 445.12 608.38 444.82 604.47 440.62 604.67 440.62 608.38"/><path class="a800ebfe-c06e-41d3-a4a3-2b7ac1a3f68e" d="M440.43,610c.1,0,10.8,0,10.8,0s.65-2-.9-2.15-3.12.39-4.47-1.39c0,0-.23-.41-1.28-.41h-2s-.69.19-.69.82c-.13.11-.06.38-.62.38a5.11,5.11,0,0,1-.83,0Z"/><path class="a62b1c39-bbdb-4c44-8625-4ba4c6e6c401" d="M446.68,582.31c-2.2,8.66-1.6,21-1.56,22.05a6.53,6.53,0,0,0,.54,1.93c-.16.05-5.43.1-5.43.1s-2.24-9.2-1.73-15.73A36.13,36.13,0,0,1,442,578.43S448.33,575.79,446.68,582.31Z"/><path class="bc7acf46-8b14-4dec-b4df-3b8a75497963" d="M441,560.3s6.93.81,9.79.81,6.94-1.94,6.94-1.94l.1-7.48-16.34-.33a19.54,19.54,0,0,0-1,5.4A11.58,11.58,0,0,0,441,560.3Z"/><path class="ae2e66da-ea0a-4735-b6a4-861e30d00952" d="M440.55,555.29a10.61,10.61,0,0,0-.11,1.47,11.61,11.61,0,0,0,.31,2.72H457c.43-.18.7-.31.7-.31l.05-3.88Z"/><path class="b17226b6-24c0-472a-a576-8349046dc233" d="M434.32,520.69l7.44-3.46a13,13,0,0,0,2.69-2.05c.09,0,4.78.06,6.57.29a18.46,18.46,0,0,0,3.49,3.14c0,.19,3.69,1.84,4.52,2.3s2.2,6.29,1.19,11.47-2.15,5.67-2.35,12.5c0,1.08.19,13.5.19,13.5H439.77s2.12-12.86,2.1-13.49c-.11-2.65-.67-6.58-2.81-9.64a38,38,0,0,1-4.91-9.55C433.69,524.07,434.32,520.69,434.32,520.69Z"/><path class="ba544d72-9de1-4b07-b8ce-98ba46011c4a" d="M451.22,515.9c-.11-.39.33-7.4.33-7.4s-3.69-.32-6.64-.32c-.86,0-.52,1.37-.45,7.33-.14.2,2.55,1.83,4.93,1.73C450.4,517.2,451.22,515.9,451.22,515.9Z"/><path class="ab5cb6f6-d50b-41c1-bbaf-a289fdf6dde3" d="M451.4,511.08c-.07,1.28-.15,2.75-.18,3.73a8.74,8.74,0,0,1-3.12.07c-1.89-.29-3.1-2.07-3.73-3.35,0-.49,0-.91,0-1.28Z"/><path class="ba544d72-9de1-4b07-b8ce-98ba46011c4a" d="M443.7,515.91c1.23,3,5.37,6.94,6.52,6.89s1.71-4.41,1.83-6.25c-.39-.42-.72-.79-1-1.08-1.79-.23-6.48-.32-6.57-.29A4.37,4.37,0,0,1,443.7,515.91Z"/><polygon class="b1791e86-1f88-4d4e-9309-2bfdd9463f24" points="460.32 532.51 455.82 532.45 455.82 528.51 460.35 528.59 460.32 532.51"/><rect class="bffd6537-9c3a-4b7f-895d-73645d280f8f" x="457.98" y="529.27" width="1.98" height="0.46"/><rect class="bffd6537-9c3a-4b7f-895d-73645d280f8f" x="457.98" y="530.05" width="1.98" height="0.46"/><polygon class="bffd6537-9c3a-4b7f-895d-73645d280f8f" points="457.73 531.28 456.23 531.25 456.23 528.97 457.73 528.97 457.73 531.28"/><path class="ba544d72-9de1-4b07-b8ce-98ba46011c4a" d="M432.67,527.39c.29,3.59,0,11.61.15,13.85.11.58,1.95,2.54,3.6,2.11a5.14,5.14,0,0,0,2.68-2.23s-.06-10.92.17-13.56c.15-1.81-.45-4-3-4A3.49,3.49,0,0,0,432.67,527.39Z"/><path class="ba544d72-9de1-4b07-b8ce-98ba46011c4a" d="M452.52,543.1a6.25,6.25,0,0,0-2.8.07l-.8,2.93a3.28,3.28,0,0,0,1.79,1.15l2,.68,3.21,1.72s.44,0,.34-.5a15.5,15.5,0,0,0-2.58-1.64,1.3,1.3,0,0,1,.1-.15,24.25,24.25,0,0,1,2.9,1.36c.2,0,.36.1.58-.14a.41.41,0,0,0,.07-.5l.47-.15s.3-.38.09-.63-1.67-1.3-1.67-1.3l-1.45-.85,1.45.38s1.33.37,1.73.46c.68-.12-.08-.6-.08-.6l-1.48-.72c-.25-.12-1.13-.36-1.49-.46.79-.08.77-.61.71-.7A14.69,14.69,0,0,1,452.52,543.1Z"/><polygon class="ba544d72-9de1-4b07-b8ce-98ba46011c4a" points="447.62 546.49 449.32 546.52 450.25 543.07 448.77 542.4 447.62 546.49"/><path class="ba544d72-9de1-4b07-b8ce-98ba46011c4a" d="M433.41,540.8c-.06.87-.32,2,1,2.8,1.16.68,10.36,2.37,13.16,2.88a.87.87,0,0,0,.81-.31l1.14-3.41L443.39,540c-1.33-.57-5.3-1.95-6.43-2.38C435.3,537,433.48,539.8,433.41,540.8Z"/><path class="a62b1c39-bbdb-4c44-8625-4ba4c6e6c401" d="M438.78,522.05c1.31,1.94,1.33,6.09,1.22,8.46,0,.75.6,2.24.47,3.73h-8.4c-.09-5.66.68-12.37,1.66-13.17A3.51,3.51,0,0,1,438.78,522.05Z"/><path class="a10b6bef-c6d1-4926-9d46-d54d3ac8fbe3" d="M454,504s-.05-.38-.85-.26c0,0,.15,4,.15,4s.1.19.27,0A11.61,11.61,0,0,0,454,504Z"/><path class="ad81fbd3-d78a-4bb1-833d-2239b6c4b092" d="M453.4,499.85s.11,5-.19,5.63c0,0-.24-1-.24-1l-.56-4.92Z"/><path class="ad81fbd3-d78a-4bb1-833d-2239b6c4b092" d="M442.46,498.52a6.67,6.67,0,0,0-.19,2.65l.16,1.67.33,3,4.27,1.31,4.76-1.09-.15-7.56S443.23,497.89,442.46,498.52Z"/><path class="ad81fbd3-d78a-4bb1-833d-2239b6c4b092" d="M453.48,506.28a6.07,6.07,0,0,0,.32-1.78c0-.93-1.13-.9-1.13-.86S452.8,506.31,453.48,506.28Z"/><path class="ba544d72-9de1-4b07-b8ce-98ba46011c4a" d="M452.81,499.61a23.82,23.82,0,0,1,.44,4c0,.5.22,1.28.25,1.82s-.16,1.45-.13,2.14a24.57,24.57,0,0,1-.06,2.92c-.1.92-1.48,3.9-3.46,3.9a6.82,6.82,0,0,1-5.79-4.75,63.66,63.66,0,0,1-1.29-9.81c.13-.88,3-3,5.54-3S452.81,499.61,452.81,499.61Z"/><path class="ad81fbd3-d78a-4bb1-833d-2239b6c4b092" d="M448.52,502.17c.11.11,0,1,0,1a8.76,8.76,0,0,0-2.77.5s-.34-.46-.15-.74a5.72,5.72,0,0,1,2.65-.73c.07,0,.06.25.11.25S448.47,502.12,448.52,502.17Z"/><path class="ad81fbd3-d78a-4bb1-833d-2239b6c4b092" d="M450.73,502.36c.06,0,0,.2.15.23s.14-.15.22-.13c.52.13,1.43.36,1.55.41a1.06,1.06,0,0,1,.59.4s0,.7-.21.62a5.56,5.56,0,0,0-2.42-.55A5.15,5.15,0,0,1,450.73,502.36Z"/><circle class="e06c71c3-0807-4551-84ff-9f47210ae8b7" cx="445.29" cy="507.64" r="1.05"/><path class="e06c71c3-0807-4551-84ff-9f47210ae8b7" d="M453.38,508h-.08a1,1,0,0,1,0-2.1h.18a13.06,13.06,0,0,0-.11,1.65C453.37,507.65,453.38,507.8,453.38,508Z"/><path class="f1073eb4-3a54-4a02-8104-81b1094df2b7" d="M451.59,510.65c.15-.19.52-.85.52-.85s-1.67.16-1.71.13-.4.14-.4.14l-2.68-.27-.72-.17a16.13,16.13,0,0,0,1.39,1.12C449.16,511.55,451.07,511.33,451.59,510.65Z"/><path class="b93d1441-5278-41bb-a334-9230428c21d5" d="M446.6,509.63l2.76-.15a2.82,2.82,0,0,1,.81.32l.49-.32,1.84.07-.39.25-1.35.25-.74.36-.78-.24a10.35,10.35,0,0,1-2.28-.31Z"/><path class="a10b6bef-c6d1-4926-9d46-d54d3ac8fbe3" d="M443.13,504a1.41,1.41,0,0,0-1.08-.37c-.4,0-.65.72-.49,1.6s.86,3,1.36,3a.77.77,0,0,0,.74-.69Z"/><path class="b1b0c09e-fd0a-423d-a302-86f579908374" d="M452.53,504.48s.26,1-.7,1-1.09-.24-1.09-.24,0-1,.14-1S452.41,504.16,452.53,504.48Z"/><path class="eceed767-0eab-4560-a6e5-fe89be7f5194" d="M451.26,504.8a.59.59,0,0,0,.52.64.65.65,0,0,0,0-1.28A.59.59,0,0,0,451.26,504.8Z"/><path class="b55591d3-727d-4b5d-98d3-55645ecf5794" d="M452.75,505a.89.89,0,0,1-.45.7,3.19,3.19,0,0,1-1.38-.17l-.29,0a1.15,1.15,0,0,1,.36,0c.32,0,1,.3,1.35,0a.57.57,0,0,0,.29-.58Z"/><path class="b55591d3-727d-4b5d-98d3-55645ecf5794" d="M452.75,505h-.19a.5.5,0,0,0-.39-.52c-.42-.07-1,0-1.21.35s-.16.5-.16.5l-.17.15s0-.23,0-.27,0-1.17.59-1.31a1.32,1.32,0,0,1,1.51.66Z"/><path class="b1b0c09e-fd0a-423d-a302-86f579908374" d="M448,504.26a1.25,1.25,0,0,1,0,1c-.06.12-1.35.45-1.87-.26-.07-.1.65-1,1.08-1A2.45,2.45,0,0,1,448,504.26Z"/><path class="b55591d3-727d-4b5d-98d3-55645ecf5794" d="M448.34,505.37h-.26a2.29,2.29,0,0,1-1.23.21c-.58-.11-.66-.34-.66-.34l-.14.07s.14.43,1,.43a3,3,0,0,0,1.08-.27Z"/><path class="eceed767-0eab-4560-a6e5-fe89be7f5194" d="M446.77,504.84a.62.62,0,0,0,.59.64.65.65,0,0,0,0-1.29A.63.63,0,0,0,446.77,504.84Z"/><path class="b55591d3-727d-4b5d-98d3-55645ecf5794" d="M448.34,505.3a2.29,2.29,0,0,0-.07-1,1.24,1.24,0,0,0-1.26-.47,1.21,1.21,0,0,0-1,1.5.9.9,0,0,1,.14-.07,1.38,1.38,0,0,1,1.26-.79c.66,0,.73.23.72.77Z"/><path class="e06c71c3-0807-4551-84ff-9f47210ae8b7" d="M450.13,506.22c.49,0,.76.75.76.75s.57.66.55.79-.55.51-.55.51l-.46,0a.48.48,0,0,1-.53-.09,4.7,4.7,0,0,1-1,.11c-.26-.07-.73-.12-.83-.62,0-.13.4-.65.4-.65A3.06,3.06,0,0,1,450.13,506.22Z"/><path class="ab3c0608-8594-49b3-986d-2f03c3e4a279" d="M450.63,507.17s0-.07,0-.21a3,3,0,0,0-.09-.56,1.82,1.82,0,0,0-.12-.35c-.06-.12-.13-.24-.19-.38s-.11-.28-.16-.43a1.84,1.84,0,0,1-.06-.47,1.86,1.86,0,0,1,.06-.48l.12-.44c.09-.28.18-.54.26-.76l.2-.53.09-.2s-.1.3-.24.75c-.07.22-.14.49-.23.77s-.08.29-.11.43a1.75,1.75,0,0,0,0,.46,2.3,2.3,0,0,0,0,.45c0,.14.1.28.15.42l.17.38a2,2,0,0,1,.12.37,3.37,3.37,0,0,1,.05.57A1.66,1.66,0,0,1,450.63,507.17Z"/><path class="ab3c0608-8594-49b3-986d-2f03c3e4a279" d="M451.09,507.69a.25.25,0,0,0-.1,0,.9.9,0,0,0-.24.16l-.12.15-.06.08-.06.1s0,0-.06.05l-.05,0a.31.31,0,0,1-.13,0,.46.46,0,0,1-.26-.06l-.2-.15-.19-.12a1.76,1.76,0,0,0-.2-.09l-.18-.07-.15-.05-.13,0h0l.3,0a2,2,0,0,1,.4.15.82.82,0,0,1,.2.12l.2.13a.36.36,0,0,0,.2.06.38.38,0,0,0,.1,0l.05,0,0,0,.06-.09.07-.09.15-.14a.67.67,0,0,1,.26-.14A.23.23,0,0,1,451.09,507.69Z"/><path class="ab3c0608-8594-49b3-986d-2f03c3e4a279" d="M450.89,507a2.91,2.91,0,0,1,.3.31l.14.17.12.19s0,0,0,.05l0,0v0a.2.2,0,0,1-.07.12l-.16.15-.35.26h0l-.14,0-.13,0h.26c.11-.09.22-.18.32-.28l.15-.15a.13.13,0,0,0,0-.07h0v0s0,0,0-.05a2.64,2.64,0,0,0-.23-.35Z"/><path class="ab3c0608-8594-49b3-986d-2f03c3e4a279" d="M448.5,507l-.23.25-.1.13-.1.14,0,.06,0,.08a.91.91,0,0,0,.09.17,1.37,1.37,0,0,0,.28.26,1,1,0,0,0,.31.13.87.87,0,0,0,.23.05h-.25a1,1,0,0,1-.33-.12,1,1,0,0,1-.32-.27,1.14,1.14,0,0,1-.1-.19.18.18,0,0,1,0-.11.21.21,0,0,1,0-.12l.12-.15.12-.11A1.7,1.7,0,0,1,448.5,507Z"/><path class="b9f32d39-2521-4731-8e49-752db2c8e631" d="M453.09,509.29c.08-.15-.26-.72-.38-.76a8.87,8.87,0,0,0-1.93-.36c-.17,0-.21.28-.48.29-.44,0-.45-.37-.79-.34-.85.09-1.94.26-2.28.34s-1.1.34-1.1.34a2.74,2.74,0,0,1,0,.76s1.23-.23,3.25-.39c.24,0,.55.31.81.31s.63-.3.82-.3C452.58,509.25,453,509.43,453.09,509.29Z"/><path class="b9f32d39-2521-4731-8e49-752db2c8e631" d="M444.05,505.24c0,.15.76,3.1.76,3.1a.92.92,0,0,0,1.32.46c.26,0-.18,2.08,1.52,3.08.54.32.8,1.36,1.13,1.57s1.86.22,2.2-.24,0-.52.82-1.33.91-3.35.91-3.35.69.44.68-.36a6.21,6.21,0,0,1-1.94,5.66,3.27,3.27,0,0,1-3.53.4c-1.08-.66-3.08-1.77-3.6-3.47a52.3,52.3,0,0,1-1.07-5.9Z"/><path class="b9f32d39-2521-4731-8e49-752db2c8e631" d="M449,511.43s1.59.18,1.92-.12c0,.12,0,.29,0,.29l-.26.26-.11-.11v.16a1.47,1.47,0,0,1-.7.08l-.08-.21-.05.22-.71-.26A1.25,1.25,0,0,1,449,511.43Z"/><path class="b9f32d39-2521-4731-8e49-752db2c8e631" d="M441.94,504s-.7-.35-.82-2.87.76-3.78,2.05-3.92,2.32,3.28,2.25,3.29-1.5,6.13-1.62,6.16a1.05,1.05,0,0,1-1.08-.37A9.68,9.68,0,0,1,441.94,504Z"/><path class="b9f32d39-2521-4731-8e49-752db2c8e631" d="M444,505.67s1.48-4,1-6-.64-2.37-1.27-2.34-1,2.79-.94,4.16S443.66,506.74,444,505.67Z"/><path class="ad81fbd3-d78a-4bb1-833d-2239b6c4b092" d="M443.56,499.38c-.83,1-1.36,4.15-.53,7.19a.7.7,0,0,0,.2.08c-.86-3-.35-6.14.46-7.16a.69.69,0,0,1,.59-.33l0-.17A.87.87,0,0,0,443.56,499.38Z"/><path class="ad81fbd3-d78a-4bb1-833d-2239b6c4b092" d="M442.31,498.56a4.31,4.31,0,0,0-1.18,2.68c0,.34.05.63.08.89.08-1.14.34-2.72,1.21-3.44a1.91,1.91,0,0,1,1.87-.25l0-.16A2,2,0,0,0,442.31,498.56Z"/><path class="b9f32d39-2521-4731-8e49-752db2c8e631" d="M453.71,504.83s1.22-.84,1.22-3.89-3.07-5.43-7.5-5.43a6.5,6.5,0,0,0-4.6,1.84,7.38,7.38,0,0,0,.9,3.52c.32.51,2,1.8,6.41,2.74a3.76,3.76,0,0,0-.25-.54Z"/><path class="ad81fbd3-d78a-4bb1-833d-2239b6c4b092" d="M444.72,497.08a1.9,1.9,0,0,1,0-1l-.19.09a2.56,2.56,0,0,0,.18,1.37c1,2.59,5.19,5.77,5.34,5.8h0l-.14-.27.1.05C449.35,502.67,445.35,499.47,444.72,497.08Z"/><path class="ad81fbd3-d78a-4bb1-833d-2239b6c4b092" d="M454.81,502.49a21.61,21.61,0,0,1-6.45-6.94l-.2,0a21.51,21.51,0,0,0,6.61,7.14C454.78,502.61,454.8,502.55,454.81,502.49Z"/><rect class="b3db8809-a80e-4cba-a189-0fd9af76b583" x="393.6" y="608.86" width="333.22" height="10.82" rx="5.41"/><ellipse class="eaa9c50f-c08c-49df-830e-45bdd158ced2" cx="653.56" cy="533.44" rx="52" ry="80.67"/><path class="eaa9c50f-c08c-49df-830e-45bdd158ced2" d="M551.77,605.77V503.41H509.06a20.14,20.14,0,0,0-20.14,20.13v82.23Z"/><path class="a27b3e5a-69b3-4f2c-ad9b-0fb8fc4a0217" d="M548.45,602.45H492.24V523.54a16.83,16.83,0,0,1,16.82-16.81h39.39ZM492.68,602H548V507.17H509.06a16.39,16.39,0,0,0-16.38,16.37Z"/><rect class="eaa9c50f-c08c-49df-830e-45bdd158ced2" x="557.91" y="452.77" width="96.29" height="161.35"/><path class="baa03466-67b7-49c6-a3dc-78443ae53f85" d="M397.91,566.38l-1.49-4.65a3.48,3.48,0,0,0-3.33-2.43h-15a3.5,3.5,0,0,0-3.32,4.59l.61,1.83-1.4.46-.6-1.83a5,5,0,0,1,4.71-6.52h15a5,5,0,0,1,4.73,3.45l1.49,4.66Z"/><ellipse class="baa03466-67b7-49c6-a3dc-78443ae53f85" cx="557.91" cy="533.44" rx="52" ry="80.67"/><path class="eaa9c50f-c08c-49df-830e-45bdd158ced2" d="M550.48,458.41l-2.72,13.29c-19.79,2.61-35.41,27.19-36.67,57.72h-2.88c.61-17.95,5.31-35,13.28-48.07,7.72-12.67,18-20.77,29-22.94Zm1.13-1.09c-24.25,3.76-43.32,34.77-44.31,73h4.64c1-30.86,16.76-55.68,36.56-57.81l3.11-15.18Z"/><path class="eaa9c50f-c08c-49df-830e-45bdd158ced2" d="M560.11,458c11.65,1.32,22.59,9.19,30.87,22.24,8.39,13.23,13.34,30.66,14,49.17h-13.5c-.59-14.31-4.41-27.91-10.8-38.39s-14.79-17.1-23.91-19l3.38-14Zm-.68-1-3.78,15.68c19,3.26,34,27.57,34.94,57.58h15.26c-1-39.33-21.18-71-46.42-73.26Z"/><path class="eaa9c50f-c08c-49df-830e-45bdd158ced2" d="M511.09,537.38c1.26,30.53,16.88,55.11,36.67,57.72l2.72,13.29c-11-2.18-21.27-10.27-29-22.94-8-13.08-12.67-30.12-13.28-48.07Zm.85-.89H507.3c1,38.22,20.06,69.23,44.31,73L548.5,594.3c-19.8-2.13-35.56-26.95-36.56-57.81Z"/><path class="eaa9c50f-c08c-49df-830e-45bdd158ced2" d="M604.94,537.38c-.62,18.51-5.57,35.94-14,49.17-8.28,13.05-19.22,20.92-30.87,22.24l-3.38-14c9.12-1.9,17.59-8.61,23.91-19s10.21-24.08,10.8-38.39Zm.91-.89H590.59c-1,30-15.92,54.32-34.94,57.58l3.78,15.68c25.24-2.24,45.4-33.93,46.42-73.26Z"/><path class="a1136be3-2e57-45e5-b709-ac1bda92f443" d="M648,529.62c-.16-1.56-.3-3.1-.44-4.63-.66-7.13-1.29-13.88-3.13-21.24-3.5-13.5-9.42-25.78-16.68-34.58-7.49-9.09-16.23-14.58-26.06-16.4h-3.07c30.59,3.24,42.42,39.68,45.38,51.09A135.59,135.59,0,0,1,647.16,525c.14,1.52.28,3.06.44,4.62.43,7.27-.38,14.14-1.24,21.4l-.1.83a101.32,101.32,0,0,1-4.89,20,78.29,78.29,0,0,1-19.13,30.91l.31.32A78.82,78.82,0,0,0,641.79,572a101.88,101.88,0,0,0,4.91-20.09l.1-.82C647.66,543.83,648.47,537,648,529.62Z"/><path class="a1136be3-2e57-45e5-b709-ac1bda92f443" d="M681,529.62c-.15-1.56-.3-3.1-.44-4.63a136.84,136.84,0,0,0-3.12-21.24c-3.51-13.5-9.43-25.78-16.68-34.58-7.49-9.09-16.24-14.58-26.06-16.4h-3.07C662.21,456,674,492.45,677,503.86A135.59,135.59,0,0,1,680.12,525c.14,1.52.28,3.06.44,4.62.43,7.27-.38,14.14-1.24,21.4l-.09.83a102.74,102.74,0,0,1-4.89,20A78.42,78.42,0,0,1,655.2,602.8l.31.32A78.83,78.83,0,0,0,674.76,572a102.59,102.59,0,0,0,4.91-20.09l.1-.82C680.62,543.83,681.44,537,681,529.62Z"/><ellipse class="e5dfa9a4-dcc5-4142-96f5-97a1ff75ea76" cx="551.15" cy="533.44" rx="37.85" ry="59.22"/><ellipse class="a27924eb-8b4b-421d-adab-6a29fa1c71f8" cx="548.38" cy="533.88" rx="26.3" ry="40.81"/><rect class="baa03466-67b7-49c6-a3dc-78443ae53f85" x="445.98" y="570.61" width="3.84" height="3.85"/><polygon class="baa03466-67b7-49c6-a3dc-78443ae53f85" points="536.19 614.16 467.86 614.16 463.13 586.79 449.35 580.47 449.35 571.42 536.19 571.42 536.19 614.16"/><polygon class="eaa9c50f-c08c-49df-830e-45bdd158ced2" points="551.25 614.16 482.93 614.16 478.19 586.79 464.4 580.47 464.4 571.42 551.25 571.42 551.25 614.16"/><path class="a0264a89-6b2d-4616-af88-c14f0adff0da" d="M508.12,565.77l-73,0c-2.36-2.49-1.76-4.75.36-7.69l72.64-2.72Z"/><path class="fdea4500-be9e-4fa2-84f6-3914f305df81" d="M543,558.46c.55.29,6.54,1,6.54,1l2.12,5.34a72.53,72.53,0,0,0-7.53.42,21.42,21.42,0,0,1-4.33.07l1.07-9.17A15.87,15.87,0,0,0,543,558.46Z"/><path class="fdea4500-be9e-4fa2-84f6-3914f305df81" d="M562.15,565.49a6.83,6.83,0,0,0,1-3c.5-4.25-.82-6.79-2.08-7.56-1.91-1.18-12-.33-13.94,1.16-1.28,1,.43,7,2.21,8.1.33.21,3.25,1.15,3.68,1.29Z"/><path class="a9869670-e457-491b-ac9b-25334085b76c" d="M553.05,565.51c-.15-.27-1.33-1.39-1.19-2.11.2-1.07,1.51-1.86,2.1-2.42.27-.26-.5-.44-.29-.89s1.2-.38,2.1-.3c.67.06,1.13-.57,1.24-1.18s-.71-2.1-.61-3.54a4.26,4.26,0,0,1,2-3.09c1.15-.55,4.52.13,4.67,6.91s-.45,6.73-2.15,7A72.12,72.12,0,0,1,553.05,565.51Z"/><path class="fdea4500-be9e-4fa2-84f6-3914f305df81" d="M555.55,561.24c.38.46.79,2.64-.53,2.71s-3.5-1-3.67-1.86a2.41,2.41,0,0,1,.75-1.69C552.22,560.33,555.17,560.78,555.55,561.24Z"/><path class="a27b3e5a-69b3-4f2c-ad9b-0fb8fc4a0217" d="M543.08,558.32s-1.79-1.63-2.68-2.33c-2.31-1.83-7.78-3.49-13.86-3.27-4.36.15-25.12,2.76-25.12,2.76a14.08,14.08,0,0,1,2.74,10.08l40.27.32C545.13,564.05,544.57,560.56,543.08,558.32Z"/><path class="fdea4500-be9e-4fa2-84f6-3914f305df81" d="M491.56,565.49s.72-1.46,1.53-1.78,7.05-1.18,7.05-1.18l0,3Z"/><path class="a27b3e5a-69b3-4f2c-ad9b-0fb8fc4a0217" d="M541.53,565.7l-44.15.3s0-3.8.34-3.92,42.22-5.47,43.81-3.15S541.53,565.7,541.53,565.7Z"/><g class="f25d22b1-917e-47ea-9642-7905be8faf1e"><path class="a27b3e5a-69b3-4f2c-ad9b-0fb8fc4a0217" d="M504.83,560.9a.1.1,0,0,1-.1-.08.1.1,0,0,1,.08-.12A120.2,120.2,0,0,1,522.09,559c.56,0,3.17-.36,6.2-.79,5.79-.8,9.92-1.36,10.38-1.16a11.56,11.56,0,0,1,3,2.08.11.11,0,0,1,0,.14.11.11,0,0,1-.15,0,11.38,11.38,0,0,0-2.93-2c-.44-.2-6.12.6-10.27,1.18-3,.42-5.66.79-6.23.79a119.52,119.52,0,0,0-17.24,1.75Z"/></g><g class="f318801a-f8a1-4ccc-8ccf-45679b77b692"><path class="a27b3e5a-69b3-4f2c-ad9b-0fb8fc4a0217" d="M441.26,559.76a.1.1,0,0,1-.1-.09.1.1,0,0,1,.1-.11l54-2.11a.1.1,0,0,1,.1.1.09.09,0,0,1-.09.1l-54,2.11Z"/></g><path class="f171e632-288b-4cd9-b129-60774e872a57" d="M435.07,566c-1.61.42-2-1.06-2.06-2.41s-.6-3.47-.73-4.93,1-6.26,2.89-5.83,2.31,3.23,1.91,4.82a14.72,14.72,0,0,0-.72,3.25C436.42,561.42,437.29,565.4,435.07,566Z"/><path class="f171e632-288b-4cd9-b129-60774e872a57" d="M439.37,565.84c1.61.42,2-1.07,2.07-2.42s.59-3.47.72-4.93-1-6.26-2.89-5.83-2.31,3.23-1.9,4.82a15.12,15.12,0,0,1,.71,3.25C438,561.29,437.16,565.26,439.37,565.84Z"/><polygon class="baa03466-67b7-49c6-a3dc-78443ae53f85" points="567.19 572.59 378.39 572.59 373.53 565.33 567.19 565.33 567.19 572.59"/><polygon class="eaa9c50f-c08c-49df-830e-45bdd158ced2" points="567.23 572.59 407.44 572.59 402.58 565.33 567.23 565.33 567.23 572.59"/><path class="baa03466-67b7-49c6-a3dc-78443ae53f85" d="M635.89,544.69c-3.41,38.16-24,67.8-49.31,69.42h57.65V544.69Z"/><rect class="eaa9c50f-c08c-49df-830e-45bdd158ced2" x="640.69" y="544.69" width="68.18" height="69.42"/><path class="baa03466-67b7-49c6-a3dc-78443ae53f85" d="M683.89,566.8H647.46V550.57h36.43Zm-36-.44h35.54V551H647.91Z"/><path class="baa03466-67b7-49c6-a3dc-78443ae53f85" d="M702.37,566.8H691.19V550.57h11.18Zm-10.74-.44h10.3V551h-10.3Z"/><rect class="a27b3e5a-69b3-4f2c-ad9b-0fb8fc4a0217" x="684.87" y="600.95" width="15.25" height="0.36"/><rect class="a27b3e5a-69b3-4f2c-ad9b-0fb8fc4a0217" x="684.87" y="602.29" width="15.25" height="0.36"/><rect class="a27b3e5a-69b3-4f2c-ad9b-0fb8fc4a0217" x="684.87" y="603.64" width="15.25" height="0.36"/><rect class="a27b3e5a-69b3-4f2c-ad9b-0fb8fc4a0217" x="684.87" y="604.98" width="15.25" height="0.36"/><rect class="a27b3e5a-69b3-4f2c-ad9b-0fb8fc4a0217" x="684.87" y="606.32" width="15.25" height="0.36"/><path class="a27b3e5a-69b3-4f2c-ad9b-0fb8fc4a0217" d="M702.33,608.86H682.2V591.78h20.13Zm-19.77-.36H702V592.15H682.56Z"/><rect class="a27b3e5a-69b3-4f2c-ad9b-0fb8fc4a0217" x="411.12" y="568.76" width="154.82" height="0.44"/><polygon class="baa03466-67b7-49c6-a3dc-78443ae53f85" points="556.27 614.11 424.48 614.11 427.14 606.5 556.27 606.5 556.27 614.11"/><polygon class="eaa9c50f-c08c-49df-830e-45bdd158ced2" points="557.08 614.11 445.83 614.11 448.5 606.5 557.08 606.5 557.08 614.11"/><rect class="baa03466-67b7-49c6-a3dc-78443ae53f85" x="370.37" y="565.29" width="40.76" height="3.84"/><rect class="eaa9c50f-c08c-49df-830e-45bdd158ced2" x="464.33" y="570.61" width="86.91" height="3.85"/><rect class="baa03466-67b7-49c6-a3dc-78443ae53f85" x="464.13" y="570.61" width="3.84" height="3.85"/><path class="e5dfa9a4-dcc5-4142-96f5-97a1ff75ea76" d="M589,533.44c0,29.77-14.17,54.41-32.61,58.59V572.76c10.61-5.26,18.29-20.68,18.29-38.88S567,500.26,556.39,495V474.84C574.83,479,589,503.66,589,533.44Z"/><rect class="a27b3e5a-69b3-4f2c-ad9b-0fb8fc4a0217" x="464.28" y="573.99" width="86.9" height="0.44"/><rect class="a1136be3-2e57-45e5-b709-ac1bda92f443" x="635.89" y="544.47" width="72.98" height="0.44"/><rect class="a27b3e5a-69b3-4f2c-ad9b-0fb8fc4a0217" x="481.7" y="606.25" width="69.07" height="0.44"/></g><path class="b5b5b3c8-c1c9-465c-8563-a62eb6fe4a42" d="M391.64,511l33.49,30.82,10.44-42-43,8A1.85,1.85,0,0,0,391.64,511Z"/></g></g></g></svg>