<svg xmlns="http://www.w3.org/2000/svg" id="aa23fea0-6dc3-4e73-92cf-8e9550e5d1d0" data-name="Layer 1" viewBox="0 0 100 100"><defs><style>.e6d81694-01d2-4c2b-9469-1f8f00b04d58{fill:#0ebbd6;}.f4787c74-eefe-45d4-9bbb-446d37a5eebf{fill:#414142;}.bb27e7e9-e2c7-4f73-b78c-8429521e69ae{fill:#93d7e6;}.ac684c2a-6e22-42d6-b0d8-69cc7846fb12{fill:#fff;}</style></defs><path class="e6d81694-01d2-4c2b-9469-1f8f00b04d58" d="M48.87,75.72H42.05V86.21a4.8,4.8,0,0,1-5,4.54H48.87"></path><path class="f4787c74-eefe-45d4-9bbb-446d37a5eebf" d="M48.87,91.56H37V89.94a4,4,0,0,0,4.24-3.73V74.92h7.62v1.61h-6v9.68a5.09,5.09,0,0,1-1.66,3.73h7.67Z"></path><path class="bb27e7e9-e2c7-4f73-b78c-8429521e69ae" d="M48.87,90.75H61.44a4.8,4.8,0,0,1-5-4.54V75.72H48.87"></path><path class="f4787c74-eefe-45d4-9bbb-446d37a5eebf" d="M61.44,91.56H48.87V89.94h8.38a5.09,5.09,0,0,1-1.66-3.73V76.53H48.87V74.92H57.2V86.21a4,4,0,0,0,4.24,3.73Z"></path><path class="f4787c74-eefe-45d4-9bbb-446d37a5eebf" d="M65.16,91.56H32.74a.81.81,0,0,1,0-1.62H65.16a.81.81,0,0,1,0,1.62Z"></path><path class="e6d81694-01d2-4c2b-9469-1f8f00b04d58" d="M49.46,9.05H5.86a2.57,2.57,0,0,0-2.73,2.36v62a2.55,2.55,0,0,0,2.71,2.35h43"></path><path class="bb27e7e9-e2c7-4f73-b78c-8429521e69ae" d="M48.87,75.75h44.2a2.72,2.72,0,0,0,2.9-2.5V11.41a2.58,2.58,0,0,0-2.74-2.36H49.46"></path><path class="f4787c74-eefe-45d4-9bbb-446d37a5eebf" d="M93.07,76.56H5.84A3.36,3.36,0,0,1,2.32,73.4v-62A3.37,3.37,0,0,1,5.86,8.24H93.23a3.37,3.37,0,0,1,3.54,3.17V73.25A3.53,3.53,0,0,1,93.07,76.56ZM5.86,9.85a1.77,1.77,0,0,0-1.92,1.56v62a1.75,1.75,0,0,0,1.9,1.54H93.07a1.93,1.93,0,0,0,2.09-1.69V11.41a1.78,1.78,0,0,0-1.93-1.56Z"></path><rect class="ac684c2a-6e22-42d6-b0d8-69cc7846fb12" x="6.8" y="13.34" width="85.31" height="55.71" rx="2.05"></rect><path class="f4787c74-eefe-45d4-9bbb-446d37a5eebf" d="M90.06,69.85H8.85A2.86,2.86,0,0,1,6,67V15.39a2.86,2.86,0,0,1,2.86-2.86H90.06a2.86,2.86,0,0,1,2.86,2.86V67A2.86,2.86,0,0,1,90.06,69.85ZM8.85,14.15a1.24,1.24,0,0,0-1.24,1.24V67a1.25,1.25,0,0,0,1.24,1.25H90.06A1.25,1.25,0,0,0,91.31,67V15.39a1.24,1.24,0,0,0-1.25-1.24Z"></path><line class="ac684c2a-6e22-42d6-b0d8-69cc7846fb12" x1="42.87" y1="72.38" x2="55.88" y2="72.38"></line><path class="f4787c74-eefe-45d4-9bbb-446d37a5eebf" d="M55.88,73.19h-13a.81.81,0,1,1,0-1.61h13a.81.81,0,0,1,0,1.61Z"></path><path class="f4787c74-eefe-45d4-9bbb-446d37a5eebf" d="M30.44,58.57a.81.81,0,0,1-.81-.81V54.47a2.12,2.12,0,0,0-2.08-2.12h-.06a3.74,3.74,0,1,1,0-7.47H37a3.74,3.74,0,1,1,0,7.47H34.51a.81.81,0,1,1,0-1.61H37a2.12,2.12,0,1,0,0-4.24H27.49a2.12,2.12,0,0,0,0,4.24h.07a3.74,3.74,0,0,1,3.73,3.74v3.29A.81.81,0,0,1,30.44,58.57Z"></path><path class="f4787c74-eefe-45d4-9bbb-446d37a5eebf" d="M40,49.32a.81.81,0,1,1,0-1.61,3.92,3.92,0,0,0,3.91-3.92,3.82,3.82,0,0,0-.75-2.28.81.81,0,0,1,0-1,3.85,3.85,0,0,0,.85-2.4,3.9,3.9,0,0,0-3.89-3.9,3.71,3.71,0,0,0-.89.12.82.82,0,0,1-1-.86l0-.2a1.1,1.1,0,0,0,0-.18,3.88,3.88,0,0,0-6.82-2.55.81.81,0,0,1-.8.25.8.8,0,0,1-.59-.59,3.87,3.87,0,0,0-7.61.42.81.81,0,0,1-1.18.61,3.86,3.86,0,0,0-5.71,3.43,1.94,1.94,0,0,0,0,.24l0,.2a.81.81,0,0,1-.45.81A3.91,3.91,0,0,0,13,39.47a4,4,0,0,0,3.95,4h2.82a.81.81,0,0,1,0,1.62H17a5.58,5.58,0,0,1-5.57-5.57A5.48,5.48,0,0,1,14,34.77a.25.25,0,0,1,0-.08,5.53,5.53,0,0,1,5.52-5.52,5.26,5.26,0,0,1,1.61.26,5.49,5.49,0,0,1,10.11-.79,5.49,5.49,0,0,1,8.69,4,5.5,5.5,0,0,1,5.75,5.51,5.44,5.44,0,0,1-.86,2.92,5.36,5.36,0,0,1,.74,2.73A5.54,5.54,0,0,1,40,49.32Z"></path><path class="f4787c74-eefe-45d4-9bbb-446d37a5eebf" d="M24.56,49.59a5.57,5.57,0,0,1,0-11.13h4.91a2.38,2.38,0,0,0,2.37-2.37.81.81,0,1,1,1.61,0,4,4,0,0,1-4,4H24.56a4,4,0,0,0,0,7.9.81.81,0,1,1,0,1.62Z"></path><path class="f4787c74-eefe-45d4-9bbb-446d37a5eebf" d="M85.21,38.5a.8.8,0,0,1-.8-.7,5.94,5.94,0,0,0-5.84-5.2,5.73,5.73,0,0,0-3.14.92.81.81,0,0,1-.88-1.36,7.43,7.43,0,0,1,4-1.18A7.57,7.57,0,0,1,86,37.59a.79.79,0,0,1-.69.9Z"></path><path class="f4787c74-eefe-45d4-9bbb-446d37a5eebf" d="M66.22,52.7a7.43,7.43,0,0,1-2.91-.6,7.65,7.65,0,0,1-4.58-7,.81.81,0,0,1,1.62,0,6,6,0,0,0,.46,2.33,6,6,0,0,0,1.26,1.91,5.82,5.82,0,0,0,4.15,1.75.81.81,0,0,1,0,1.62Z"></path><path class="f4787c74-eefe-45d4-9bbb-446d37a5eebf" d="M75.27,52.7a.81.81,0,0,1,0-1.62,5.74,5.74,0,0,0,2.28-.47,5.91,5.91,0,0,0,3.13-3.19,6,6,0,0,0,.47-2.33.81.81,0,1,1,1.61,0A7.62,7.62,0,0,1,82.17,48a7.4,7.4,0,0,1-1.6,2.42,7.62,7.62,0,0,1-2.38,1.64A7.51,7.51,0,0,1,75.27,52.7Z"></path><path class="f4787c74-eefe-45d4-9bbb-446d37a5eebf" d="M63.82,35.78a.82.82,0,0,1-.58-.24,5.34,5.34,0,0,1-1.53-3.76,5.47,5.47,0,0,1,.41-2.08A5.3,5.3,0,0,1,63.24,28a.82.82,0,0,1,1.15,0,.81.81,0,0,1,0,1.14,3.73,3.73,0,0,0-.78,1.18,3.8,3.8,0,0,0,0,2.91,3.73,3.73,0,0,0,.78,1.18.8.8,0,0,1-.57,1.37Z"></path><path class="f4787c74-eefe-45d4-9bbb-446d37a5eebf" d="M74.51,58.29H72.58a2.58,2.58,0,0,1-1.84-.75,2.62,2.62,0,0,1-1.85.75H67A5.3,5.3,0,0,1,61.7,53,5.39,5.39,0,0,1,62,51.37a7.63,7.63,0,0,1-3.23-6.24v-.28a7.61,7.61,0,0,1,3-13.76A5.29,5.29,0,0,1,67,26.47a5.2,5.2,0,0,1,3.78,1.63,5.16,5.16,0,0,1,3.77-1.63,5.28,5.28,0,0,1,5.21,4.62,7.61,7.61,0,0,1,3,13.76c0,.1,0,.19,0,.28a7.65,7.65,0,0,1-3.23,6.24A5.38,5.38,0,0,1,79.77,53,5.3,5.3,0,0,1,74.51,58.29ZM70.74,54.8a.8.8,0,0,1,.8.81,1.06,1.06,0,0,0,1,1.07h1.93A3.68,3.68,0,0,0,78.15,53a3.82,3.82,0,0,0-.35-1.58.81.81,0,0,1,.34-1,6,6,0,0,0,3-5.21c0-.21,0-.41,0-.62a.8.8,0,0,1,.39-.77,6,6,0,0,0,2.92-5.16,5.92,5.92,0,0,0-5.51-5.95.8.8,0,0,1-.76-.81v-.05a3.67,3.67,0,0,0-3.64-3.68,3.6,3.6,0,0,0-3.08,1.76.82.82,0,0,1-.69.39h0a.79.79,0,0,1-.69-.39A3.62,3.62,0,0,0,67,28.09a3.68,3.68,0,0,0-3.64,3.71.82.82,0,0,1-.76.83,5.92,5.92,0,0,0-5.51,5.95A6,6,0,0,0,60,43.74a.8.8,0,0,1,.39.77c0,.21,0,.41,0,.62a6,6,0,0,0,3,5.21.81.81,0,0,1,.33,1A3.79,3.79,0,0,0,63.32,53,3.68,3.68,0,0,0,67,56.68h1.93a1.06,1.06,0,0,0,1-1.07A.81.81,0,0,1,70.74,54.8Z"></path><path class="f4787c74-eefe-45d4-9bbb-446d37a5eebf" d="M70.74,57.4a.81.81,0,0,1-.81-.81V35.05a.81.81,0,1,1,1.61,0V56.59A.81.81,0,0,1,70.74,57.4Z"></path><path class="f4787c74-eefe-45d4-9bbb-446d37a5eebf" d="M67.74,48.11l-.15,0a3.75,3.75,0,0,1-2.22-1.29,3.85,3.85,0,0,1-.89-2.46,3.7,3.7,0,0,1,0-.59,3.84,3.84,0,0,1-.63-6.08A.81.81,0,1,1,65,38.85a2.18,2.18,0,0,0-.52.72,2.3,2.3,0,0,0-.19.9,2.18,2.18,0,0,0,1.45,2.07.83.83,0,0,1,.46.42.83.83,0,0,1,0,.62,2.72,2.72,0,0,0-.11.38,2.38,2.38,0,0,0,0,.39,2.2,2.2,0,0,0,.51,1.41,2.15,2.15,0,0,0,1.27.74.81.81,0,0,1-.14,1.61Z"></path><path class="f4787c74-eefe-45d4-9bbb-446d37a5eebf" d="M73.74,48.11a.81.81,0,0,1-.14-1.61,2.13,2.13,0,0,0,1.26-.74,2.21,2.21,0,0,0,.51-1.42,2.56,2.56,0,0,0,0-.39,2.38,2.38,0,0,0-.11-.38.82.82,0,0,1,.5-1,2.14,2.14,0,0,0,1-.78,2.2,2.2,0,0,0,.41-1.29,2.3,2.3,0,0,0-.19-.9.81.81,0,0,1,.41-1.07.82.82,0,0,1,1.07.41,4,4,0,0,1,.32,1.56,3.82,3.82,0,0,1-.7,2.22,4,4,0,0,1-1.14,1.06,3.68,3.68,0,0,1,0,.58,3.86,3.86,0,0,1-.89,2.47,3.75,3.75,0,0,1-2.22,1.29Z"></path></svg>