<svg xmlns="http://www.w3.org/2000/svg" xmlns:xlink="http://www.w3.org/1999/xlink" viewBox="0 0 649.36 652.18"><defs><style>.b4775abb-ed4e-40f1-979d-4f1e13f7568d,.b6299647-b87b-4557-94c4-686df6f13295,.b74b00b0-b857-4692-bd77-828b0a3a2640,.bbbc2675-6f8d-4a9c-9115-5937aaaf3594{fill:none;}.b67bdc44-1f3a-401f-a07c-fc19d7395595{fill:#6badc9;}.f2909eeb-316c-4894-b3ce-19286a7a4fb7{fill:#2c67a8;}.a16adaa6-468f-43d9-ae43-624db197d3bb,.f077402b-f095-480c-9f20-a526e7cc6499{fill:#404041;}.b523b096-71da-4fe9-bc8a-d33ca5b3ed00,.b72360ad-af34-40e4-afa8-ccea5f6ec756,.b7634dcd-f528-4e9d-9b50-526b615c4976,.e3f2e179-bc3b-4284-b463-9b568e1cef5f,.e836dc23-25a6-4934-ad28-0677ea95668b,.fc28d6c7-905b-4602-a2ba-e497ce825b64{fill:#fff;}.a83205b1-e7ce-4289-8239-ae14e0ae08b1{fill:#ef2940;}.f3879617-eccb-4928-8c0d-23b3ae7f49f8{fill:#ff7a81;}.b3d036a5-cb52-48bf-a6a2-db5423734958{fill:#404040;}.b6299647-b87b-4557-94c4-686df6f13295,.b72360ad-af34-40e4-afa8-ccea5f6ec756,.b74b00b0-b857-4692-bd77-828b0a3a2640,.b7634dcd-f528-4e9d-9b50-526b615c4976,.bbbc2675-6f8d-4a9c-9115-5937aaaf3594,.e836dc23-25a6-4934-ad28-0677ea95668b,.f077402b-f095-480c-9f20-a526e7cc6499,.fc28d6c7-905b-4602-a2ba-e497ce825b64{stroke:#404041;}.b523b096-71da-4fe9-bc8a-d33ca5b3ed00,.b6299647-b87b-4557-94c4-686df6f13295,.e836dc23-25a6-4934-ad28-0677ea95668b,.f077402b-f095-480c-9f20-a526e7cc6499{stroke-miterlimit:10;}.f077402b-f095-480c-9f20-a526e7cc6499{stroke-width:0.93px;}.bceda9b4-00d6-4746-a22b-2da3bfc22c2b{clip-path:url(#a395ef4b-4fd0-4bf1-8add-903a98ab98ae);}.b62d6d51-181e-4f8a-aea2-c7c246e3e9d9{clip-path:url(#a1823232-8ceb-4dae-b708-6ba37943c0fa);}.a6c2f05b-a5a0-43cd-90df-900fd95bb063{fill:#398e74;}.fa8f3c51-6d22-476c-802a-412b416165c1{fill:#58d69a;}.b72360ad-af34-40e4-afa8-ccea5f6ec756,.b74b00b0-b857-4692-bd77-828b0a3a2640,.b7634dcd-f528-4e9d-9b50-526b615c4976,.bbbc2675-6f8d-4a9c-9115-5937aaaf3594,.fc28d6c7-905b-4602-a2ba-e497ce825b64{stroke-linecap:round;stroke-linejoin:round;}.bbbc2675-6f8d-4a9c-9115-5937aaaf3594,.fc28d6c7-905b-4602-a2ba-e497ce825b64{stroke-width:1.87px;}.b523b096-71da-4fe9-bc8a-d33ca5b3ed00{stroke:#424143;stroke-width:1.98px;}.e27a44a2-aafc-419b-8183-da58de04d120{clip-path:url(#aa2fe8e0-74cc-42e2-9fc5-aff106796299);}.b3dc887f-30e9-4efa-abf9-2437ad03071e{fill:#be1e2d;}.b6299647-b87b-4557-94c4-686df6f13295,.b74b00b0-b857-4692-bd77-828b0a3a2640{stroke-width:1.7px;}.bedc174a-c3ce-4fea-9a8c-c998cf61d633{fill:#dd4b5d;}.b7634dcd-f528-4e9d-9b50-526b615c4976,.e836dc23-25a6-4934-ad28-0677ea95668b{stroke-width:1.64px;}.b267a85d-d759-4e42-9f55-d031e5d88c6a{clip-path:url(#a0858646-e3f4-4fc8-be7c-a313b083835b);}.ef54f95f-5fe9-4150-9b17-a683d4c7ecf5{fill:#f15a29;}.a519a689-f3ec-4ef2-b59e-62a3f78ef8c6{fill:#ed9443;}.b72360ad-af34-40e4-afa8-ccea5f6ec756{stroke-width:2px;}.eee62b92-d80c-425c-8c2f-7f87b73e2e8d{fill:#424143;}</style><clipPath id="a395ef4b-4fd0-4bf1-8add-903a98ab98ae" transform="translate(12.68 12.77)"><circle class="b4775abb-ed4e-40f1-979d-4f1e13f7568d" cx="66.23" cy="66.23" r="65.23"/></clipPath><clipPath id="a1823232-8ceb-4dae-b708-6ba37943c0fa" transform="translate(12.68 12.77)"><circle class="b4775abb-ed4e-40f1-979d-4f1e13f7568d" cx="557.77" cy="538.27" r="65.23"/></clipPath><clipPath id="aa2fe8e0-74cc-42e2-9fc5-aff106796299" transform="translate(12.68 12.77)"><circle class="b4775abb-ed4e-40f1-979d-4f1e13f7568d" cx="557.77" cy="66.23" r="65.23"/></clipPath><clipPath id="a0858646-e3f4-4fc8-be7c-a313b083835b" transform="translate(12.68 12.77)"><circle class="b4775abb-ed4e-40f1-979d-4f1e13f7568d" cx="66.23" cy="538.27" r="65.23"/></clipPath></defs><g id="a589c304-e134-4ba1-b5ea-86d3ed3eb2ac" data-name="Layer 2"><g id="a01d9263-675a-4e40-9422-da5b7257e765" data-name="Layer 1"><path class="b67bdc44-1f3a-401f-a07c-fc19d7395595" d="M303.62,406.12c13.79-.09,25.2-.18,22.2-.18-5.93,0-5.27-39.15-5.27-39.15H303.62" transform="translate(12.68 12.77)"/><path class="f2909eeb-316c-4894-b3ce-19286a7a4fb7" d="M303.62,366.79H284V392.2l-3.14,10.33-6.46,3.77,29.25-.18" transform="translate(12.68 12.77)"/><path class="a16adaa6-468f-43d9-ae43-624db197d3bb" d="M301.82,408.25H270.87v-4.31c6.07,0,11-4.36,11-9.71V364.72h19.95V369H286.18v25.2a13.36,13.36,0,0,1-4.28,9.71h19.92Z" transform="translate(12.68 12.77)"/><path class="a16adaa6-468f-43d9-ae43-624db197d3bb" d="M334.62,408.25h-32.8v-4.31h21.77a13.36,13.36,0,0,1-4.28-9.71V369H301.82v-4.31h21.8v29.51c0,5.35,4.94,9.71,11,9.71Z" transform="translate(12.68 12.77)"/><path class="a16adaa6-468f-43d9-ae43-624db197d3bb" d="M344.35,408.18H259.71a2.16,2.16,0,1,1,0-4.31h84.64a2.16,2.16,0,1,1,0,4.31Z" transform="translate(12.68 12.77)"/><path class="f2909eeb-316c-4894-b3ce-19286a7a4fb7" d="M305.19,192.67h-114c-3.94,0-7.14,2.76-7.14,6.18V360.66c0,3.39,3.17,6.13,7.08,6.13H303.62" transform="translate(12.68 12.77)"/><path class="b67bdc44-1f3a-401f-a07c-fc19d7395595" d="M303.62,366.87H418.8c4.17,0,7.55-2.92,7.55-6.53V198.93c0-3.41-3.2-6.18-7.14-6.18H303.65" transform="translate(12.68 12.77)"/><path class="a16adaa6-468f-43d9-ae43-624db197d3bb" d="M417.2,369H189.5c-5.09,0-9.23-3.72-9.23-8.28V198.93c0-4.6,4.17-8.33,9.29-8.33H417.62c5.12,0,9.29,3.73,9.29,8.33V360.34C426.91,365.13,422.55,369,417.2,369ZM189.56,194.91c-2.74,0-5,1.8-5,4V360.75c0,2.19,2.21,4,4.92,4H417.2c3,0,5.4-2,5.4-4.38V198.93c0-2.22-2.24-4-5-4Z" transform="translate(12.68 12.77)"/><rect class="e3f2e179-bc3b-4284-b463-9b568e1cef5f" x="204.68" y="216.73" width="222.69" height="145.41" rx="5.46"/><path class="a16adaa6-468f-43d9-ae43-624db197d3bb" d="M409.23,351.52H197.47a7.63,7.63,0,0,1-7.62-7.62V209.42a7.63,7.63,0,0,1,7.62-7.62H409.23a7.63,7.63,0,0,1,7.62,7.62V343.9A7.63,7.63,0,0,1,409.23,351.52ZM197.47,206.11a3.31,3.31,0,0,0-3.31,3.31V343.9a3.31,3.31,0,0,0,3.31,3.31H409.23a3.31,3.31,0,0,0,3.31-3.31V209.42a3.31,3.31,0,0,0-3.31-3.31Z" transform="translate(12.68 12.77)"/><path class="a16adaa6-468f-43d9-ae43-624db197d3bb" d="M320.11,360.24h-34a2.16,2.16,0,0,1,0-4.31h34a2.16,2.16,0,0,1,0,4.31Z" transform="translate(12.68 12.77)"/><path class="a83205b1-e7ce-4289-8239-ae14e0ae08b1" d="M382.18,396.53h72.05v4.41a7.42,7.42,0,0,1-7.4,7.4H317.77a7.42,7.42,0,0,1-7.39-7.4v-4.41Z" transform="translate(12.68 12.77)"/><path class="a16adaa6-468f-43d9-ae43-624db197d3bb" d="M446.83,409.61H317.77a8.68,8.68,0,0,1-8.66-8.67v-4.41a1.27,1.27,0,0,1,1.27-1.28H454.23a1.28,1.28,0,0,1,1.28,1.28v4.41A8.68,8.68,0,0,1,446.83,409.61ZM311.66,397.8v3.14a6.12,6.12,0,0,0,6.11,6.12H446.83a6.12,6.12,0,0,0,6.12-6.12V397.8Z" transform="translate(12.68 12.77)"/><path class="f3879617-eccb-4928-8c0d-23b3ae7f49f8" d="M382.31,302.18h61.78a3.64,3.64,0,0,1,3.87,3.35V393a3.85,3.85,0,0,1-4.09,3.54H320.49a3.61,3.61,0,0,1-3.84-3.32V305.53a3.64,3.64,0,0,1,3.87-3.35Z" transform="translate(12.68 12.77)"/><path class="a16adaa6-468f-43d9-ae43-624db197d3bb" d="M443.87,397.8H320.49a4.88,4.88,0,0,1-5.11-4.59V305.53a4.91,4.91,0,0,1,5.14-4.62H444.09a4.9,4.9,0,0,1,5.14,4.62V393A5.11,5.11,0,0,1,443.87,397.8ZM320.52,303.46a2.38,2.38,0,0,0-2.59,2.07v87.68a2.34,2.34,0,0,0,2.56,2H443.87a2.58,2.58,0,0,0,2.81-2.26V305.53a2.38,2.38,0,0,0-2.59-2.07Z" transform="translate(12.68 12.77)"/><rect class="e3f2e179-bc3b-4284-b463-9b568e1cef5f" x="334.52" y="321.02" width="120.66" height="78.79" rx="3.23"/><path class="a16adaa6-468f-43d9-ae43-624db197d3bb" d="M439.27,388.32H325.08a4.52,4.52,0,0,1-4.51-4.51V311.49a4.51,4.51,0,0,1,4.51-4.51H439.27a4.51,4.51,0,0,1,4.51,4.51v72.32A4.52,4.52,0,0,1,439.27,388.32ZM325.08,309.53a2,2,0,0,0-2,2v72.32a2,2,0,0,0,2,2H439.27a2,2,0,0,0,2-2V311.49a2,2,0,0,0-2-2Z" transform="translate(12.68 12.77)"/><path class="a16adaa6-468f-43d9-ae43-624db197d3bb" d="M408.66,341.83a1.27,1.27,0,0,1-1.26-1.11,11,11,0,0,0-10.84-9.64,10.75,10.75,0,0,0-5.82,1.71,1.28,1.28,0,0,1-1.38-2.15,13.35,13.35,0,0,1,7.2-2.11,13.59,13.59,0,0,1,13.37,11.86,1.27,1.27,0,0,1-1.1,1.43Z" transform="translate(12.68 12.77)"/><path class="a16adaa6-468f-43d9-ae43-624db197d3bb" d="M374.09,367.68a13.15,13.15,0,0,1-5.24-1.08,13.44,13.44,0,0,1-4.28-2.93,13.8,13.8,0,0,1-3.93-9.65,1.28,1.28,0,0,1,2.55,0,11.23,11.23,0,0,0,3.2,7.87,11,11,0,0,0,3.47,2.37,10.61,10.61,0,0,0,4.23.87,1.28,1.28,0,1,1,0,2.55Z" transform="translate(12.68 12.77)"/><path class="a16adaa6-468f-43d9-ae43-624db197d3bb" d="M390.56,367.68a1.28,1.28,0,1,1,0-2.55,10.61,10.61,0,0,0,4.23-.87,11,11,0,0,0,3.47-2.38,11.18,11.18,0,0,0,3.2-7.86,1.28,1.28,0,0,1,2.55,0,13.79,13.79,0,0,1-1.06,5.31,13.44,13.44,0,0,1-2.88,4.34,13.29,13.29,0,0,1-4.27,2.93A13.11,13.11,0,0,1,390.56,367.68Z" transform="translate(12.68 12.77)"/><path class="a16adaa6-468f-43d9-ae43-624db197d3bb" d="M369.71,336.88a1.25,1.25,0,0,1-.91-.38,9.42,9.42,0,0,1-2-3,9.6,9.6,0,0,1,0-7.39,9.46,9.46,0,0,1,2-3,1.28,1.28,0,0,1,1.82,1.79,7,7,0,0,0-1.47,2.21,7,7,0,0,0,1.47,7.65,1.29,1.29,0,0,1,0,1.81A1.3,1.3,0,0,1,369.71,336.88Z" transform="translate(12.68 12.77)"/><path class="a16adaa6-468f-43d9-ae43-624db197d3bb" d="M389.19,377.87h-3.53a4.57,4.57,0,0,1-3.35-1.46,4.61,4.61,0,0,1-3.36,1.46h-3.52a9.45,9.45,0,0,1-9.37-9.51,9.61,9.61,0,0,1,.47-3,13.71,13.71,0,0,1-5.91-11.29c0-.2,0-.4,0-.6a13.73,13.73,0,0,1-6-11.33,13.55,13.55,0,0,1,11.48-13.46,9.44,9.44,0,0,1,9.3-8.39,9.26,9.26,0,0,1,6.88,3.06,9.22,9.22,0,0,1,6.88-3.06,9.44,9.44,0,0,1,9.3,8.4A13.54,13.54,0,0,1,410,342.17a13.74,13.74,0,0,1-6,11.33c0,.2,0,.4,0,.6a13.69,13.69,0,0,1-5.92,11.29,9.5,9.5,0,0,1-8.89,12.48Zm-6.88-6a1.27,1.27,0,0,1,1.27,1.27,2.12,2.12,0,0,0,2.08,2.14h3.53a6.9,6.9,0,0,0,6.82-7,7,7,0,0,0-.66-3,1.28,1.28,0,0,1,.53-1.64,11.13,11.13,0,0,0,5.57-9.66,10.6,10.6,0,0,0-.06-1.14,1.27,1.27,0,0,1,.62-1.23,11.15,11.15,0,0,0,5.4-9.56,11,11,0,0,0-10.21-11,1.27,1.27,0,0,1-1.2-1.27.28.28,0,0,1,0-.09,6.9,6.9,0,0,0-6.82-6.9,6.75,6.75,0,0,0-5.79,3.29,1.28,1.28,0,0,1-1.09.61h0a1.27,1.27,0,0,1-1.09-.61,6.76,6.76,0,0,0-5.79-3.29,6.9,6.9,0,0,0-6.82,6.95,1.31,1.31,0,0,1-1.2,1.31,11,11,0,0,0-10.21,11,11.15,11.15,0,0,0,5.4,9.56,1.27,1.27,0,0,1,.62,1.23c0,.37-.05.75-.05,1.14a11.11,11.11,0,0,0,5.57,9.66,1.27,1.27,0,0,1,.52,1.64,7.08,7.08,0,0,0-.65,3,6.9,6.9,0,0,0,6.82,7H379a2.11,2.11,0,0,0,2.08-2.14A1.27,1.27,0,0,1,382.31,371.91Z" transform="translate(12.68 12.77)"/><path class="a16adaa6-468f-43d9-ae43-624db197d3bb" d="M382.31,376.24A1.28,1.28,0,0,1,381,375V335.74a1.28,1.28,0,0,1,2.55,0V375A1.27,1.27,0,0,1,382.31,376.24Z" transform="translate(12.68 12.77)"/><path class="a16adaa6-468f-43d9-ae43-624db197d3bb" d="M376.84,359.32l-.22,0a6.63,6.63,0,0,1-3.93-2.28,6.78,6.78,0,0,1-1.58-4.35,7.4,7.4,0,0,1,.11-1.19,6.81,6.81,0,0,1-2.79-8.63,6.82,6.82,0,0,1,1.57-2.2,1.28,1.28,0,0,1,1.74,1.87,4.3,4.3,0,0,0-1,1.37,4.28,4.28,0,0,0,.42,4.18,4.08,4.08,0,0,0,2,1.5,1.26,1.26,0,0,1,.72.66,1.28,1.28,0,0,1,.05,1,4.52,4.52,0,0,0-.2.72,5.79,5.79,0,0,0-.07.75,4.25,4.25,0,0,0,1,2.7,4.18,4.18,0,0,0,2.43,1.41,1.28,1.28,0,0,1-.23,2.53Z" transform="translate(12.68 12.77)"/><path class="a16adaa6-468f-43d9-ae43-624db197d3bb" d="M387.77,359.32a1.27,1.27,0,0,1-.22-2.53,4.12,4.12,0,0,0,2.42-1.41,4.25,4.25,0,0,0,1-2.71,4.65,4.65,0,0,0-.07-.75,5.44,5.44,0,0,0-.2-.72,1.29,1.29,0,0,1,.78-1.63,4.18,4.18,0,0,0,2.76-4,4.25,4.25,0,0,0-.37-1.72,1.28,1.28,0,0,1,2.34-1,6.85,6.85,0,0,1,.58,2.75,6.78,6.78,0,0,1-3.38,5.87,6.45,6.45,0,0,1,.11,1.17,6.8,6.8,0,0,1-1.58,4.37A6.63,6.63,0,0,1,388,359.3Z" transform="translate(12.68 12.77)"/><path class="b3d036a5-cb52-48bf-a6a2-db5423734958" d="M261,322.22c-1.55,0-3.09-.06-4.65-.2-18-1.58-33.56-12.13-42.73-28.93a48.52,48.52,0,0,1-1.26-43.62c9.44-20.19,26.93-31.91,48-32.15a2.52,2.52,0,0,1,1.71.7,2.36,2.36,0,0,1,.72,1.71v49.16l38.74,30.27a2.41,2.41,0,0,1,.4,3.4A52.36,52.36,0,0,1,261,322.22Zm-1.8-101.28c-19.1.65-34.94,11.54-43.58,30.05a44.91,44.91,0,0,0,1.15,40.37c8.59,15.74,23.13,25.61,39.9,27.08a48.8,48.8,0,0,0,41.69-17.2l-38.24-29.87a2.41,2.41,0,0,1-.92-1.89Z" transform="translate(12.68 12.77)"/><path class="b3d036a5-cb52-48bf-a6a2-db5423734958" d="M300.79,302.47a2.35,2.35,0,0,1-1.46-.5l-39.06-30.52a2.4,2.4,0,0,1-.7-2.91h0l20.93-44.88a2.43,2.43,0,0,1,3.26-1.17,52.64,52.64,0,0,1,24.77,69.42,51.42,51.42,0,0,1-5.81,9.61,2.51,2.51,0,0,1-1.62.94ZM263.23,269.2l37.35,29.18a47.3,47.3,0,0,0,4.69-8,49,49,0,0,0-22-64.14Zm-.4.85Z" transform="translate(12.68 12.77)"/><path class="b3d036a5-cb52-48bf-a6a2-db5423734958" d="M262.41,270l-1.64-.19a2,2,0,0,1-1.57-2V219.34a2,2,0,0,1,2-2A48.52,48.52,0,0,1,283,222.14l.67.32.38.82a1.93,1.93,0,0,1-.06,1.51Zm.38-49v39.89L280,224.75A44.21,44.21,0,0,0,262.79,220.94Zm18.65,4.46h0Z" transform="translate(12.68 12.77)"/><path class="a16adaa6-468f-43d9-ae43-624db197d3bb" d="M392.71,396.53a4.57,4.57,0,0,1-4.56,4.56H376.46a4.57,4.57,0,0,1-4.56-4.56Z" transform="translate(12.68 12.77)"/><path class="f077402b-f095-480c-9f20-a526e7cc6499" d="M492.07,128.67l-11.65,3.12a1.75,1.75,0,0,0-.79,2.93l1.93,1.93-24.31,24.26a1.32,1.32,0,0,0,0,1.86l2.81,2.8a1.32,1.32,0,0,0,1.86,0l24.31-24.26,1.93,1.93a1.76,1.76,0,0,0,2.94-.79l3.12-11.63A1.76,1.76,0,0,0,492.07,128.67Z" transform="translate(12.68 12.77)"/><path class="f077402b-f095-480c-9f20-a526e7cc6499" d="M132.39,128.67l11.66,3.12a1.75,1.75,0,0,1,.78,2.93l-1.93,1.93,24.31,24.26a1.32,1.32,0,0,1,0,1.86l-2.81,2.8a1.32,1.32,0,0,1-1.86,0l-24.31-24.26-1.93,1.93a1.75,1.75,0,0,1-2.93-.79l-3.13-11.63A1.76,1.76,0,0,1,132.39,128.67Z" transform="translate(12.68 12.77)"/><path class="f077402b-f095-480c-9f20-a526e7cc6499" d="M492.07,473.17l-11.65-3.12a1.75,1.75,0,0,1-.79-2.93l1.93-1.93-24.31-24.26a1.32,1.32,0,0,1,0-1.86l2.81-2.8a1.32,1.32,0,0,1,1.86,0l24.31,24.26,1.93-1.93a1.76,1.76,0,0,1,2.94.79L494.22,471A1.76,1.76,0,0,1,492.07,473.17Z" transform="translate(12.68 12.77)"/><path class="f077402b-f095-480c-9f20-a526e7cc6499" d="M132.39,473.17l11.66-3.12a1.75,1.75,0,0,0,.78-2.93l-1.93-1.93,24.31-24.26a1.32,1.32,0,0,0,0-1.86l-2.81-2.8a1.32,1.32,0,0,0-1.86,0l-24.31,24.26-1.93-1.93a1.75,1.75,0,0,0-2.93.79L130.24,471A1.76,1.76,0,0,0,132.39,473.17Z" transform="translate(12.68 12.77)"/><g class="bceda9b4-00d6-4746-a22b-2da3bfc22c2b"><path class="f2909eeb-316c-4894-b3ce-19286a7a4fb7" d="M66.23,139.25H-6.72a5.13,5.13,0,0,1-5.11-5.11V-6.81a5.13,5.13,0,0,1,5.11-5.11h73" transform="translate(12.68 12.77)"/><path class="b67bdc44-1f3a-401f-a07c-fc19d7395595" d="M66.23-11.92h72.94a5.13,5.13,0,0,1,5.11,5.11v141a5.13,5.13,0,0,1-5.11,5.11H66.23" transform="translate(12.68 12.77)"/></g><g class="b62d6d51-181e-4f8a-aea2-c7c246e3e9d9"><rect class="a6c2f05b-a5a0-43cd-90df-900fd95bb063" x="495.99" y="466.23" width="74.46" height="156.15"/><rect class="fa8f3c51-6d22-476c-802a-412b416165c1" x="570.45" y="466.23" width="74.46" height="156.15"/></g><rect class="e3f2e179-bc3b-4284-b463-9b568e1cef5f" x="33.74" y="45.72" width="90.32" height="66.56" rx="2.58"/><rect class="bbbc2675-6f8d-4a9c-9115-5937aaaf3594" x="33.74" y="45.72" width="90.32" height="66.56" rx="2.58"/><line class="fc28d6c7-905b-4602-a2ba-e497ce825b64" x1="68.55" y1="57.92" x2="114.93" y2="57.92"/><line class="fc28d6c7-905b-4602-a2ba-e497ce825b64" x1="68.55" y1="68.02" x2="114.93" y2="68.02"/><line class="fc28d6c7-905b-4602-a2ba-e497ce825b64" x1="68.55" y1="62.97" x2="110.53" y2="62.97"/><line class="fc28d6c7-905b-4602-a2ba-e497ce825b64" x1="68.55" y1="92.24" x2="114.93" y2="92.24"/><line class="fc28d6c7-905b-4602-a2ba-e497ce825b64" x1="68.55" y1="87.19" x2="110.53" y2="87.19"/><line class="fc28d6c7-905b-4602-a2ba-e497ce825b64" x1="68.55" y1="97.29" x2="110.53" y2="97.29"/><path class="bbbc2675-6f8d-4a9c-9115-5937aaaf3594" d="M49,50.21a8.46,8.46,0,1,1-8.46-8.47A8.46,8.46,0,0,1,49,50.21Z" transform="translate(12.68 12.77)"/><circle class="bbbc2675-6f8d-4a9c-9115-5937aaaf3594" cx="53.2" cy="61.04" r="2.87"/><path class="bbbc2675-6f8d-4a9c-9115-5937aaaf3594" d="M34.81,56.29a5.73,5.73,0,0,1,11.41,0" transform="translate(12.68 12.77)"/><path class="bbbc2675-6f8d-4a9c-9115-5937aaaf3594" d="M49,79.47A8.46,8.46,0,1,1,40.52,71,8.46,8.46,0,0,1,49,79.47Z" transform="translate(12.68 12.77)"/><circle class="bbbc2675-6f8d-4a9c-9115-5937aaaf3594" cx="53.2" cy="90.31" r="2.87"/><path class="bbbc2675-6f8d-4a9c-9115-5937aaaf3594" d="M34.81,85.55a5.74,5.74,0,0,1,11.41,0" transform="translate(12.68 12.77)"/><path class="a16adaa6-468f-43d9-ae43-624db197d3bb" d="M45.42,163V151.52a1.22,1.22,0,0,1,1.24-1.24H54.8a1.11,1.11,0,0,1,1.1,1.1,1.1,1.1,0,0,1-1.1,1.1H47.88v3.64h6a1.11,1.11,0,0,1,1.1,1.12,1.09,1.09,0,0,1-1.1,1.08h-6v3.76h7a1.11,1.11,0,0,1,1.1,1.1,1.1,1.1,0,0,1-1.1,1.1H46.66A1.22,1.22,0,0,1,45.42,163Z" transform="translate(12.68 12.77)"/><path class="a16adaa6-468f-43d9-ae43-624db197d3bb" d="M58.82,151.44a1.23,1.23,0,0,1,1.24-1.24h.26a1.3,1.3,0,0,1,1.14.66l4.24,6.64L70,150.84a1.24,1.24,0,0,1,1.12-.64h.26a1.23,1.23,0,0,1,1.24,1.24v11.72a1.22,1.22,0,0,1-1.24,1.22,1.24,1.24,0,0,1-1.22-1.22v-8.4L66.7,159.9a1.15,1.15,0,0,1-2.06,0l-3.4-5.1v8.38a1.2,1.2,0,0,1-1.22,1.2,1.18,1.18,0,0,1-1.2-1.2Z" transform="translate(12.68 12.77)"/><path class="a16adaa6-468f-43d9-ae43-624db197d3bb" d="M76.18,151.52a1.22,1.22,0,0,1,1.24-1.24h5a5.64,5.64,0,0,1,4,1.4,4.23,4.23,0,0,1,1.16,3v0a4.14,4.14,0,0,1-3.18,4.18l2.68,3.38a1.43,1.43,0,0,1,.4.94,1.16,1.16,0,0,1-1.18,1.14,1.41,1.41,0,0,1-1.2-.64l-3.4-4.34h-3.1v3.76a1.23,1.23,0,0,1-2.46,0Zm6.06,5.7c1.76,0,2.88-.92,2.88-2.34v0c0-1.5-1.08-2.32-2.9-2.32H78.64v4.7Z" transform="translate(12.68 12.77)"/><path class="a16adaa6-468f-43d9-ae43-624db197d3bb" d="M51.23,623.41a1.22,1.22,0,0,1,1.24-1.24h5a5.64,5.64,0,0,1,4,1.4,4.23,4.23,0,0,1,1.16,3v0a4.14,4.14,0,0,1-3.18,4.18l2.68,3.38a1.43,1.43,0,0,1,.4.94,1.16,1.16,0,0,1-1.18,1.14,1.41,1.41,0,0,1-1.2-.64l-3.4-4.34h-3.1v3.76a1.23,1.23,0,0,1-2.46,0Zm6.06,5.7c1.76,0,2.88-.92,2.88-2.34v0c0-1.5-1.08-2.32-2.9-2.32H53.69v4.7Z" transform="translate(12.68 12.77)"/><path class="a16adaa6-468f-43d9-ae43-624db197d3bb" d="M65.83,623.29a1.23,1.23,0,0,1,2.46,0v11.76a1.23,1.23,0,0,1-2.46,0Z" transform="translate(12.68 12.77)"/><path class="a16adaa6-468f-43d9-ae43-624db197d3bb" d="M71.67,634.61a1.15,1.15,0,0,1,.68-2.08,1.14,1.14,0,0,1,.72.22A6.07,6.07,0,0,0,77,634.19c1.52,0,2.48-.72,2.48-1.76v0c0-1-.56-1.54-3.16-2.14-3-.72-4.66-1.6-4.66-4.18v0c0-2.4,2-4.06,4.78-4.06a7.7,7.7,0,0,1,4.44,1.3,1.11,1.11,0,0,1,.54,1,1.14,1.14,0,0,1-1.16,1.14,1.19,1.19,0,0,1-.64-.18,5.82,5.82,0,0,0-3.22-1.06c-1.44,0-2.28.74-2.28,1.66v0c0,1.08.64,1.56,3.34,2.2,3,.72,4.48,1.78,4.48,4.1v0c0,2.62-2.06,4.18-5,4.18A8.72,8.72,0,0,1,71.67,634.61Z" transform="translate(12.68 12.77)"/><path class="a16adaa6-468f-43d9-ae43-624db197d3bb" d="M528,623.41a1.22,1.22,0,0,1,1.24-1.24h5a5.08,5.08,0,0,1,3.67,1.24,3.14,3.14,0,0,1,.94,2.32v0a3.33,3.33,0,0,1-2,3.12c1.65.56,2.79,1.5,2.79,3.4v0c0,2.5-2.06,3.84-5.19,3.84h-5.24a1.22,1.22,0,0,1-1.24-1.24Zm5.78,4.66c1.59,0,2.64-.62,2.64-1.9v0c0-1.1-.88-1.78-2.46-1.78h-3.54v3.72Zm.72,5.92c1.68,0,2.71-.66,2.71-1.92v0c0-1.18-1-1.88-2.89-1.88h-3.9V634Z" transform="translate(12.68 12.77)"/><path class="a16adaa6-468f-43d9-ae43-624db197d3bb" d="M542.12,622.77a1.4,1.4,0,0,1,2.76,0v.12a1.39,1.39,0,0,1-2.76,0Zm.18,3.94a1.2,1.2,0,0,1,1.2-1.22,1.21,1.21,0,0,1,1.22,1.22v8.36a1.21,1.21,0,0,1-2.42,0Z" transform="translate(12.68 12.77)"/><path class="a16adaa6-468f-43d9-ae43-624db197d3bb" d="M548,622.67a1.19,1.19,0,0,1,1.2-1.2,1.21,1.21,0,0,1,1.22,1.2v12.4a1.21,1.21,0,0,1-2.42,0Z" transform="translate(12.68 12.77)"/><path class="a16adaa6-468f-43d9-ae43-624db197d3bb" d="M553.74,622.67a1.19,1.19,0,0,1,1.2-1.2,1.21,1.21,0,0,1,1.22,1.2v12.4a1.21,1.21,0,0,1-2.42,0Z" transform="translate(12.68 12.77)"/><path class="a16adaa6-468f-43d9-ae43-624db197d3bb" d="M559.28,622.77a1.4,1.4,0,0,1,2.76,0v.12a1.39,1.39,0,0,1-2.76,0Zm.18,3.94a1.2,1.2,0,0,1,1.2-1.22,1.21,1.21,0,0,1,1.22,1.22v8.36a1.21,1.21,0,0,1-2.42,0Z" transform="translate(12.68 12.77)"/><path class="a16adaa6-468f-43d9-ae43-624db197d3bb" d="M565,626.71a1.2,1.2,0,0,1,1.2-1.22,1.21,1.21,0,0,1,1.22,1.22v.52a3.83,3.83,0,0,1,3.3-1.84c2.38,0,3.76,1.6,3.76,4v5.64a1.18,1.18,0,0,1-1.2,1.2,1.2,1.2,0,0,1-1.22-1.2v-4.9c0-1.64-.82-2.58-2.26-2.58a2.35,2.35,0,0,0-2.38,2.62v4.86a1.21,1.21,0,0,1-2.42,0Z" transform="translate(12.68 12.77)"/><path class="a16adaa6-468f-43d9-ae43-624db197d3bb" d="M578.06,638.47a1,1,0,0,1-.68-1,1,1,0,0,1,1-1,1,1,0,0,1,.44.1,6.46,6.46,0,0,0,3.24.84c2.16,0,3.34-1.12,3.34-3.24v-.82a4.42,4.42,0,0,1-3.72,1.94,4.75,4.75,0,0,1-4.8-4.94v0a4.76,4.76,0,0,1,4.8-5,4.56,4.56,0,0,1,3.7,1.8v-.5a1.21,1.21,0,0,1,2.42,0V634a5.4,5.4,0,0,1-1.34,4,5.94,5.94,0,0,1-4.34,1.42A9.12,9.12,0,0,1,578.06,638.47Zm7.38-8.1v0a3,3,0,0,0-3.1-2.9,2.85,2.85,0,0,0-3,2.9v0a2.88,2.88,0,0,0,3,2.9A3,3,0,0,0,585.44,630.37Z" transform="translate(12.68 12.77)"/><path class="a16adaa6-468f-43d9-ae43-624db197d3bb" d="M542.4,151.4a1.23,1.23,0,0,1,2.46,0v4.7h6.68v-4.7a1.24,1.24,0,0,1,2.47,0v11.76a1.24,1.24,0,0,1-2.47,0v-4.78h-6.68v4.78a1.23,1.23,0,0,1-2.46,0Z" transform="translate(12.68 12.77)"/><path class="a16adaa6-468f-43d9-ae43-624db197d3bb" d="M557.74,151.4a1.23,1.23,0,0,1,2.46,0v11.76a1.23,1.23,0,0,1-2.46,0Z" transform="translate(12.68 12.77)"/><path class="a16adaa6-468f-43d9-ae43-624db197d3bb" d="M563.58,162.72a1.15,1.15,0,0,1,.68-2.08,1.14,1.14,0,0,1,.72.22,6.07,6.07,0,0,0,3.92,1.44c1.52,0,2.48-.72,2.48-1.76v0c0-1-.56-1.54-3.16-2.14-3-.72-4.66-1.6-4.66-4.18v0c0-2.4,2-4.06,4.78-4.06a7.7,7.7,0,0,1,4.44,1.3,1.12,1.12,0,0,1,.55,1,1.15,1.15,0,0,1-1.17,1.14,1.19,1.19,0,0,1-.64-.18,5.82,5.82,0,0,0-3.22-1.06c-1.44,0-2.28.74-2.28,1.66v0c0,1.08.64,1.56,3.34,2.2,3,.72,4.48,1.78,4.48,4.1v0c0,2.62-2.06,4.18-5,4.18A8.72,8.72,0,0,1,563.58,162.72Z" transform="translate(12.68 12.77)"/><path class="b523b096-71da-4fe9-bc8a-d33ca5b3ed00" d="M557.77,492.86a4.08,4.08,0,0,0-4.08,4.08v6.38c-12.38,1.25-21,9.29-21,20.54v.2c0,12.34,7.53,17.06,21,20.63v20.18a32.66,32.66,0,0,1-13.74-6.7,5.76,5.76,0,0,0-3.67-1.13,5.86,5.86,0,0,0-3.47,10.62,44.71,44.71,0,0,0,20.88,8.58v6.59a4.08,4.08,0,0,0,4.08,4.08m-12.51-64v-.21c0-4,3.06-7.26,8.43-8.2v17.23C547.08,529.45,545.26,527,545.26,522.94Z" transform="translate(12.68 12.77)"/><path class="b523b096-71da-4fe9-bc8a-d33ca5b3ed00" d="M557.77,586.91a4.07,4.07,0,0,0,4.08-4.08v-6.26c13.83-.74,23.34-8.55,23.34-21.26v-.21c0-11.84-7.76-17.26-22.87-20.93l-.47-.12V514.76a32.93,32.93,0,0,1,11.49,4.91,6.12,6.12,0,0,0,3.27.92,5.84,5.84,0,0,0,5.92-5.82,5.68,5.68,0,0,0-2.75-5,38.53,38.53,0,0,0-17.93-6.37v-6.45a4.08,4.08,0,0,0-4.08-4.08m14.86,63.67c0,4.86-4.12,8.35-10.78,8.9V546.79c8.7,2.57,10.78,5.21,10.78,9.54Z" transform="translate(12.68 12.77)"/><g class="e27a44a2-aafc-419b-8183-da58de04d120"><path class="b3dc887f-30e9-4efa-abf9-2437ad03071e" d="M557.77,139.25H484.83a5.13,5.13,0,0,1-5.11-5.11V-6.81a5.13,5.13,0,0,1,5.11-5.11h72.94" transform="translate(12.68 12.77)"/><path class="b74b00b0-b857-4692-bd77-828b0a3a2640" d="M557.77,139.25H484.83a5.13,5.13,0,0,1-5.11-5.11V-6.81a5.13,5.13,0,0,1,5.11-5.11h72.94" transform="translate(12.68 12.77)"/><path class="bedc174a-c3ce-4fea-9a8c-c998cf61d633" d="M557.77-11.92h73a5.13,5.13,0,0,1,5.11,5.11v141a5.13,5.13,0,0,1-5.11,5.11h-73" transform="translate(12.68 12.77)"/><path class="b74b00b0-b857-4692-bd77-828b0a3a2640" d="M557.77-11.92h73a5.13,5.13,0,0,1,5.11,5.11v141a5.13,5.13,0,0,1-5.11,5.11h-73" transform="translate(12.68 12.77)"/></g><path class="b7634dcd-f528-4e9d-9b50-526b615c4976" d="M597,53.89h15.09a3.38,3.38,0,0,1,3.38,3.38v57.66a1.39,1.39,0,0,1-1.39,1.39H595.82a0,0,0,0,1,0,0V55.06A1.17,1.17,0,0,1,597,53.89Z"/><path class="b7634dcd-f528-4e9d-9b50-526b615c4976" d="M528.83,53.89h16.26a0,0,0,0,1,0,0v62.43a0,0,0,0,1,0,0H526.84a1.39,1.39,0,0,1-1.39-1.39V57.27A3.38,3.38,0,0,1,528.83,53.89Z"/><path class="b7634dcd-f528-4e9d-9b50-526b615c4976" d="M548.47,40.89h44a3.38,3.38,0,0,1,3.38,3.38v72.06a0,0,0,0,1,0,0H545.09a0,0,0,0,1,0,0V44.26A3.38,3.38,0,0,1,548.47,40.89Z"/><path class="e836dc23-25a6-4934-ad28-0677ea95668b" d="M559.9,91.22h10.56a0,0,0,0,1,0,0v25.1a0,0,0,0,1,0,0H556.54a0,0,0,0,1,0,0V94.58A3.36,3.36,0,0,1,559.9,91.22Z"/><path class="e836dc23-25a6-4934-ad28-0677ea95668b" d="M570.6,91.22H581a3.37,3.37,0,0,1,3.37,3.37v21.59a.14.14,0,0,1-.14.14H570.6a.14.14,0,0,1-.14-.14V91.37A.14.14,0,0,1,570.6,91.22Z"/><path class="e836dc23-25a6-4934-ad28-0677ea95668b" d="M567.72,44.78h-5.4a.58.58,0,0,1-.58-.57V38.8a1.49,1.49,0,0,0-1.49-1.49h-4.64a1.49,1.49,0,0,0-1.49,1.49v5.38a.6.6,0,0,1-.61.6h-5.37a1.5,1.5,0,0,0-1.5,1.5v4.63a1.5,1.5,0,0,0,1.5,1.5h5.37a.6.6,0,0,1,.61.6v5.38a1.49,1.49,0,0,0,1.49,1.49h4.64a1.49,1.49,0,0,0,1.49-1.49V53a.61.61,0,0,1,.61-.61h5.37a1.5,1.5,0,0,0,1.49-1.5V46.28A1.5,1.5,0,0,0,567.72,44.78Z" transform="translate(12.68 12.77)"/><rect class="e836dc23-25a6-4934-ad28-0677ea95668b" x="601.5" y="64.39" width="8.26" height="8.26" rx="1.72"/><rect class="e836dc23-25a6-4934-ad28-0677ea95668b" x="601.5" y="79.73" width="8.26" height="8.26" rx="1.72"/><rect class="e836dc23-25a6-4934-ad28-0677ea95668b" x="601.5" y="95.08" width="8.26" height="8.26" rx="1.72"/><rect class="e836dc23-25a6-4934-ad28-0677ea95668b" x="531.14" y="64.39" width="8.26" height="8.26" rx="1.72"/><rect class="e836dc23-25a6-4934-ad28-0677ea95668b" x="531.14" y="79.73" width="8.26" height="8.26" rx="1.72"/><rect class="e836dc23-25a6-4934-ad28-0677ea95668b" x="531.14" y="95.08" width="8.26" height="8.26" rx="1.72"/><g class="b267a85d-d759-4e42-9f55-d031e5d88c6a"><path class="ef54f95f-5fe9-4150-9b17-a683d4c7ecf5" d="M66.23,611.3H-6.72a5.13,5.13,0,0,1-5.11-5.11v-141a5.13,5.13,0,0,1,5.11-5.11h73" transform="translate(12.68 12.77)"/><path class="b6299647-b87b-4557-94c4-686df6f13295" d="M66.23,611.3H-6.72a5.13,5.13,0,0,1-5.11-5.11v-141a5.13,5.13,0,0,1,5.11-5.11h73" transform="translate(12.68 12.77)"/><path class="a519a689-f3ec-4ef2-b59e-62a3f78ef8c6" d="M66.23,460.12h72.94a5.13,5.13,0,0,1,5.11,5.11v141a5.13,5.13,0,0,1-5.11,5.11H66.23" transform="translate(12.68 12.77)"/><path class="b6299647-b87b-4557-94c4-686df6f13295" d="M66.23,460.12h72.94a5.13,5.13,0,0,1,5.11,5.11v141a5.13,5.13,0,0,1-5.11,5.11H66.23" transform="translate(12.68 12.77)"/></g><path class="b72360ad-af34-40e4-afa8-ccea5f6ec756" d="M52.49,518.71c2.22-.12,3.89-.29,5.56-.29a4.09,4.09,0,0,1,4.33,3.42,3.93,3.93,0,0,1-2.92,4.86c-7.5,1.29-15,1.69-21.92-2.38-5.62-3.32-7.22-11.06-3.68-16.54a3.88,3.88,0,0,1,5-1.8,4.14,4.14,0,0,1,2.85,4.73,3.88,3.88,0,0,1-.11.49c-1.2,5.26-.41,6.5,5,7.22C48.67,518.7,50.87,518.64,52.49,518.71Z" transform="translate(12.68 12.77)"/><path class="b72360ad-af34-40e4-afa8-ccea5f6ec756" d="M80.76,527.54c-2.4-.32-4.85,0-7.22-.66a4.24,4.24,0,0,1-3.42-4.8,4.11,4.11,0,0,1,4.42-3.56c3.5,0,7,.66,10.49,0a25.5,25.5,0,0,0,3.9-.83c2.54-.89,3.15-2.23,2.47-4.88-.29-1.12-.83-2.21-.54-3.42a4.13,4.13,0,0,1,3.33-3.35A4,4,0,0,1,98.7,508a12,12,0,0,1-3.3,16.05C91,527.08,85.89,527.44,80.76,527.54Z" transform="translate(12.68 12.77)"/><path class="b72360ad-af34-40e4-afa8-ccea5f6ec756" d="M81.34,559c-2.44-.2-4.7-.29-6.92-.59-3.06-.41-4.68-2.37-4.38-5s2.36-4,5.46-3.73a52,52,0,0,0,9.5.07c2.49-.23,4.88-.78,6.81-2.71a4.11,4.11,0,0,1,5.86-.19,4.33,4.33,0,0,1,.5,5.9c-1.83,2.56-4.5,3.9-7.4,4.85C87.65,558.54,84.37,558.59,81.34,559Z" transform="translate(12.68 12.77)"/><path class="b72360ad-af34-40e4-afa8-ccea5f6ec756" d="M51.42,542.86a25.51,25.51,0,0,1-11.78-1.78,11.62,11.62,0,0,1-5.79-4.6,4,4,0,0,1,.87-5.43A4,4,0,0,1,40.2,531c2.49,2.61,5.57,3.21,8.9,3.22,2.84,0,5.68-.1,8.52-.17s4.54,1.29,4.82,3.67-1.18,4.22-3.79,4.75a14.79,14.79,0,0,1-2.47.4C54.6,542.9,53,542.86,51.42,542.86Z" transform="translate(12.68 12.77)"/><path class="b72360ad-af34-40e4-afa8-ccea5f6ec756" d="M51.45,558.38a26.07,26.07,0,0,1-11.57-1.65,12.14,12.14,0,0,1-5.76-4.28,4.19,4.19,0,0,1,.59-5.86,3.9,3.9,0,0,1,5.84.22c2,2.05,4.43,2.65,7,2.85a47.64,47.64,0,0,0,9.77-.15A4.36,4.36,0,0,1,62.29,553a4.3,4.3,0,0,1-3.36,4.87,14.85,14.85,0,0,1-2.72.45C54.62,558.43,53,558.38,51.45,558.38Z" transform="translate(12.68 12.77)"/><path class="b72360ad-af34-40e4-afa8-ccea5f6ec756" d="M79.63,534.11c1.83,0,3.68.13,5.5,0a10,10,0,0,0,6.77-2.78,4,4,0,0,1,5.82-.21,4.18,4.18,0,0,1,.45,5.86A12.46,12.46,0,0,1,92,541.39c-5.91,2.09-12,1.94-18,1.07a4.09,4.09,0,0,1-3.8-4.7c.24-2.34,2.11-3.82,4.77-3.73,1.58.06,3.16.16,4.75.24Z" transform="translate(12.68 12.77)"/><path class="b72360ad-af34-40e4-afa8-ccea5f6ec756" d="M51.53,574a26.5,26.5,0,0,1-9.89-1.21c-2.68-.8-4.07-2.94-3.52-5.23s2.74-3.72,5.48-3.11a40.77,40.77,0,0,0,13.93.59,4.29,4.29,0,0,1,4.88,3.66,4.21,4.21,0,0,1-3.65,4.85,18.77,18.77,0,0,1-3,.43C54.37,574,53,574,51.53,574Z" transform="translate(12.68 12.77)"/><path class="b72360ad-af34-40e4-afa8-ccea5f6ec756" d="M80.7,574.06a29.63,29.63,0,0,1-6.56-.47c-2.9-.51-4.41-2.42-4-5,.37-2.37,2.5-3.8,5.21-3.49a38.49,38.49,0,0,0,12.93-.52c3.26-.72,5.55.51,6.1,3.11.52,2.44-1,4.49-4.11,5.3A29.73,29.73,0,0,1,80.7,574.06Z" transform="translate(12.68 12.77)"/><path class="eee62b92-d80c-425c-8c2f-7f87b73e2e8d" d="M66.23,132.45a66.23,66.23,0,1,1,66.22-66.22A66.3,66.3,0,0,1,66.23,132.45ZM66.23,2a64.23,64.23,0,1,0,64.22,64.23A64.3,64.3,0,0,0,66.23,2Z" transform="translate(12.68 12.77)"/><path class="eee62b92-d80c-425c-8c2f-7f87b73e2e8d" d="M557.77,132.45A66.23,66.23,0,1,1,624,66.23,66.3,66.3,0,0,1,557.77,132.45ZM557.77,2A64.23,64.23,0,1,0,622,66.23,64.3,64.3,0,0,0,557.77,2Z" transform="translate(12.68 12.77)"/><path class="eee62b92-d80c-425c-8c2f-7f87b73e2e8d" d="M66.23,604.5a66.23,66.23,0,1,1,66.22-66.23A66.3,66.3,0,0,1,66.23,604.5Zm0-130.46a64.23,64.23,0,1,0,64.22,64.23A64.3,64.3,0,0,0,66.23,474Z" transform="translate(12.68 12.77)"/><path class="eee62b92-d80c-425c-8c2f-7f87b73e2e8d" d="M557.77,604.5A66.23,66.23,0,1,1,624,538.27,66.3,66.3,0,0,1,557.77,604.5Zm0-130.46A64.23,64.23,0,1,0,622,538.27,64.3,64.3,0,0,0,557.77,474Z" transform="translate(12.68 12.77)"/></g></g></svg>