<?xml version="1.0" encoding="UTF-8" standalone="no"?>
<!DOCTYPE svg PUBLIC "-//W3C//DTD SVG 1.1//EN" "http://www.w3.org/Graphics/SVG/1.1/DTD/svg11.dtd">
<svg width="100%" height="100%" viewBox="0 0 287 391" version="1.1" xmlns="http://www.w3.org/2000/svg" xmlns:xlink="http://www.w3.org/1999/xlink" xml:space="preserve" xmlns:serif="http://www.serif.com/" style="fill-rule:evenodd;clip-rule:evenodd;stroke-linecap:round;stroke-miterlimit:5;">
    <g transform="matrix(1,0,0,1,-2671.53,-2073.33)">
        <g transform="matrix(1,0,0,1,-0.535045,-0.0886448)">
            <g transform="matrix(1,0,0,1,-5.20886,24.5496)">
                <g transform="matrix(0.620572,0,0,0.620572,2553.23,1181.7)">
                    <path d="M495.819,1704.89L622.06,1632" style="fill:none;stroke:rgb(154,215,243);stroke-width:4.83px;"/>
                </g>
                <g transform="matrix(0.569016,0,0,0.569016,2580.12,1269.93)">
                    <path d="M561.763,1491.76L493.943,1530.91L493.943,1704.04L426.374,1743.06" style="fill:none;stroke:rgb(154,215,243);stroke-width:5.27px;"/>
                </g>
                <g transform="matrix(0.569016,0,0,0.569016,2580.12,1269.93)">
                    <path d="M493.943,1704.04L493.943,1862.81L599.675,1801.77" style="fill:none;stroke:rgb(154,215,243);stroke-width:5.27px;"/>
                </g>
                <g transform="matrix(0.569016,0,0,0.868046,2422.89,1907.89)">
                    <g transform="matrix(1.18094,-0.446941,2.22951e-17,0.779503,35.9914,313.656)">
                        <rect x="362.667" y="314.079" width="234.667" height="277.128" style="fill:rgb(231,231,231);"/>
                    </g>
                    <g transform="matrix(1.18094,-0.446941,2.22951e-17,0.708421,35.9914,355.68)">
                        <rect x="362.667" y="314.079" width="234.667" height="277.128" style="fill:rgb(243,243,243);"/>
                    </g>
                    <g transform="matrix(1.18094,-0.446941,2.22951e-17,0.0710827,35.9914,536.155)">
                        <rect x="362.667" y="314.079" width="234.667" height="277.128" style="fill:rgb(251,251,251);"/>
                    </g>
                    <g transform="matrix(0.866025,-0.327757,0.621795,0.235325,209.536,258.027)">
                        <rect x="-64" y="471.118" width="320" height="27.713" style="fill:rgb(235,235,235);"/>
                    </g>
                    <g transform="matrix(0.53849,0.203798,-8.8902e-17,1.11358,188.573,230.325)">
                        <rect x="480" y="55.426" width="32" height="193.99" style="fill:rgb(224,224,224);"/>
                    </g>
                    <g transform="matrix(1,0,0,0.655514,48.5881,153.884)">
                        <g transform="matrix(0.567809,-0.327825,3.63958e-17,0.757078,145.455,131.604)">
                            <ellipse cx="498.939" cy="540.752" rx="9.55" ry="8.27" style="fill:rgb(242,133,133);"/>
                        </g>
                        <g transform="matrix(0.567809,-0.327825,3.63958e-17,0.757078,166.9,119.223)">
                            <ellipse cx="498.939" cy="540.752" rx="9.55" ry="8.27" style="fill:rgb(242,208,128);"/>
                        </g>
                        <g transform="matrix(0.567809,-0.327825,3.63958e-17,0.757078,187.773,107.172)">
                            <ellipse cx="498.939" cy="540.752" rx="9.55" ry="8.27" style="fill:rgb(141,243,146);"/>
                        </g>
                    </g>
                </g>
                <g transform="matrix(0.671976,-0.387966,8.91708e-18,0.614984,2443.37,2216.61)">
                    <rect x="362.667" y="314.079" width="234.667" height="277.128" style="fill:rgb(182,240,243);"/>
                </g>
                <g transform="matrix(0.306879,-0.177176,2.9046e-18,0.256563,2780.29,2260.47)">
                    <rect x="362.667" y="314.079" width="234.667" height="277.128" style="fill:rgb(182,240,243);"/>
                </g>
                <g transform="matrix(0.306879,-0.177176,2.9046e-18,0.256563,2780.29,2170.13)">
                    <rect x="362.667" y="314.079" width="234.667" height="277.128" style="fill:rgb(182,240,243);"/>
                </g>
                <g transform="matrix(0.306879,-0.177176,2.9046e-18,0.256563,2780.29,2079.79)">
                    <rect x="362.667" y="314.079" width="234.667" height="277.128" style="fill:rgb(182,240,243);"/>
                </g>
                <g transform="matrix(0.702602,0,0,0.702602,2735.44,747.17)">
                    <path d="M256.907,1938.83L298.05,1915.08L298.05,1958.7L246.027,1988.74L246.027,1936.6L256.907,1930.32L256.907,1938.83Z" style="fill:rgb(115,228,232);"/>
                </g>
                <g transform="matrix(0.702602,0,0,0.702602,2735.44,837.51)">
                    <path d="M256.907,1938.83L298.05,1915.08L298.05,1958.7L246.027,1988.74L246.027,1936.6L256.907,1930.32L256.907,1938.83Z" style="fill:rgb(115,228,232);"/>
                </g>
                <g transform="matrix(0.702602,0,0,0.702602,2735.44,925.198)">
                    <path d="M256.907,1938.83L298.05,1915.08L298.05,1958.7L246.027,1988.74L246.027,1936.6L256.907,1930.32L256.907,1938.83Z" style="fill:rgb(115,228,232);"/>
                </g>
                <g transform="matrix(0.141704,-0.081813,-0.0460219,0.215755,2912.57,1741.55)">
                    <rect x="657.329" y="1998.63" width="257.941" height="118.083" style="fill:white;"/>
                </g>
                <g transform="matrix(0.141704,-0.081813,-0.0460219,0.215755,2912.57,1831.89)">
                    <rect x="657.329" y="1998.63" width="257.941" height="118.083" style="fill:white;"/>
                </g>
                <g transform="matrix(0.141704,-0.081813,-0.0460219,0.215755,2912.57,1919.58)">
                    <rect x="657.329" y="1998.63" width="257.941" height="118.083" style="fill:white;"/>
                </g>
                <g transform="matrix(0.306879,-0.177176,2.9046e-18,0.0485498,2780.29,2145.12)">
                    <rect x="362.667" y="314.079" width="234.667" height="277.128" style="fill:rgb(251,251,251);"/>
                </g>
                <g transform="matrix(0.306879,-0.177176,2.9046e-18,0.0485498,2780.29,2235.46)">
                    <rect x="362.667" y="314.079" width="234.667" height="277.128" style="fill:rgb(251,251,251);"/>
                </g>
                <g transform="matrix(0.306879,-0.177176,2.9046e-18,0.0485498,2780.29,2325.81)">
                    <rect x="362.667" y="314.079" width="234.667" height="277.128" style="fill:rgb(251,251,251);"/>
                </g>
                <g transform="matrix(0.225044,-0.129929,0.353811,0.204273,2729.49,1985.9)">
                    <rect x="-64" y="471.118" width="320" height="27.713" style="fill:rgb(235,235,235);"/>
                </g>
                <g transform="matrix(0.225044,-0.129929,0.353811,0.204273,2729.49,2076.24)">
                    <rect x="-64" y="471.118" width="320" height="27.713" style="fill:rgb(235,235,235);"/>
                </g>
                <g transform="matrix(0.225044,-0.129929,0.353811,0.204273,2729.49,2166.58)">
                    <rect x="-64" y="471.118" width="320" height="27.713" style="fill:rgb(235,235,235);"/>
                </g>
                <g transform="matrix(0.306409,0.176906,-2.17366e-17,0.366518,2734.7,1985.22)">
                    <rect x="480" y="55.426" width="32" height="193.99" style="fill:rgb(224,224,224);"/>
                </g>
                <g transform="matrix(0.306409,0.176906,-2.17366e-17,0.366518,2734.7,2075.56)">
                    <rect x="480" y="55.426" width="32" height="193.99" style="fill:rgb(224,224,224);"/>
                </g>
                <g transform="matrix(0.306409,0.176906,-2.17366e-17,0.366518,2734.7,2165.9)">
                    <rect x="480" y="55.426" width="32" height="193.99" style="fill:rgb(224,224,224);"/>
                </g>
                <g transform="matrix(0.569016,0,0,0.569016,2502.94,1283.32)">
                    <path d="M407.016,1873.68L407.016,1928.95L538.817,1852.86L538.817,1786.16" style="fill:none;stroke:rgb(154,215,243);stroke-width:2px;stroke-dasharray:4,6,0,0;"/>
                </g>
                <g transform="matrix(0.702602,0,0,0.702602,2588.16,984.769)">
                    <path d="M256.907,1938.83L298.05,1915.08L298.05,1958.7L246.027,1988.74L246.027,1936.6L256.907,1930.32L256.907,1938.83Z" style="fill:rgb(115,228,232);"/>
                </g>
                <g transform="matrix(0.141704,-0.081813,-0.0460219,0.215755,2765.29,1979.15)">
                    <rect x="657.329" y="1998.63" width="257.941" height="118.083" style="fill:white;"/>
                </g>
                <g transform="matrix(0.28166,-0.162616,6.64804e-18,0.318312,2592.78,2247.67)">
                    <rect x="362.667" y="314.079" width="234.667" height="277.128" style="fill:rgb(240,252,252);"/>
                </g>
                <g transform="matrix(0.28166,-0.162616,6.64804e-18,0.318312,2673.27,2201.2)">
                    <rect x="362.667" y="314.079" width="234.667" height="277.128" style="fill:rgb(240,252,252);"/>
                </g>
                <g transform="matrix(0.492782,-0.284508,2.381e-17,0.495277,2512.74,1569.54)">
                    <rect x="410.427" y="1764.61" width="11.051" height="39.707" style="fill:rgb(154,215,243);"/>
                </g>
                <g transform="matrix(0.492782,-0.284508,2.381e-17,0.495277,2591.02,1524.35)">
                    <rect x="410.427" y="1764.61" width="11.051" height="39.707" style="fill:rgb(154,215,243);"/>
                </g>
                <g transform="matrix(0.492782,-0.284508,2.381e-17,0.495277,2538.69,1554.56)">
                    <rect x="410.427" y="1764.61" width="11.051" height="39.707" style="fill:rgb(154,215,243);"/>
                </g>
                <g transform="matrix(0.492782,-0.284508,2.381e-17,0.495277,2616.96,1509.37)">
                    <rect x="410.427" y="1764.61" width="11.051" height="39.707" style="fill:rgb(154,215,243);"/>
                </g>
                <g transform="matrix(2.84023,-1.63981,6.14607e-18,0.127846,1549.29,2788.75)">
                    <rect x="410.427" y="1764.61" width="11.051" height="39.707" style="fill:rgb(154,215,243);"/>
                </g>
                <g transform="matrix(2.84023,-1.63981,6.14607e-18,0.127846,1627.56,2743.56)">
                    <rect x="410.427" y="1764.61" width="11.051" height="39.707" style="fill:rgb(154,215,243);"/>
                </g>
                <g transform="matrix(-1.56762e-17,-0.231537,0.48755,-0.281487,1868.36,2914.41)">
                    <path d="M370.639,1775.71L370.639,1761.69L472.933,1761.69L472.933,1747.68L538.799,1768.7L472.933,1789.72L472.933,1775.71L370.639,1775.71Z" style="fill:rgb(154,215,243);"/>
                </g>
                <g transform="matrix(6.58564e-18,0.231537,0.48755,-0.281487,1946.63,2654.1)">
                    <path d="M370.639,1775.71L370.639,1761.69L472.933,1761.69L472.933,1747.68L538.799,1768.7L472.933,1789.72L472.933,1775.71L370.639,1775.71Z" style="fill:rgb(154,215,243);"/>
                </g>
            </g>
        </g>
    </g>
</svg>
